<svg width="25" height="24" viewBox="0 0 25 24" fill="none" xmlns="http://www.w3.org/2000/svg">
<g clip-path="url(#clip0_394_113)">
<rect x="0.40625" width="24" height="24" rx="12" fill="#163300" fill-opacity="0.08"/>
<g clip-path="url(#clip1_394_113)">
<mask id="mask0_394_113" style="mask-type:luminance" maskUnits="userSpaceOnUse" x="0" y="0" width="25" height="24">
<path d="M24.4062 12C24.4062 5.37258 19.0337 0 12.4062 0C5.77883 0 0.40625 5.37258 0.40625 12C0.40625 18.6274 5.77883 24 12.4062 24C19.0337 24 24.4062 18.6274 24.4062 12Z" fill="white"/>
</mask>
<g mask="url(#mask0_394_113)">
<path d="M24.4062 12C24.4062 5.37258 19.0337 0 12.4062 0C5.77883 0 0.40625 5.37258 0.40625 12C0.40625 18.6274 5.77883 24 12.4062 24C19.0337 24 24.4062 18.6274 24.4062 12Z" fill="white"/>
<mask id="mask1_394_113" style="mask-type:luminance" maskUnits="userSpaceOnUse" x="0" y="0" width="25" height="24">
<path d="M12.4062 24C19.0337 24 24.4062 18.6274 24.4062 12C24.4062 5.37258 19.0337 0 12.4062 0C5.77883 0 0.40625 5.37258 0.40625 12C0.40625 18.6274 5.77883 24 12.4062 24Z" fill="white"/>
</mask>
<g mask="url(#mask1_394_113)">
<path d="M0.40625 0H24.4062V24H0.40625V0Z" fill="white"/>
<path d="M12.4062 0H0.40625V12.9338H12.4062V0Z" fill="#231D9A"/>
<path d="M8.15783 3.17005L9.06079 2.26709L8.15783 1.36413L7.25487 2.26709L8.15783 3.17005Z" fill="white"/>
<path d="M8.15783 6.82203L9.06079 5.91907L8.15783 5.01611L7.25487 5.91907L8.15783 6.82203Z" fill="white"/>
<path d="M8.15783 10.474L9.06079 9.57104L8.15783 8.66808L7.25487 9.57104L8.15783 10.474Z" fill="white"/>
<path d="M3.34191 3.17005L4.24487 2.26709L3.34191 1.36413L2.43895 2.26709L3.34191 3.17005Z" fill="white"/>
<path d="M3.34191 6.82203L4.24487 5.91907L3.34191 5.01611L2.43895 5.91907L3.34191 6.82203Z" fill="white"/>
<path d="M3.34191 10.474L4.24487 9.57104L3.34191 8.66808L2.43895 9.57104L3.34191 10.474Z" fill="white"/>
<path d="M10.5658 4.99598L11.4688 4.09302L10.5658 3.19006L9.66283 4.09302L10.5658 4.99598Z" fill="white"/>
<path d="M10.5658 1.34425L11.4688 0.441284L10.5658 -0.461677L9.66283 0.441285L10.5658 1.34425Z" fill="white"/>
<path d="M10.5658 8.64796L11.4688 7.745L10.5658 6.84203L9.66283 7.745L10.5658 8.64796Z" fill="white"/>
<path d="M10.5658 12.3001L11.4688 11.3971L10.5658 10.4941L9.66283 11.3971L10.5658 12.3001Z" fill="white"/>
<path d="M5.74963 4.99598L6.65259 4.09302L5.74963 3.19006L4.84667 4.09302L5.74963 4.99598Z" fill="white"/>
<path d="M5.74963 8.64796L6.65259 7.745L5.74963 6.84203L4.84666 7.745L5.74963 8.64796Z" fill="white"/>
<path d="M5.74963 12.3001L6.65259 11.3971L5.74963 10.4941L4.84667 11.3971L5.74963 12.3001Z" fill="white"/>
<path d="M0.933953 4.99598L1.83691 4.09302L0.933953 3.19006L0.0309919 4.09302L0.933953 4.99598Z" fill="white"/>
<path d="M0.933953 8.64796L1.83691 7.745L0.933953 6.84203L0.0309914 7.74499L0.933953 8.64796Z" fill="white"/>
<path d="M0.933953 12.3001L1.83691 11.3971L0.933953 10.4941L0.0309919 11.3971L0.933953 12.3001Z" fill="white"/>
<path d="M30.1245 -0.123047H12.4062V1.74203H30.1245V-0.123047Z" fill="#F0263C"/>
<path d="M25.4618 3.60718H12.4062V5.47226H25.4618V3.60718Z" fill="#F0263C"/>
<path d="M25.4618 7.33716H12.4062V9.20224H25.4618V7.33716Z" fill="#F0263C"/>
<path d="M30.1245 11.0675H12.4062V12.9326H30.1245V11.0675Z" fill="#F0263C"/>
<path d="M30.0312 14.7976H0.65625V16.6627H30.0312V14.7976Z" fill="#F0263C"/>
<path d="M30.0312 18.5277H0.65625V20.3928H30.0312V18.5277Z" fill="#F0263C"/>
<path d="M30.0312 22.2579H0.65625V24.123H30.0312V22.2579Z" fill="#F0263C"/>
</g>
</g>
</g>
</g>
<rect x="0.90625" y="0.5" width="23" height="23" rx="11.5" stroke="#0E0F0C"/>
<defs>
<clipPath id="clip0_394_113">
<rect x="0.40625" width="24" height="24" rx="12" fill="white"/>
</clipPath>
<clipPath id="clip1_394_113">
<rect width="24" height="24" fill="white" transform="translate(0.40625)"/>
</clipPath>
</defs>
</svg>
