<svg width="641" height="263" viewBox="0 0 641 263" fill="none" xmlns="http://www.w3.org/2000/svg">
<path d="M431.546 103.148C444.69 106.644 457.703 108.317 470.93 110.776C484.525 113.31 499.184 114.535 512.182 108.737C513.444 108.166 514.733 107.507 515.567 106.402C517.067 104.428 516.774 101.724 517.007 99.2587C517.356 95.428 519.151 91.7152 521.971 89.0996C516.603 82.2229 512.776 75.5149 511.654 66.5989C511.268 63.4978 511.408 59.9434 513.678 57.7885C517.449 54.1912 523.719 57.0422 527.532 60.5621C533.381 65.962 537.913 72.8009 540.576 80.3159C537.303 72.1089 535.763 63.2143 536.072 54.3675C536.198 50.7644 536.673 47.0014 538.801 44.1183C540.921 41.2108 545.133 39.5811 548.251 41.3442C549.543 42.0941 550.494 43.294 551.365 44.4918C561.681 58.6126 566.871 76.4244 565.703 93.8863C570.254 97.8198 577.667 93.1657 579.57 87.4513C581.473 81.7369 580.324 75.4364 581.668 69.5465C583.387 61.9195 589.583 55.455 597.123 53.3962C599.969 52.6086 603.391 52.5764 605.494 54.6755C607.337 56.5344 607.521 59.4049 607.598 62.015C608.006 76.0967 608.225 90.9542 601.514 103.322C598.682 108.521 594.758 113.016 591.341 117.862C586.578 124.581 582.828 132.003 580.179 139.807C578.504 144.787 576.861 151.353 572.031 154.182C565.885 157.758 555.77 158.527 548.863 160.393C533.236 164.544 517.616 168.72 501.988 172.872C496.403 174.361 490.794 175.858 485.052 176.571C460.487 179.59 436.627 168.692 412.524 165.983C388.228 163.253 363.183 167.668 341.267 178.419C335.274 181.363 329.496 184.747 323.741 188.124C318.575 191.162 313.433 194.192 308.26 197.206C309.478 196.489 308.488 185.91 308.424 184.306C308.285 179.747 307.407 175.119 307.404 170.571C307.42 162.771 307.91 155.04 307.544 147.118C307.217 140.46 300.935 123.167 303.08 118.071C305.619 112.003 322.863 105.124 328.545 102.381C338.417 97.5895 348.902 94.0212 359.806 92.613C383.908 89.4697 408.01 96.8877 431.546 103.148Z" fill="#B55C43"/>
<path d="M376.197 68.2763C388.233 65.4323 400.985 67.5576 412.596 71.7865C422.493 75.3673 432.373 80.5495 442.867 79.7184C450.974 79.083 458.335 74.8704 466.212 72.8686C475.741 70.4428 485.765 71.298 495.555 72.1713C502.775 72.8171 511.168 74.1694 514.65 80.5303C517.71 86.1156 515.29 93.4507 510.747 97.9215C506.204 102.392 499.986 104.686 493.99 106.833C487.327 109.237 480.656 111.616 473.993 114.019C497.47 116.068 520.517 99.8649 543.46 105.136C547.519 95.4121 558.594 90.8125 568.906 88.6002C570.752 88.1972 572.613 87.8428 574.278 86.9361C576.467 85.737 578.057 83.7093 579.589 81.7526C587.398 71.7638 596.997 61.3624 609.645 60.3535C612.065 60.1747 614.659 60.3948 616.618 61.8462C621.57 65.5243 618.967 73.3941 615.392 78.4212C611.165 84.3652 606.14 89.701 601.165 95.0219C592.613 104.146 584.037 113.278 575.493 122.427C569.889 128.392 564.185 134.466 557.037 138.508C545.143 145.219 531.121 145.476 517.953 147.308C511.288 148.223 504.254 149.409 498.117 152.317C492.078 155.196 486.976 159.145 480.169 160.289C471.842 161.683 463.426 159.034 455.412 156.396C433.453 149.202 411.456 138.828 388.456 136.075C379.789 135.046 370.769 134.603 362.056 135.343C354.513 135.993 346.791 139.464 339.257 141.016C335.049 141.873 330.729 142.711 326.451 142.206C320.191 141.48 315.156 138.227 315.706 131.568C316.822 117.686 330.004 103.852 338.855 94.051C349.355 82.4172 360.119 72.0862 376.197 68.2763Z" fill="#C67154"/>
<path d="M540.274 54.3636C540.169 56.5505 540.467 58.7477 540.764 60.9449C542.235 71.6168 543.883 82.2611 545.677 92.8608C547.935 93.0239 549.969 91.5793 551.783 90.2015C553.516 88.902 555.24 87.5782 556.972 86.2787C558.311 85.2588 559.715 84.1924 560.479 82.6827C561.487 80.7527 561.281 78.4209 560.87 76.2851C559.351 68.4214 556.989 58.5798 553.774 51.2597C552.474 48.304 550.46 45.5391 547.677 43.9134C542.347 40.8292 540.443 50.6409 540.274 54.3636Z" fill="#C67154"/>
<path d="M514.878 70.1921C515.752 70.6173 516.751 70.5787 517.715 70.6842C521.231 71.0489 524.251 73.1878 527.455 74.7117C529.133 75.5038 531.332 76.0839 532.709 74.8397C534.216 73.5022 533.693 71.0012 532.774 69.2065C531.026 65.8286 528.369 63.047 525.727 60.3142C516.493 50.7051 509.582 67.6562 514.878 70.1921Z" fill="#C67154"/>
<path d="M436.301 116.304C432.254 117.165 428.474 118.903 424.605 120.348C415.046 123.9 404.841 125.68 394.652 125.594C395.082 126.74 396.298 127.327 397.438 127.751C405.875 130.819 415.273 129.444 423.932 127.044C432.592 124.644 441.052 121.241 449.963 120.28C455.243 119.708 462.494 120.717 467.226 118.264C464.767 114.996 458.247 116.212 454.71 116.04C448.576 115.728 442.372 115.012 436.301 116.304Z" fill="#B55C43"/>
<path d="M586.486 78.9849C584.414 82.2236 582.846 85.8939 580.001 88.517C575.894 92.3228 569.946 93.2314 564.717 95.2776C559.512 97.3163 554.79 100.591 551.116 104.77C549.591 106.486 548.139 108.445 546.017 109.251C544.156 109.951 542.102 109.673 540.151 109.469C529.844 108.381 520.099 109.49 510.232 112.204C500.414 114.905 490.843 116.146 481.589 120.962C498.993 120.978 516.4 120.833 533.787 120.534C541.221 120.396 550.346 118.041 557.19 115.183C562.618 112.917 567.448 109.476 572.112 105.926C585.243 95.9377 597.454 84.7668 608.58 72.5696C610.412 70.5482 613.596 68.5135 611.442 65.8979C609.537 63.5786 604.99 64.8052 602.78 65.5851C596.2 67.9102 590.212 73.1405 586.486 78.9849Z" fill="#ED977A"/>
<path d="M484.044 72.807C474.642 73.7308 465.621 77.0392 456.392 79.0542C443.147 81.9474 429.201 82.1015 416.176 78.3834C411.661 77.0993 407.264 75.3272 402.696 74.2188C390.193 71.1662 376.811 73.1703 364.906 78.1025C356.809 81.4751 343.013 89.538 348.251 99.5668C361.063 95.9541 372.769 89.0606 385.655 85.6913C398.89 82.2425 413.11 82.7233 426.086 87.0681C432.096 89.0671 437.963 91.9076 444.309 92.1282C449.552 92.3123 454.666 90.6737 459.658 89.0722C465.471 87.1942 471.259 85.3235 477.071 83.4454C482.932 81.5525 488.939 79.6151 495.094 79.7341C501.241 79.8289 507.721 82.3231 511.032 87.5124C509.614 81.0278 509.263 78.1288 503.021 75.4556C497.011 72.8449 490.524 72.1617 484.044 72.807Z" fill="#ED977A"/>
<path d="M486.196 95.4021C486.507 97.9941 487.13 100.997 489.501 102.056C490.424 102.467 491.477 102.518 492.501 102.472C498.421 102.344 504.307 100.709 509.447 97.7589C510.852 96.9581 512.237 96.0038 513.133 94.6666C514.598 92.4908 514.591 89.6732 514.328 87.0663C513.892 82.7565 512.55 78.0045 508.79 75.8786C507.377 75.0854 505.728 74.7368 504.097 74.6221C500.964 74.38 497.829 74.8301 494.741 75.3459C492.663 75.6865 490.551 76.0907 488.674 77.0886C482.062 80.6203 485.47 89.5311 486.196 95.4021Z" fill="#EFA28E"/>
<path d="M607.651 73.0125C605.435 76.2153 602.41 80.17 602.196 84.0927C602.12 85.4995 602.463 87.1505 603.736 87.7469C605.001 88.319 606.445 87.5595 607.561 86.7673C611.866 83.6991 615.717 79.8383 618.183 75.0964C619.004 73.5157 620.947 70.2898 620.649 68.4386C620.29 66.1271 616.654 65.1072 614.687 65.5473C613.019 65.9227 611.862 67.3659 610.813 68.7233C609.805 70.0415 608.772 71.3672 607.835 72.7436C607.784 72.8389 607.734 72.9342 607.651 73.0125Z" fill="#EFA28E"/>
<path d="M555.156 55.3607C556.102 57.0676 557.114 58.7279 558.167 60.349C558.468 60.8157 558.77 61.2823 559.247 61.5362C560.588 62.2712 560.452 60.6899 560.317 59.9861C560.035 58.4494 559.255 56.8514 558.64 55.4429C557.34 52.4871 555.689 49.6914 554.039 46.8956C553.153 45.3834 552.22 43.4595 550.775 42.3837C548.919 41.0074 549.075 42.1304 549.694 43.7242C551.233 47.7245 553.056 51.6115 555.156 55.3607Z" fill="#EFA28E"/>
<path d="M302.781 108.452C301.68 107.457 299.969 107.606 298.481 107.874C286.045 110.015 272.639 113.862 261.67 120.291C219.948 143.354 130.296 191.252 105.462 198.347C80.6285 205.443 43.7811 252.1 28.4615 274.542L235.679 274.542C231.163 246.161 250.544 233.733 260.799 231.066C262.265 231.338 263.726 230.547 265.01 229.783C286.52 217.001 307.352 203.043 327.382 188.025C317.204 179.422 314.134 165.247 311.688 152.16C309.351 139.813 307.041 127.481 304.727 115.132L304.032 111.423C303.835 110.339 303.591 109.189 302.781 108.452Z" fill="#D9D9D9"/>
</svg>
