<svg width="307" height="340" viewBox="0 0 307 340" fill="none" xmlns="http://www.w3.org/2000/svg">
<g clip-path="url(#clip0_779_17463)" filter="url(#filter0_d_779_17463)">
<path d="M270.097 2.72632H36.6137C26.1315 2.72632 17.634 11.2238 17.634 21.706V298.145C17.634 308.627 26.1315 317.124 36.6137 317.124H270.097C280.579 317.124 289.077 308.627 289.077 298.145V21.706C289.077 11.2238 280.579 2.72632 270.097 2.72632Z" fill="#3B3E47"/>
<g opacity="0.36" filter="url(#filter1_f_779_17463)">
<path opacity="0.36" d="M44.7013 59.9395L43.8875 57.5979H38.9386L38.1248 59.9395H36.049L40.2672 48.3147H42.559L46.7606 59.9395H44.7013ZM39.5697 55.8043H43.2565L41.4131 50.5564L39.5697 55.8043ZM56.9619 51.42C57.903 51.42 58.6614 51.7246 59.2371 52.3334C59.8129 52.9427 60.1007 53.7616 60.1007 54.7913V59.9395H58.3071V54.9075C58.3071 54.332 58.1632 53.8893 57.8753 53.5789C57.5875 53.2582 57.1944 53.0973 56.6962 53.0973C56.1427 53.0973 55.6998 53.28 55.3676 53.6454C55.0466 54.0107 54.886 54.5588 54.886 55.2895V59.9395H53.0924V54.9075C53.0924 54.332 52.9541 53.8893 52.6773 53.5789C52.4115 53.2582 52.0296 53.0973 51.5314 53.0973C50.9889 53.0973 50.546 53.2857 50.2028 53.662C49.8596 54.0273 49.688 54.5702 49.688 55.2895V59.9395H47.8944V51.6359H49.688V52.6323C50.2194 51.8243 51.011 51.42 52.0628 51.42C53.1257 51.42 53.9117 51.8575 54.421 52.732C54.9746 51.8575 55.8216 51.42 56.9619 51.42ZM65.9394 60.1554C64.7219 60.1554 63.6866 59.735 62.8339 58.8932C61.9815 58.052 61.5553 57.0166 61.5553 55.7877C61.5553 54.5588 61.9815 53.5239 62.8339 52.6822C63.6866 51.8409 64.7219 51.42 65.9394 51.42C67.1684 51.42 68.2037 51.8409 69.045 52.6822C69.8976 53.5239 70.3237 54.5588 70.3237 55.7877C70.3237 57.0166 69.8976 58.052 69.045 58.8932C68.2037 59.735 67.1684 60.1554 65.9394 60.1554ZM64.096 57.6643C64.5943 58.1625 65.2087 58.4116 65.9394 58.4116C66.6702 58.4116 67.2846 58.1625 67.7828 57.6643C68.2811 57.1661 68.5302 56.5407 68.5302 55.7877C68.5302 55.0352 68.2811 54.4093 67.7828 53.9111C67.2846 53.4129 66.6702 53.1638 65.9394 53.1638C65.2087 53.1638 64.5943 53.4129 64.096 53.9111C63.5978 54.4093 63.3487 55.0352 63.3487 55.7877C63.3487 56.5407 63.5978 57.1661 64.096 57.6643ZM77.5422 51.6359H79.3358V59.9395H77.5422V58.8766C76.9998 59.7293 76.1419 60.1554 74.9681 60.1554C74.0162 60.1554 73.2466 59.8512 72.6597 59.242C72.0732 58.6332 71.7795 57.7972 71.7795 56.7343V51.6359H73.5731V56.5516C73.5731 57.1718 73.7391 57.6477 74.0713 57.9798C74.4034 58.312 74.8575 58.4781 75.4331 58.4781C76.0641 58.4781 76.5737 58.2845 76.9609 57.8968C77.3486 57.4982 77.5422 56.8952 77.5422 56.0866V51.6359ZM85.8007 51.42C86.753 51.42 87.5226 51.7246 88.1091 52.3334C88.696 52.9427 88.9893 53.7782 88.9893 54.8411V59.9395H87.1957V55.0238C87.1957 54.4041 87.0296 53.9277 86.6975 53.5955C86.3653 53.2634 85.9117 53.0973 85.3357 53.0973C84.7046 53.0973 84.1955 53.2966 83.8078 53.6952C83.4207 54.0829 83.2266 54.6807 83.2266 55.4888V59.9395H81.433V51.6359H83.2266V52.6988C83.7694 51.8466 84.6273 51.42 85.8007 51.42ZM95.5539 53.363H93.4946V57.3488C93.4946 57.6923 93.5724 57.9414 93.7271 58.0961C93.8822 58.2403 94.109 58.3234 94.408 58.3452C94.7183 58.3566 95.1003 58.3509 95.5539 58.3286V59.9395C94.1812 60.1056 93.1957 59.9893 92.5978 59.5907C91.9999 59.1813 91.701 58.4339 91.701 57.3488V53.363H90.1731V51.6359H91.701V49.8426L93.4946 49.3111V51.6359H95.5539V53.363Z" fill="black"/>
</g>
<path d="M51.9945 50.687L51.297 48.6801H47.055L46.3575 50.687H44.5782L48.1938 40.7229H50.1582L53.7596 50.687H51.9945ZM47.596 47.1428H50.7561L49.176 42.6446L47.596 47.1428ZM62.5034 43.3848C63.3101 43.3848 63.9601 43.6458 64.4536 44.1677C64.9471 44.6896 65.1938 45.3919 65.1938 46.2745V50.687H63.6564V46.3741C63.6564 45.8806 63.5331 45.501 63.2863 45.2353C63.0396 44.9601 62.7027 44.8225 62.2759 44.8225C61.8014 44.8225 61.4218 44.9791 61.1371 45.2923C60.8619 45.6054 60.7243 46.0752 60.7243 46.7015V50.687H59.1869V46.3741C59.1869 45.8806 59.0683 45.501 58.8311 45.2353C58.6033 44.9601 58.2759 44.8225 57.8489 44.8225C57.3839 44.8225 57.0043 44.9838 56.7101 45.3065C56.4159 45.6197 56.2688 46.0847 56.2688 46.7015V50.687H54.7314V43.5698H56.2688V44.4239C56.7243 43.7312 57.4028 43.3848 58.3044 43.3848C59.2154 43.3848 59.8892 43.7596 60.3257 44.5093C60.8002 43.7596 61.5262 43.3848 62.5034 43.3848ZM70.1987 50.872C69.1548 50.872 68.2675 50.5114 67.5368 49.7904C66.8061 49.0692 66.4408 48.1819 66.4408 47.1285C66.4408 46.0752 66.8061 45.1879 67.5368 44.4666C68.2675 43.7454 69.1548 43.3848 70.1987 43.3848C71.2521 43.3848 72.1394 43.7454 72.8606 44.4666C73.5913 45.1879 73.9567 46.0752 73.9567 47.1285C73.9567 48.1819 73.5913 49.0692 72.8606 49.7904C72.1394 50.5114 71.2521 50.872 70.1987 50.872ZM68.6187 48.7371C69.0457 49.1641 69.5724 49.3776 70.1987 49.3776C70.8251 49.3776 71.3517 49.1641 71.7788 48.7371C72.2058 48.31 72.4193 47.7738 72.4193 47.1285C72.4193 46.4832 72.2058 45.9471 71.7788 45.52C71.3517 45.093 70.8251 44.8794 70.1987 44.8794C69.5724 44.8794 69.0457 45.093 68.6187 45.52C68.1916 45.9471 67.9781 46.4832 67.9781 47.1285C67.9781 47.7738 68.1916 48.31 68.6187 48.7371ZM80.1441 43.5698H81.6814V50.687H80.1441V49.7762C79.6791 50.5067 78.9436 50.872 77.9377 50.872C77.1216 50.872 76.462 50.6111 75.9591 50.0891C75.4561 49.5674 75.2046 48.8509 75.2046 47.9399V43.5698H76.742V47.7833C76.742 48.3148 76.8843 48.7228 77.169 49.0075C77.4537 49.2922 77.8428 49.4346 78.3363 49.4346C78.8772 49.4346 79.3137 49.2685 79.6458 48.9363C79.978 48.5947 80.1441 48.0775 80.1441 47.3848V43.5698ZM87.2225 43.3848C88.0387 43.3848 88.6982 43.6458 89.2012 44.1677C89.7041 44.6896 89.9556 45.4061 89.9556 46.3172V50.687H88.4182V46.4737C88.4182 45.9423 88.2759 45.5342 87.9912 45.2495C87.7065 44.9649 87.3174 44.8225 86.824 44.8225C86.283 44.8225 85.8465 44.9933 85.5144 45.335C85.1822 45.6671 85.0161 46.1796 85.0161 46.8723V50.687H83.4788V43.5698H85.0161V44.4809C85.4811 43.7502 86.2166 43.3848 87.2225 43.3848ZM95.5826 45.0503H93.8175V48.4666C93.8175 48.7608 93.8839 48.9743 94.0168 49.1072C94.1496 49.2305 94.3442 49.3017 94.6004 49.3207C94.8661 49.3302 95.1935 49.3254 95.5826 49.3065V50.687C94.4059 50.8293 93.5613 50.7297 93.0488 50.3881C92.5364 50.0369 92.2801 49.3966 92.2801 48.4666V45.0503H90.9705V43.5698H92.2801V42.0325L93.8175 41.577V43.5698H95.5826V45.0503Z" fill="#E3E3E1"/>
<g opacity="0.5" filter="url(#filter2_f_779_17463)">
<path opacity="0.5" d="M45.3645 102.644L41.3503 95.7258H38.361V102.644H34.4323V82.7152H42.4037C44.2447 82.7152 45.8106 83.3605 47.1012 84.6511C48.3918 85.9418 49.0371 87.4981 49.0371 89.3201C49.0371 90.5538 48.686 91.7021 47.9837 92.7649C47.2815 93.8088 46.3515 94.5965 45.1937 95.1279L49.6065 102.644H45.3645ZM38.361 86.3878V92.281H42.4037C43.1439 92.281 43.7797 91.9963 44.3112 91.4269C44.8426 90.8385 45.1083 90.1363 45.1083 89.3201C45.1083 88.504 44.8426 87.8113 44.3112 87.2419C43.7797 86.6725 43.1439 86.3878 42.4037 86.3878H38.361ZM54.5809 92.4518C54.5809 92.8314 54.8276 93.1445 55.3211 93.3913C55.8335 93.619 56.4504 93.8278 57.1716 94.0176C57.8928 94.1884 58.614 94.4162 59.3353 94.7009C60.0565 94.9666 60.6638 95.4221 61.1573 96.0674C61.6698 96.7127 61.926 97.5193 61.926 98.4873C61.926 99.9487 61.3756 101.078 60.2748 101.875C59.1929 102.653 57.8359 103.042 56.2036 103.042C53.2808 103.042 51.2879 101.913 50.225 99.6546L53.4136 97.861C53.8312 99.0947 54.7612 99.7115 56.2036 99.7115C57.5132 99.7115 58.168 99.3034 58.168 98.4873C58.168 98.1077 57.9118 97.804 57.3993 97.5763C56.9059 97.3296 56.2985 97.1113 55.5773 96.9215C54.8561 96.7317 54.1348 96.4945 53.4136 96.2098C52.6924 95.9251 52.0755 95.479 51.5631 94.8717C51.0696 94.2454 50.8229 93.4672 50.8229 92.5372C50.8229 91.1327 51.3353 90.0319 52.3602 89.2347C53.4041 88.4186 54.6947 88.0105 56.2321 88.0105C57.3898 88.0105 58.4432 88.2763 59.3922 88.8077C60.3412 89.3201 61.0909 90.0603 61.6413 91.0283L58.5097 92.7365C58.0541 91.7685 57.295 91.2845 56.2321 91.2845C55.7576 91.2845 55.359 91.3889 55.0364 91.5977C54.7327 91.8065 54.5809 92.0912 54.5809 92.4518ZM75.4163 82.7152H78.8326V102.644H74.9038V86.8718L71.1458 87.9251L70.1779 84.5657L75.4163 82.7152ZM89.8422 103.042C87.3559 103.042 85.401 102.103 83.9775 100.224C82.573 98.326 81.8708 95.8112 81.8708 92.6795C81.8708 89.5479 82.573 87.0426 83.9775 85.1636C85.401 83.2656 87.3559 82.3167 89.8422 82.3167C92.3475 82.3167 94.3024 83.2656 95.7069 85.1636C97.1114 87.0426 97.8137 89.5479 97.8137 92.6795C97.8137 95.8112 97.1114 98.326 95.7069 100.224C94.3024 102.103 92.3475 103.042 89.8422 103.042ZM86.8244 97.5478C87.5077 98.6486 88.5136 99.199 89.8422 99.199C91.1708 99.199 92.1767 98.6392 92.86 97.5194C93.5622 96.3996 93.9133 94.7863 93.9133 92.6795C93.9133 90.5538 93.5622 88.9311 92.86 87.8113C92.1767 86.6915 91.1708 86.1316 89.8422 86.1316C88.5136 86.1316 87.5077 86.6915 86.8244 87.8113C86.1412 88.9311 85.7995 90.5538 85.7995 92.6795C85.7995 94.8053 86.1412 96.428 86.8244 97.5478ZM107.775 103.042C105.288 103.042 103.333 102.103 101.91 100.224C100.505 98.326 99.8032 95.8112 99.8032 92.6795C99.8032 89.5479 100.505 87.0426 101.91 85.1636C103.333 83.2656 105.288 82.3167 107.775 82.3167C110.28 82.3167 112.235 83.2656 113.639 85.1636C115.044 87.0426 115.746 89.5479 115.746 92.6795C115.746 95.8112 115.044 98.326 113.639 100.224C112.235 102.103 110.28 103.042 107.775 103.042ZM104.757 97.5478C105.44 98.6486 106.446 99.199 107.775 99.199C109.103 99.199 110.109 98.6392 110.792 97.5194C111.495 96.3996 111.846 94.7863 111.846 92.6795C111.846 90.5538 111.495 88.9311 110.792 87.8113C110.109 86.6915 109.103 86.1316 107.775 86.1316C106.446 86.1316 105.44 86.6915 104.757 87.8113C104.074 88.9311 103.732 90.5538 103.732 92.6795C103.732 94.8053 104.074 96.428 104.757 97.5478ZM122.397 98.7151L120.261 106.63H117.272L118.411 98.7151H122.397ZM131.907 103.042C129.42 103.042 127.466 102.103 126.042 100.224C124.638 98.326 123.935 95.8112 123.935 92.6795C123.935 89.5479 124.638 87.0426 126.042 85.1636C127.466 83.2656 129.42 82.3167 131.907 82.3167C134.412 82.3167 136.367 83.2656 137.772 85.1636C139.176 87.0426 139.878 89.5479 139.878 92.6795C139.878 95.8112 139.176 98.326 137.772 100.224C136.367 102.103 134.412 103.042 131.907 103.042ZM128.889 97.5478C129.572 98.6486 130.578 99.199 131.907 99.199C133.235 99.199 134.241 98.6392 134.925 97.5194C135.627 96.3996 135.978 94.7863 135.978 92.6795C135.978 90.5538 135.627 88.9311 134.925 87.8113C134.241 86.6915 133.235 86.1316 131.907 86.1316C130.578 86.1316 129.572 86.6915 128.889 87.8113C128.206 88.9311 127.864 90.5538 127.864 92.6795C127.864 94.8053 128.206 96.428 128.889 97.5478ZM149.839 103.042C147.353 103.042 145.398 102.103 143.975 100.224C142.57 98.326 141.868 95.8112 141.868 92.6795C141.868 89.5479 142.57 87.0426 143.975 85.1636C145.398 83.2656 147.353 82.3167 149.839 82.3167C152.345 82.3167 154.299 83.2656 155.704 85.1636C157.108 87.0426 157.811 89.5479 157.811 92.6795C157.811 95.8112 157.108 98.326 155.704 100.224C154.299 102.103 152.345 103.042 149.839 103.042ZM146.821 97.5478C147.505 98.6486 148.511 99.199 149.839 99.199C151.168 99.199 152.174 98.6392 152.857 97.5194C153.559 96.3996 153.91 94.7863 153.91 92.6795C153.91 90.5538 153.559 88.9311 152.857 87.8113C152.174 86.6915 151.168 86.1316 149.839 86.1316C148.511 86.1316 147.505 86.6915 146.821 87.8113C146.138 88.9311 145.797 90.5538 145.797 92.6795C145.797 94.8053 146.138 96.428 146.821 97.5478ZM167.772 103.042C165.285 103.042 163.33 102.103 161.907 100.224C160.503 98.326 159.8 95.8112 159.8 92.6795C159.8 89.5479 160.503 87.0426 161.907 85.1636C163.33 83.2656 165.285 82.3167 167.772 82.3167C170.277 82.3167 172.232 83.2656 173.636 85.1636C175.041 87.0426 175.743 89.5479 175.743 92.6795C175.743 95.8112 175.041 98.326 173.636 100.224C172.232 102.103 170.277 103.042 167.772 103.042ZM164.754 97.5478C165.437 98.6486 166.443 99.199 167.772 99.199C169.1 99.199 170.106 98.6392 170.789 97.5194C171.492 96.3996 171.843 94.7863 171.843 92.6795C171.843 90.5538 171.492 88.9311 170.789 87.8113C170.106 86.6915 169.1 86.1316 167.772 86.1316C166.443 86.1316 165.437 86.6915 164.754 87.8113C164.071 88.9311 163.729 90.5538 163.729 92.6795C163.729 94.8053 164.071 96.428 164.754 97.5478ZM181.398 102.302C180.923 102.777 180.354 103.014 179.69 103.014C179.025 103.014 178.456 102.777 177.981 102.302C177.507 101.828 177.27 101.258 177.27 100.594C177.27 99.9298 177.507 99.3604 177.981 98.8859C178.456 98.4114 179.025 98.1742 179.69 98.1742C180.354 98.1742 180.923 98.4114 181.398 98.8859C181.872 99.3604 182.109 99.9298 182.109 100.594C182.109 101.258 181.872 101.828 181.398 102.302ZM191.598 103.042C189.112 103.042 187.157 102.103 185.734 100.224C184.329 98.326 183.627 95.8112 183.627 92.6795C183.627 89.5479 184.329 87.0426 185.734 85.1636C187.157 83.2656 189.112 82.3167 191.598 82.3167C194.104 82.3167 196.059 83.2656 197.463 85.1636C198.868 87.0426 199.57 89.5479 199.57 92.6795C199.57 95.8112 198.868 98.326 197.463 100.224C196.059 102.103 194.104 103.042 191.598 103.042ZM188.581 97.5478C189.264 98.6486 190.27 99.199 191.598 99.199C192.927 99.199 193.933 98.6392 194.616 97.5194C195.318 96.3996 195.669 94.7863 195.669 92.6795C195.669 90.5538 195.318 88.9311 194.616 87.8113C193.933 86.6915 192.927 86.1316 191.598 86.1316C190.27 86.1316 189.264 86.6915 188.581 87.8113C187.897 88.9311 187.556 90.5538 187.556 92.6795C187.556 94.8053 187.897 96.428 188.581 97.5478ZM209.531 103.042C207.044 103.042 205.09 102.103 203.666 100.224C202.262 98.326 201.559 95.8112 201.559 92.6795C201.559 89.5479 202.262 87.0426 203.666 85.1636C205.09 83.2656 207.044 82.3167 209.531 82.3167C212.036 82.3167 213.991 83.2656 215.395 85.1636C216.8 87.0426 217.502 89.5479 217.502 92.6795C217.502 95.8112 216.8 98.326 215.395 100.224C213.991 102.103 212.036 103.042 209.531 103.042ZM206.513 97.5478C207.196 98.6486 208.202 99.199 209.531 99.199C210.859 99.199 211.865 98.6392 212.549 97.5194C213.251 96.3996 213.602 94.7863 213.602 92.6795C213.602 90.5538 213.251 88.9311 212.549 87.8113C211.865 86.6915 210.859 86.1316 209.531 86.1316C208.202 86.1316 207.196 86.6915 206.513 87.8113C205.83 88.9311 205.488 90.5538 205.488 92.6795C205.488 94.8053 205.83 96.428 206.513 97.5478Z" fill="black"/>
</g>
<path d="M48.3122 127.512C47.3126 127.512 46.4838 127.184 45.8258 126.525C45.1679 125.861 44.8389 125.042 44.8389 124.068C44.8389 123.093 45.1679 122.277 45.8258 121.619C46.4838 120.955 47.3126 120.623 48.3122 120.623C48.9132 120.623 49.4668 120.765 49.9729 121.05C50.4853 121.335 50.8839 121.721 51.1686 122.208L50.2196 122.758C50.0425 122.429 49.7831 122.17 49.4415 121.98C49.1061 121.784 48.7297 121.686 48.3122 121.686C47.6036 121.686 47.0279 121.911 46.585 122.359C46.1485 122.809 45.9302 123.378 45.9302 124.068C45.9302 124.758 46.1485 125.327 46.585 125.776C47.0279 126.225 47.6036 126.45 48.3122 126.45C48.7297 126.45 49.1093 126.355 49.451 126.165C49.7926 125.969 50.0488 125.707 50.2196 125.377L51.1686 125.918C50.8902 126.405 50.4948 126.795 49.9824 127.085C49.4762 127.37 48.9195 127.512 48.3122 127.512ZM54.551 122.521C55.0951 122.521 55.5347 122.695 55.8701 123.043C56.2054 123.391 56.373 123.868 56.373 124.476V127.389H55.3481V124.58C55.3481 124.226 55.2532 123.954 55.0634 123.764C54.8736 123.574 54.6142 123.479 54.2853 123.479C53.9246 123.479 53.6336 123.593 53.4122 123.821C53.1908 124.042 53.0801 124.384 53.0801 124.846V127.389H52.0552V120.746H53.0801V123.251C53.39 122.765 53.8804 122.521 54.551 122.521ZM59.7162 127.512C59.0203 127.512 58.4288 127.272 57.9416 126.791C57.4544 126.311 57.2109 125.719 57.2109 125.017C57.2109 124.314 57.4544 123.723 57.9416 123.242C58.4288 122.761 59.0203 122.521 59.7162 122.521C60.4184 122.521 61.01 122.761 61.4908 123.242C61.978 123.723 62.2215 124.314 62.2215 125.017C62.2215 125.719 61.978 126.311 61.4908 126.791C61.01 127.272 60.4184 127.512 59.7162 127.512ZM58.6628 126.089C58.9475 126.374 59.2986 126.516 59.7162 126.516C60.1337 126.516 60.4849 126.374 60.7696 126.089C61.0543 125.804 61.1966 125.447 61.1966 125.017C61.1966 124.587 61.0543 124.229 60.7696 123.944C60.4849 123.66 60.1337 123.517 59.7162 123.517C59.2986 123.517 58.9475 123.66 58.6628 123.944C58.3781 124.229 58.2358 124.587 58.2358 125.017C58.2358 125.447 58.3781 125.804 58.6628 126.089ZM65.3881 127.512C64.692 127.512 64.1003 127.272 63.6135 126.791C63.1262 126.311 62.8828 125.719 62.8828 125.017C62.8828 124.314 63.1262 123.723 63.6135 123.242C64.1003 122.761 64.692 122.521 65.3881 122.521C66.0903 122.521 66.6815 122.761 67.1627 123.242C67.6495 123.723 67.8934 124.314 67.8934 125.017C67.8934 125.719 67.6495 126.311 67.1627 126.791C66.6815 127.272 66.0903 127.512 65.3881 127.512ZM64.3347 126.089C64.6194 126.374 64.9705 126.516 65.3881 126.516C65.8056 126.516 66.1568 126.374 66.4414 126.089C66.7261 125.804 66.8685 125.447 66.8685 125.017C66.8685 124.587 66.7261 124.229 66.4414 123.944C66.1568 123.66 65.8056 123.517 65.3881 123.517C64.9705 123.517 64.6194 123.66 64.3347 123.944C64.05 124.229 63.9077 124.587 63.9077 125.017C63.9077 125.447 64.05 125.804 64.3347 126.089ZM69.6476 123.954C69.6476 124.112 69.733 124.238 69.9038 124.333C70.0813 124.422 70.2929 124.501 70.5396 124.571C70.793 124.634 71.0459 124.71 71.2988 124.798C71.5522 124.887 71.7638 125.039 71.9346 125.254C72.1121 125.463 72.2003 125.728 72.2003 126.051C72.2003 126.506 72.0234 126.864 71.6689 127.123C71.3211 127.383 70.8813 127.512 70.3498 127.512C69.882 127.512 69.4801 127.415 69.1446 127.218C68.8096 127.022 68.5657 126.75 68.4139 126.402L69.2965 125.89C69.4611 126.345 69.8122 126.573 70.3498 126.573C70.8879 126.573 71.1565 126.396 71.1565 126.042C71.1565 125.89 71.0682 125.766 70.8908 125.671C70.7199 125.576 70.5083 125.498 70.2549 125.434C70.0082 125.365 69.7586 125.286 69.5052 125.197C69.2523 125.109 69.0374 124.963 68.8599 124.76C68.6891 124.552 68.6037 124.289 68.6037 123.973C68.6037 123.536 68.7684 123.185 69.0972 122.919C69.4326 122.654 69.8469 122.521 70.3403 122.521C70.7327 122.521 71.0805 122.61 71.3842 122.786C71.6945 122.957 71.9318 123.198 72.096 123.508L71.2324 123.992C71.0682 123.631 70.7707 123.451 70.3403 123.451C70.1444 123.451 69.9797 123.495 69.8469 123.584C69.714 123.666 69.6476 123.79 69.6476 123.954ZM73.7875 125.453C73.8634 125.814 74.0376 126.092 74.3095 126.288C74.5818 126.478 74.914 126.573 75.3059 126.573C75.8501 126.573 76.2582 126.377 76.5301 125.985L77.3747 126.478C76.9068 127.168 76.2141 127.512 75.2964 127.512C74.5249 127.512 73.9014 127.278 73.4269 126.81C72.9524 126.336 72.7152 125.738 72.7152 125.017C72.7152 124.308 72.9496 123.716 73.4174 123.242C73.8857 122.761 74.4869 122.521 75.2205 122.521C75.9166 122.521 76.486 122.765 76.9286 123.251C77.378 123.739 77.6024 124.33 77.6024 125.026C77.6024 125.134 77.5901 125.276 77.5645 125.453H73.7875ZM73.778 124.618H76.568C76.4988 124.232 76.3374 123.941 76.0841 123.745C75.8373 123.549 75.5465 123.451 75.211 123.451C74.8314 123.451 74.5154 123.555 74.262 123.764C74.0091 123.973 73.8478 124.257 73.778 124.618ZM85.2707 127.389L84.8057 126.051H81.9777L81.5127 127.389H80.3265L82.7369 120.746H84.0465L86.4474 127.389H85.2707ZM82.3383 125.026H84.4451L83.3917 122.027L82.3383 125.026ZM89.2142 127.512C88.4996 127.512 87.9017 127.272 87.4206 126.791C86.9461 126.311 86.7089 125.719 86.7089 125.017C86.7089 124.308 86.9461 123.716 87.4206 123.242C87.9017 122.761 88.4996 122.521 89.2142 122.521C89.6763 122.521 90.0967 122.632 90.4763 122.853C90.8559 123.075 91.1406 123.372 91.3304 123.745L90.4479 124.257C90.3406 124.03 90.176 123.853 89.9544 123.726C89.7394 123.593 89.4894 123.527 89.2047 123.527C88.7871 123.527 88.436 123.669 88.1513 123.954C87.8733 124.238 87.7338 124.593 87.7338 125.017C87.7338 125.441 87.8733 125.795 88.1513 126.079C88.436 126.364 88.7871 126.506 89.2047 126.506C89.4832 126.506 89.7333 126.44 89.9544 126.307C90.1822 126.174 90.353 125.997 90.4668 125.776L91.3494 126.279C91.1473 126.658 90.8559 126.959 90.4763 127.18C90.0967 127.402 89.6763 127.512 89.2142 127.512ZM94.2557 127.512C93.5411 127.512 92.9432 127.272 92.4621 126.791C91.9876 126.311 91.7503 125.719 91.7503 125.017C91.7503 124.308 91.9876 123.716 92.4621 123.242C92.9432 122.761 93.5411 122.521 94.2557 122.521C94.7178 122.521 95.1382 122.632 95.5178 122.853C95.8974 123.075 96.1821 123.372 96.3719 123.745L95.4893 124.257C95.3821 124.03 95.2175 123.853 94.9959 123.726C94.7809 123.593 94.5309 123.527 94.2462 123.527C93.8286 123.527 93.4775 123.669 93.1928 123.954C92.9147 124.238 92.7752 124.593 92.7752 125.017C92.7752 125.441 92.9147 125.795 93.1928 126.079C93.4775 126.364 93.8286 126.506 94.2462 126.506C94.5247 126.506 94.7748 126.44 94.9959 126.307C95.2236 126.174 95.3944 125.997 95.5083 125.776L96.3909 126.279C96.1887 126.658 95.8974 126.959 95.5178 127.18C95.1382 127.402 94.7178 127.512 94.2557 127.512ZM99.2971 127.512C98.6015 127.512 98.0098 127.272 97.5225 126.791C97.0357 126.311 96.7918 125.719 96.7918 125.017C96.7918 124.314 97.0357 123.723 97.5225 123.242C98.0098 122.761 98.6015 122.521 99.2971 122.521C99.9994 122.521 100.591 122.761 101.072 123.242C101.559 123.723 101.802 124.314 101.802 125.017C101.802 125.719 101.559 126.311 101.072 126.791C100.591 127.272 99.9994 127.512 99.2971 127.512ZM98.2438 126.089C98.5284 126.374 98.8796 126.516 99.2971 126.516C99.7147 126.516 100.066 126.374 100.35 126.089C100.635 125.804 100.778 125.447 100.778 125.017C100.778 124.587 100.635 124.229 100.35 123.944C100.066 123.66 99.7147 123.517 99.2971 123.517C98.8796 123.517 98.5284 123.66 98.2438 123.944C97.9591 124.229 97.8167 124.587 97.8167 125.017C97.8167 125.447 97.9591 125.804 98.2438 126.089ZM105.927 122.644H106.952V127.389H105.927V126.782C105.617 127.269 105.127 127.512 104.456 127.512C103.913 127.512 103.473 127.339 103.137 126.99C102.802 126.643 102.634 126.165 102.634 125.558V122.644H103.659V125.453C103.659 125.808 103.754 126.079 103.944 126.269C104.134 126.459 104.393 126.554 104.722 126.554C105.083 126.554 105.374 126.443 105.595 126.222C105.817 125.994 105.927 125.65 105.927 125.187V122.644ZM110.646 122.521C111.191 122.521 111.631 122.695 111.966 123.043C112.301 123.391 112.469 123.868 112.469 124.476V127.389H111.444V124.58C111.444 124.226 111.349 123.954 111.159 123.764C110.969 123.574 110.71 123.479 110.381 123.479C110.02 123.479 109.729 123.593 109.508 123.821C109.287 124.042 109.176 124.384 109.176 124.846V127.389H108.151V122.644H109.176V123.251C109.486 122.765 109.976 122.521 110.646 122.521ZM116.22 123.631H115.043V125.909C115.043 126.105 115.087 126.247 115.176 126.336C115.265 126.418 115.394 126.466 115.565 126.478C115.742 126.485 115.96 126.481 116.22 126.469V127.389C115.436 127.484 114.872 127.418 114.531 127.19C114.189 126.956 114.018 126.529 114.018 125.909V123.631H113.145V122.644H114.018V121.619L115.043 121.316V122.644H116.22V123.631Z" fill="#666972"/>
<g filter="url(#filter3_d_779_17463)">
<path d="M255.415 215.926C255.415 211.064 251.474 207.124 246.613 207.124C241.751 207.124 237.811 211.064 237.811 215.926C237.811 220.787 241.751 224.728 246.613 224.728C251.474 224.728 255.415 220.787 255.415 215.926Z" fill="#717479"/>
</g>
<path d="M89.7266 210.991C88.7767 210.991 87.9895 210.679 87.3646 210.054C86.7392 209.423 86.427 208.645 86.427 207.719C86.427 206.794 86.7392 206.018 87.3646 205.393C87.9895 204.762 88.7767 204.446 89.7266 204.446C90.2974 204.446 90.8231 204.581 91.3043 204.852C91.7911 205.122 92.1697 205.489 92.4402 205.952L91.5387 206.475C91.3702 206.162 91.124 205.916 90.7994 205.735C90.4805 205.549 90.1233 205.456 89.7266 205.456C89.0533 205.456 88.5062 205.669 88.0858 206.096C87.6711 206.523 87.4637 207.064 87.4637 207.719C87.4637 208.374 87.6711 208.915 88.0858 209.342C88.5062 209.769 89.0533 209.982 89.7266 209.982C90.1233 209.982 90.4839 209.891 90.8084 209.711C91.133 209.525 91.3764 209.276 91.5387 208.963L92.4402 209.477C92.1754 209.94 91.8001 210.31 91.3133 210.586C90.8322 210.856 90.3036 210.991 89.7266 210.991ZM96.6058 206.366H97.5794V210.874H96.6058V210.225C96.2395 210.736 95.7132 210.991 95.0281 210.991C94.4093 210.991 93.8803 210.763 93.4414 210.306C93.0029 209.844 92.7833 209.282 92.7833 208.62C92.7833 207.953 93.0029 207.391 93.4414 206.934C93.8803 206.478 94.4093 206.249 95.0281 206.249C95.7132 206.249 96.2395 206.502 96.6058 207.007V206.366ZM94.1626 209.657C94.4331 209.928 94.7728 210.063 95.1813 210.063C95.5903 210.063 95.9296 209.928 96.2001 209.657C96.4705 209.381 96.6058 209.035 96.6058 208.62C96.6058 208.206 96.4705 207.863 96.2001 207.593C95.9296 207.316 95.5903 207.178 95.1813 207.178C94.7728 207.178 94.4331 207.316 94.1626 207.593C93.8921 207.863 93.7569 208.206 93.7569 208.62C93.7569 209.035 93.8921 209.381 94.1626 209.657ZM99.4945 207.124C99.7412 206.565 100.204 206.285 100.883 206.285V207.34C100.51 207.316 100.186 207.407 99.9092 207.611C99.633 207.809 99.4945 208.14 99.4945 208.602V210.874H98.5208V206.366H99.4945V207.124ZM104.767 204.563H105.741V210.874H104.767V210.225C104.401 210.736 103.875 210.991 103.19 210.991C102.571 210.991 102.042 210.763 101.603 210.306C101.164 209.844 100.945 209.282 100.945 208.62C100.945 207.953 101.164 207.391 101.603 206.934C102.042 206.478 102.571 206.249 103.19 206.249C103.875 206.249 104.401 206.502 104.767 207.007V204.563ZM102.324 209.657C102.595 209.928 102.935 210.063 103.343 210.063C103.752 210.063 104.091 209.928 104.362 209.657C104.632 209.381 104.767 209.035 104.767 208.62C104.767 208.206 104.632 207.863 104.362 207.593C104.091 207.316 103.752 207.178 103.343 207.178C102.935 207.178 102.595 207.316 102.324 207.593C102.054 207.863 101.919 208.206 101.919 208.62C101.919 209.035 102.054 209.381 102.324 209.657ZM112.547 204.563H113.584V210.874H112.547V208.143H109.843V210.874H108.806V204.563H109.843V207.151H112.547V204.563ZM116.716 210.991C116.055 210.991 115.493 210.763 115.03 210.306C114.568 209.85 114.336 209.287 114.336 208.62C114.336 207.953 114.568 207.391 115.03 206.934C115.493 206.478 116.055 206.249 116.716 206.249C117.383 206.249 117.946 206.478 118.402 206.934C118.865 207.391 119.096 207.953 119.096 208.62C119.096 209.287 118.865 209.85 118.402 210.306C117.946 210.763 117.383 210.991 116.716 210.991ZM115.715 209.639C115.986 209.91 116.319 210.045 116.716 210.045C117.113 210.045 117.446 209.91 117.717 209.639C117.987 209.369 118.123 209.029 118.123 208.62C118.123 208.212 117.987 207.872 117.717 207.602C117.446 207.331 117.113 207.196 116.716 207.196C116.319 207.196 115.986 207.331 115.715 207.602C115.445 207.872 115.31 208.212 115.31 208.62C115.31 209.029 115.445 209.369 115.715 209.639ZM119.783 210.874V204.293H120.757V210.874H119.783ZM125.264 204.563H126.237V210.874H125.264V210.225C124.897 210.736 124.371 210.991 123.686 210.991C123.067 210.991 122.538 210.763 122.099 210.306C121.661 209.844 121.441 209.282 121.441 208.62C121.441 207.953 121.661 207.391 122.099 206.934C122.538 206.478 123.067 206.249 123.686 206.249C124.371 206.249 124.897 206.502 125.264 207.007V204.563ZM122.82 209.657C123.091 209.928 123.431 210.063 123.839 210.063C124.248 210.063 124.587 209.928 124.858 209.657C125.128 209.381 125.264 209.035 125.264 208.62C125.264 208.206 125.128 207.863 124.858 207.593C124.587 207.316 124.248 207.178 123.839 207.178C123.431 207.178 123.091 207.316 122.82 207.593C122.55 207.863 122.415 208.206 122.415 208.62C122.415 209.035 122.55 209.381 122.82 209.657ZM127.945 209.035C128.017 209.378 128.183 209.642 128.441 209.828C128.699 210.009 129.015 210.099 129.387 210.099C129.905 210.099 130.292 209.913 130.55 209.54L131.353 210.009C130.908 210.664 130.25 210.991 129.378 210.991C128.645 210.991 128.053 210.769 127.602 210.324C127.152 209.873 126.926 209.305 126.926 208.62C126.926 207.947 127.149 207.385 127.593 206.934C128.038 206.478 128.609 206.249 129.306 206.249C129.968 206.249 130.509 206.481 130.929 206.943C131.356 207.407 131.569 207.968 131.569 208.629C131.569 208.732 131.557 208.867 131.533 209.035H127.945ZM127.936 208.242H130.586C130.521 207.875 130.367 207.599 130.127 207.412C129.892 207.226 129.616 207.133 129.297 207.133C128.937 207.133 128.636 207.232 128.396 207.43C128.156 207.629 128.002 207.899 127.936 208.242ZM133.206 207.124C133.452 206.565 133.915 206.285 134.594 206.285V207.34C134.222 207.316 133.897 207.407 133.621 207.611C133.344 207.809 133.206 208.14 133.206 208.602V210.874H132.232V206.366H133.206V207.124Z" fill="white"/>
<path d="M87.7438 224.547C87.4145 224.547 87.1299 224.43 86.8898 224.196C86.6554 223.956 86.5386 223.671 86.5386 223.342C86.5386 223.02 86.6554 222.744 86.8898 222.517C87.1237 222.289 87.4084 222.175 87.7438 222.175C88.0665 222.175 88.3417 222.289 88.5695 222.517C88.7972 222.744 88.9111 223.02 88.9111 223.342C88.9111 223.678 88.7972 223.962 88.5695 224.196C88.3417 224.43 88.0665 224.547 87.7438 224.547ZM92.2026 224.547C91.8733 224.547 91.5886 224.43 91.3486 224.196C91.1142 223.956 90.9974 223.671 90.9974 223.342C90.9974 223.02 91.1142 222.744 91.3486 222.517C91.5825 222.289 91.8672 222.175 92.2026 222.175C92.5253 222.175 92.8005 222.289 93.0283 222.517C93.256 222.744 93.3699 223.02 93.3699 223.342C93.3699 223.678 93.256 223.962 93.0283 224.196C92.8005 224.43 92.5253 224.547 92.2026 224.547ZM96.6614 224.547C96.3321 224.547 96.0474 224.43 95.8073 224.196C95.5729 223.956 95.4562 223.671 95.4562 223.342C95.4562 223.02 95.5729 222.744 95.8073 222.517C96.0413 222.289 96.326 222.175 96.6614 222.175C96.9841 222.175 97.2593 222.289 97.4871 222.517C97.7148 222.744 97.8287 223.02 97.8287 223.342C97.8287 223.678 97.7148 223.962 97.4871 224.196C97.2593 224.43 96.9841 224.547 96.6614 224.547ZM101.12 224.547C100.791 224.547 100.506 224.43 100.266 224.196C100.032 223.956 99.9145 223.671 99.9145 223.342C99.9145 223.02 100.032 222.744 100.266 222.517C100.5 222.289 100.785 222.175 101.12 222.175C101.442 222.175 101.718 222.289 101.945 222.517C102.173 222.744 102.287 223.02 102.287 223.342C102.287 223.678 102.173 223.962 101.945 224.196C101.718 224.43 101.442 224.547 101.12 224.547ZM112.791 224.547C112.462 224.547 112.177 224.43 111.937 224.196C111.703 223.956 111.586 223.671 111.586 223.342C111.586 223.02 111.703 222.744 111.937 222.517C112.171 222.289 112.456 222.175 112.791 222.175C113.113 222.175 113.389 222.289 113.616 222.517C113.844 222.744 113.958 223.02 113.958 223.342C113.958 223.678 113.844 223.962 113.616 224.196C113.389 224.43 113.113 224.547 112.791 224.547ZM117.25 224.547C116.921 224.547 116.636 224.43 116.396 224.196C116.162 223.956 116.044 223.671 116.044 223.342C116.044 223.02 116.162 222.744 116.396 222.517C116.63 222.289 116.915 222.175 117.25 222.175C117.572 222.175 117.847 222.289 118.075 222.517C118.303 222.744 118.417 223.02 118.417 223.342C118.417 223.678 118.303 223.962 118.075 224.196C117.847 224.43 117.572 224.547 117.25 224.547ZM121.708 224.547C121.38 224.547 121.095 224.43 120.854 224.196C120.62 223.956 120.503 223.671 120.503 223.342C120.503 223.02 120.62 222.744 120.854 222.517C121.088 222.289 121.373 222.175 121.708 222.175C122.031 222.175 122.306 222.289 122.534 222.517C122.762 222.744 122.876 223.02 122.876 223.342C122.876 223.678 122.762 223.962 122.534 224.196C122.306 224.43 122.031 224.547 121.708 224.547ZM126.167 224.547C125.838 224.547 125.554 224.43 125.313 224.196C125.079 223.956 124.962 223.671 124.962 223.342C124.962 223.02 125.079 222.744 125.313 222.517C125.547 222.289 125.832 222.175 126.167 222.175C126.49 222.175 126.765 222.289 126.993 222.517C127.221 222.744 127.334 223.02 127.334 223.342C127.334 223.678 127.221 223.962 126.993 224.196C126.765 224.43 126.49 224.547 126.167 224.547ZM137.838 224.547C137.509 224.547 137.224 224.43 136.984 224.196C136.75 223.956 136.633 223.671 136.633 223.342C136.633 223.02 136.75 222.744 136.984 222.517C137.218 222.289 137.503 222.175 137.838 222.175C138.161 222.175 138.436 222.289 138.664 222.517C138.892 222.744 139.006 223.02 139.006 223.342C139.006 223.678 138.892 223.962 138.664 224.196C138.436 224.43 138.161 224.547 137.838 224.547ZM142.297 224.547C141.968 224.547 141.683 224.43 141.443 224.196C141.209 223.956 141.092 223.671 141.092 223.342C141.092 223.02 141.209 222.744 141.443 222.517C141.677 222.289 141.962 222.175 142.297 222.175C142.62 222.175 142.895 222.289 143.123 222.517C143.35 222.744 143.464 223.02 143.464 223.342C143.464 223.678 143.35 223.962 143.123 224.196C142.895 224.43 142.62 224.547 142.297 224.547ZM146.756 224.547C146.427 224.547 146.142 224.43 145.902 224.196C145.667 223.956 145.551 223.671 145.551 223.342C145.551 223.02 145.667 222.744 145.902 222.517C146.136 222.289 146.42 222.175 146.756 222.175C147.079 222.175 147.354 222.289 147.581 222.517C147.809 222.744 147.923 223.02 147.923 223.342C147.923 223.678 147.809 223.962 147.581 224.196C147.354 224.43 147.079 224.547 146.756 224.547ZM151.214 224.547C150.885 224.547 150.601 224.43 150.36 224.196C150.126 223.956 150.009 223.671 150.009 223.342C150.009 223.02 150.126 222.744 150.36 222.517C150.594 222.289 150.879 222.175 151.214 222.175C151.537 222.175 151.812 222.289 152.04 222.517C152.268 222.744 152.381 223.02 152.381 223.342C152.381 223.678 152.268 223.962 152.04 224.196C151.812 224.43 151.537 224.547 151.214 224.547ZM163.844 222.27C164.534 222.27 165.096 222.482 165.533 222.906C165.969 223.323 166.188 223.868 166.188 224.538C166.188 225.208 165.969 225.756 165.533 226.18C165.096 226.597 164.534 226.806 163.844 226.806C163.148 226.806 162.582 226.597 162.145 226.18C161.709 225.756 161.49 225.208 161.49 224.538C161.49 224.032 161.623 223.586 161.889 223.2L163.996 220.04H165.239L163.72 222.27H163.844ZM163.844 225.772C164.211 225.772 164.511 225.661 164.745 225.44C164.98 225.212 165.096 224.911 165.096 224.538C165.096 224.165 164.98 223.868 164.745 223.646C164.511 223.418 164.211 223.304 163.844 223.304C163.471 223.304 163.167 223.418 162.933 223.646C162.699 223.868 162.582 224.165 162.582 224.538C162.582 224.911 162.699 225.212 162.933 225.44C163.167 225.661 163.471 225.772 163.844 225.772ZM170.082 222.545C170.715 222.545 171.25 222.735 171.686 223.115C172.123 223.488 172.341 224.007 172.341 224.671C172.341 225.335 172.116 225.857 171.667 226.237C171.218 226.616 170.667 226.806 170.016 226.806C169.491 226.806 169.026 226.686 168.621 226.445C168.216 226.199 167.928 225.844 167.757 225.383L168.697 224.842C168.874 225.443 169.314 225.743 170.016 225.743C170.389 225.743 170.686 225.648 170.908 225.458C171.136 225.263 171.25 225 171.25 224.671C171.25 224.342 171.139 224.082 170.917 223.893C170.696 223.703 170.402 223.608 170.035 223.608H168.099L168.355 220.04H172.056V221.065H169.361L169.247 222.545H170.082ZM179.221 224.472V225.487H178.461V226.683H177.361V225.487H174.096V224.472L176.383 220.04H177.569L175.282 224.472H177.361V222.744H178.461V224.472H179.221ZM183.346 222.27C184.035 222.27 184.598 222.482 185.035 222.906C185.472 223.323 185.69 223.868 185.69 224.538C185.69 225.208 185.472 225.756 185.035 226.18C184.598 226.597 184.035 226.806 183.346 226.806C182.65 226.806 182.084 226.597 181.647 226.18C181.211 225.756 180.992 225.208 180.992 224.538C180.992 224.032 181.125 223.586 181.391 223.2L183.498 220.04H184.741L183.222 222.27H183.346ZM183.346 225.772C183.713 225.772 184.013 225.661 184.247 225.44C184.481 225.212 184.598 224.911 184.598 224.538C184.598 224.165 184.481 223.868 184.247 223.646C184.013 223.418 183.713 223.304 183.346 223.304C182.972 223.304 182.669 223.418 182.435 223.646C182.201 223.868 182.084 224.165 182.084 224.538C182.084 224.911 182.201 225.212 182.435 225.44C182.669 225.661 182.972 225.772 183.346 225.772Z" fill="white"/>
<g filter="url(#filter4_d_779_17463)">
<path d="M68.7645 200.227H54.4484C49.7315 200.227 45.9076 204.051 45.9076 208.768V223.084C45.9076 227.801 49.7315 231.625 54.4484 231.625H68.7645C73.4814 231.625 77.3053 227.801 77.3053 223.084V208.768C77.3053 204.051 73.4814 200.227 68.7645 200.227Z" fill="url(#paint0_linear_779_17463)"/>
</g>
<g filter="url(#filter5_dii_779_17463)">
<path d="M58.2897 222.048C61.671 222.048 64.412 219.307 64.412 215.926C64.412 212.545 61.671 209.804 58.2897 209.804C54.9085 209.804 52.1674 212.545 52.1674 215.926C52.1674 219.307 54.9085 222.048 58.2897 222.048Z" fill="#EE0000"/>
</g>
<g filter="url(#filter6_dii_779_17463)">
<path d="M64.9232 222.048C68.3044 222.048 71.0455 219.307 71.0455 215.926C71.0455 212.545 68.3044 209.804 64.9232 209.804C61.542 209.804 58.8009 212.545 58.8009 215.926C58.8009 219.307 61.542 222.048 64.9232 222.048Z" fill="#EE6400"/>
</g>
<g opacity="0.4" filter="url(#filter7_f_779_17463)">
<path opacity="0.4" d="M242.224 147.082H42.546C37.0428 147.082 32.5816 151.543 32.5816 157.046V184.022C32.5816 189.526 37.0428 193.987 42.546 193.987H242.224C247.727 193.987 252.188 189.526 252.188 184.022V157.046C252.188 151.543 247.727 147.082 242.224 147.082Z" fill="#141414"/>
</g>
<path d="M260.791 137.422H48.1183C42.6152 137.422 38.154 141.884 38.154 147.387V174.363C38.154 179.866 42.6152 184.327 48.1183 184.327H260.791C266.294 184.327 270.755 179.866 270.755 174.363V147.387C270.755 141.884 266.294 137.422 260.791 137.422Z" fill="url(#paint1_linear_779_17463)"/>
<path d="M87.7438 169.497C87.4145 169.497 87.1299 169.379 86.8898 169.145C86.6554 168.905 86.5386 168.62 86.5386 168.291C86.5386 167.969 86.6554 167.693 86.8898 167.466C87.1237 167.238 87.4084 167.124 87.7438 167.124C88.0665 167.124 88.3417 167.238 88.5695 167.466C88.7972 167.693 88.9111 167.969 88.9111 168.291C88.9111 168.626 88.7972 168.911 88.5695 169.145C88.3417 169.379 88.0665 169.497 87.7438 169.497ZM92.2026 169.497C91.8733 169.497 91.5886 169.379 91.3486 169.145C91.1142 168.905 90.9974 168.62 90.9974 168.291C90.9974 167.969 91.1142 167.693 91.3486 167.466C91.5825 167.238 91.8672 167.124 92.2026 167.124C92.5253 167.124 92.8005 167.238 93.0283 167.466C93.256 167.693 93.3699 167.969 93.3699 168.291C93.3699 168.626 93.256 168.911 93.0283 169.145C92.8005 169.379 92.5253 169.497 92.2026 169.497ZM96.6614 169.497C96.3321 169.497 96.0474 169.379 95.8073 169.145C95.5729 168.905 95.4562 168.62 95.4562 168.291C95.4562 167.969 95.5729 167.693 95.8073 167.466C96.0413 167.238 96.326 167.124 96.6614 167.124C96.9841 167.124 97.2593 167.238 97.4871 167.466C97.7148 167.693 97.8287 167.969 97.8287 168.291C97.8287 168.626 97.7148 168.911 97.4871 169.145C97.2593 169.379 96.9841 169.497 96.6614 169.497ZM101.12 169.497C100.791 169.497 100.506 169.379 100.266 169.145C100.032 168.905 99.9145 168.62 99.9145 168.291C99.9145 167.969 100.032 167.693 100.266 167.466C100.5 167.238 100.785 167.124 101.12 167.124C101.442 167.124 101.718 167.238 101.945 167.466C102.173 167.693 102.287 167.969 102.287 168.291C102.287 168.626 102.173 168.911 101.945 169.145C101.718 169.379 101.442 169.497 101.12 169.497ZM112.791 169.497C112.462 169.497 112.177 169.379 111.937 169.145C111.703 168.905 111.586 168.62 111.586 168.291C111.586 167.969 111.703 167.693 111.937 167.466C112.171 167.238 112.456 167.124 112.791 167.124C113.113 167.124 113.389 167.238 113.616 167.466C113.844 167.693 113.958 167.969 113.958 168.291C113.958 168.626 113.844 168.911 113.616 169.145C113.389 169.379 113.113 169.497 112.791 169.497ZM117.25 169.497C116.921 169.497 116.636 169.379 116.396 169.145C116.162 168.905 116.044 168.62 116.044 168.291C116.044 167.969 116.162 167.693 116.396 167.466C116.63 167.238 116.915 167.124 117.25 167.124C117.572 167.124 117.847 167.238 118.075 167.466C118.303 167.693 118.417 167.969 118.417 168.291C118.417 168.626 118.303 168.911 118.075 169.145C117.847 169.379 117.572 169.497 117.25 169.497ZM121.708 169.497C121.38 169.497 121.095 169.379 120.854 169.145C120.62 168.905 120.503 168.62 120.503 168.291C120.503 167.969 120.62 167.693 120.854 167.466C121.088 167.238 121.373 167.124 121.708 167.124C122.031 167.124 122.306 167.238 122.534 167.466C122.762 167.693 122.876 167.969 122.876 168.291C122.876 168.626 122.762 168.911 122.534 169.145C122.306 169.379 122.031 169.497 121.708 169.497ZM126.167 169.497C125.838 169.497 125.554 169.379 125.313 169.145C125.079 168.905 124.962 168.62 124.962 168.291C124.962 167.969 125.079 167.693 125.313 167.466C125.547 167.238 125.832 167.124 126.167 167.124C126.49 167.124 126.765 167.238 126.993 167.466C127.221 167.693 127.334 167.969 127.334 168.291C127.334 168.626 127.221 168.911 126.993 169.145C126.765 169.379 126.49 169.497 126.167 169.497ZM137.838 169.497C137.509 169.497 137.224 169.379 136.984 169.145C136.75 168.905 136.633 168.62 136.633 168.291C136.633 167.969 136.75 167.693 136.984 167.466C137.218 167.238 137.503 167.124 137.838 167.124C138.161 167.124 138.436 167.238 138.664 167.466C138.892 167.693 139.006 167.969 139.006 168.291C139.006 168.626 138.892 168.911 138.664 169.145C138.436 169.379 138.161 169.497 137.838 169.497ZM142.297 169.497C141.968 169.497 141.683 169.379 141.443 169.145C141.209 168.905 141.092 168.62 141.092 168.291C141.092 167.969 141.209 167.693 141.443 167.466C141.677 167.238 141.962 167.124 142.297 167.124C142.62 167.124 142.895 167.238 143.123 167.466C143.35 167.693 143.464 167.969 143.464 168.291C143.464 168.626 143.35 168.911 143.123 169.145C142.895 169.379 142.62 169.497 142.297 169.497ZM146.756 169.497C146.427 169.497 146.142 169.379 145.902 169.145C145.667 168.905 145.551 168.62 145.551 168.291C145.551 167.969 145.667 167.693 145.902 167.466C146.136 167.238 146.42 167.124 146.756 167.124C147.079 167.124 147.354 167.238 147.581 167.466C147.809 167.693 147.923 167.969 147.923 168.291C147.923 168.626 147.809 168.911 147.581 169.145C147.354 169.379 147.079 169.497 146.756 169.497ZM151.214 169.497C150.885 169.497 150.601 169.379 150.36 169.145C150.126 168.905 150.009 168.62 150.009 168.291C150.009 167.969 150.126 167.693 150.36 167.466C150.594 167.238 150.879 167.124 151.214 167.124C151.537 167.124 151.812 167.238 152.04 167.466C152.268 167.693 152.381 167.969 152.381 168.291C152.381 168.626 152.268 168.911 152.04 169.145C151.812 169.379 151.537 169.497 151.214 169.497ZM163.863 167.494C164.496 167.494 165.03 167.684 165.466 168.064C165.903 168.436 166.121 168.956 166.121 169.62C166.121 170.284 165.897 170.806 165.447 171.186C164.999 171.565 164.448 171.755 163.796 171.755C163.271 171.755 162.806 171.635 162.401 171.394C161.997 171.148 161.709 170.793 161.538 170.332L162.477 169.791C162.655 170.391 163.094 170.692 163.796 170.692C164.17 170.692 164.467 170.597 164.688 170.408C164.916 170.211 165.03 169.949 165.03 169.62C165.03 169.291 164.919 169.032 164.698 168.842C164.477 168.652 164.183 168.557 163.815 168.557H161.879L162.136 164.989H165.837V166.014H163.141L163.028 167.494H163.863ZM173.001 169.421V170.436H172.242V171.632H171.141V170.436H167.876V169.421L170.163 164.989H171.35L169.063 169.421H171.141V167.693H172.242V169.421H173.001ZM177.566 167.703C178.047 167.817 178.436 168.041 178.733 168.377C179.037 168.706 179.189 169.12 179.189 169.62C179.189 170.284 178.964 170.806 178.515 171.186C178.066 171.565 177.516 171.755 176.864 171.755C176.358 171.755 175.902 171.638 175.497 171.404C175.099 171.17 174.811 170.828 174.634 170.379L175.564 169.838C175.76 170.408 176.193 170.692 176.864 170.692C177.243 170.692 177.544 170.597 177.765 170.408C177.987 170.211 178.097 169.949 178.097 169.62C178.097 169.291 177.987 169.032 177.765 168.842C177.544 168.652 177.243 168.557 176.864 168.557H176.617L176.18 167.902L177.613 166.014H174.833V164.989H178.914V165.919L177.566 167.703ZM180.957 171.632V170.778L183.272 168.415C183.835 167.851 184.117 167.364 184.117 166.953C184.117 166.631 184.019 166.381 183.823 166.204C183.633 166.02 183.389 165.928 183.092 165.928C182.535 165.928 182.124 166.204 181.858 166.754L180.938 166.213C181.147 165.77 181.441 165.435 181.82 165.207C182.2 164.979 182.62 164.865 183.082 164.865C183.664 164.865 184.164 165.049 184.582 165.416C184.999 165.783 185.208 166.282 185.208 166.915C185.208 167.592 184.831 168.313 184.079 169.079L182.579 170.578H185.332V171.632H180.957Z" fill="white"/>
<path d="M89.7266 155.941C88.7767 155.941 87.9895 155.628 87.3646 155.003C86.7392 154.372 86.427 153.593 86.427 152.668C86.427 151.742 86.7392 150.967 87.3646 150.342C87.9895 149.711 88.7767 149.395 89.7266 149.395C90.2974 149.395 90.8231 149.531 91.3043 149.801C91.7911 150.072 92.1697 150.438 92.4402 150.901L91.5387 151.424C91.3702 151.111 91.124 150.865 90.7994 150.685C90.4805 150.498 90.1233 150.405 89.7266 150.405C89.0533 150.405 88.5062 150.618 88.0858 151.045C87.6711 151.472 87.4637 152.013 87.4637 152.668C87.4637 153.323 87.6711 153.864 88.0858 154.291C88.5062 154.717 89.0533 154.931 89.7266 154.931C90.1233 154.931 90.4839 154.841 90.8084 154.66C91.133 154.474 91.3764 154.224 91.5387 153.912L92.4402 154.426C92.1754 154.889 91.8001 155.258 91.3133 155.535C90.8322 155.805 90.3036 155.941 89.7266 155.941ZM96.6058 151.316H97.5794V155.823H96.6058V155.174C96.2395 155.685 95.7132 155.941 95.0281 155.941C94.4093 155.941 93.8803 155.712 93.4414 155.255C93.0029 154.792 92.7833 154.231 92.7833 153.57C92.7833 152.902 93.0029 152.34 93.4414 151.884C93.8803 151.427 94.4093 151.199 95.0281 151.199C95.7132 151.199 96.2395 151.451 96.6058 151.956V151.316ZM94.1626 154.606C94.4331 154.877 94.7728 155.012 95.1813 155.012C95.5903 155.012 95.9296 154.877 96.2001 154.606C96.4705 154.33 96.6058 153.984 96.6058 153.57C96.6058 153.155 96.4705 152.812 96.2001 152.542C95.9296 152.265 95.5903 152.127 95.1813 152.127C94.7728 152.127 94.4331 152.265 94.1626 152.542C93.8921 152.812 93.7569 153.155 93.7569 153.57C93.7569 153.984 93.8921 154.33 94.1626 154.606ZM99.4945 152.073C99.7412 151.514 100.204 151.235 100.883 151.235V152.289C100.51 152.265 100.186 152.355 99.9092 152.56C99.633 152.758 99.4945 153.088 99.4945 153.552V155.823H98.5208V151.316H99.4945V152.073ZM104.767 149.513H105.741V155.823H104.767V155.174C104.401 155.685 103.875 155.941 103.19 155.941C102.571 155.941 102.042 155.712 101.603 155.255C101.164 154.792 100.945 154.231 100.945 153.57C100.945 152.902 101.164 152.34 101.603 151.884C102.042 151.427 102.571 151.199 103.19 151.199C103.875 151.199 104.401 151.451 104.767 151.956V149.513ZM102.324 154.606C102.595 154.877 102.935 155.012 103.343 155.012C103.752 155.012 104.091 154.877 104.362 154.606C104.632 154.33 104.767 153.984 104.767 153.57C104.767 153.155 104.632 152.812 104.362 152.542C104.091 152.265 103.752 152.127 103.343 152.127C102.935 152.127 102.595 152.265 102.324 152.542C102.054 152.812 101.919 153.155 101.919 153.57C101.919 153.984 102.054 154.33 102.324 154.606ZM112.547 149.513H113.584V155.823H112.547V153.092H109.843V155.823H108.806V149.513H109.843V152.1H112.547V149.513ZM116.716 155.941C116.055 155.941 115.493 155.712 115.03 155.255C114.568 154.798 114.336 154.237 114.336 153.57C114.336 152.902 114.568 152.34 115.03 151.884C115.493 151.427 116.055 151.199 116.716 151.199C117.383 151.199 117.946 151.427 118.402 151.884C118.865 152.34 119.096 152.902 119.096 153.57C119.096 154.237 118.865 154.798 118.402 155.255C117.946 155.712 117.383 155.941 116.716 155.941ZM115.715 154.588C115.986 154.859 116.319 154.994 116.716 154.994C117.113 154.994 117.446 154.859 117.717 154.588C117.987 154.318 118.123 153.978 118.123 153.57C118.123 153.161 117.987 152.821 117.717 152.551C117.446 152.28 117.113 152.145 116.716 152.145C116.319 152.145 115.986 152.28 115.715 152.551C115.445 152.821 115.31 153.161 115.31 153.57C115.31 153.978 115.445 154.318 115.715 154.588ZM119.783 155.823V149.242H120.757V155.823H119.783ZM125.264 149.513H126.237V155.823H125.264V155.174C124.897 155.685 124.371 155.941 123.686 155.941C123.067 155.941 122.538 155.712 122.099 155.255C121.661 154.792 121.441 154.231 121.441 153.57C121.441 152.902 121.661 152.34 122.099 151.884C122.538 151.427 123.067 151.199 123.686 151.199C124.371 151.199 124.897 151.451 125.264 151.956V149.513ZM122.82 154.606C123.091 154.877 123.431 155.012 123.839 155.012C124.248 155.012 124.587 154.877 124.858 154.606C125.128 154.33 125.264 153.984 125.264 153.57C125.264 153.155 125.128 152.812 124.858 152.542C124.587 152.265 124.248 152.127 123.839 152.127C123.431 152.127 123.091 152.265 122.82 152.542C122.55 152.812 122.415 153.155 122.415 153.57C122.415 153.984 122.55 154.33 122.82 154.606ZM127.945 153.984C128.017 154.327 128.183 154.591 128.441 154.778C128.699 154.958 129.015 155.048 129.387 155.048C129.905 155.048 130.292 154.862 130.55 154.489L131.353 154.958C130.908 155.613 130.25 155.941 129.378 155.941C128.645 155.941 128.053 155.718 127.602 155.273C127.152 154.823 126.926 154.255 126.926 153.57C126.926 152.896 127.149 152.334 127.593 151.884C128.038 151.427 128.609 151.199 129.306 151.199C129.968 151.199 130.509 151.43 130.929 151.893C131.356 152.355 131.569 152.917 131.569 153.579C131.569 153.681 131.557 153.816 131.533 153.984H127.945ZM127.936 153.191H130.586C130.521 152.824 130.367 152.547 130.127 152.361C129.892 152.175 129.616 152.082 129.297 152.082C128.937 152.082 128.636 152.181 128.396 152.38C128.156 152.578 128.002 152.848 127.936 153.191ZM133.206 152.073C133.452 151.514 133.915 151.235 134.594 151.235V152.289C134.222 152.265 133.897 152.355 133.621 152.56C133.344 152.758 133.206 153.088 133.206 153.552V155.823H132.232V151.316H133.206V152.073Z" fill="white"/>
<g filter="url(#filter8_d_779_17463)">
<path d="M68.7645 145.176H54.4484C49.7315 145.176 45.9076 149 45.9076 153.717V168.033C45.9076 172.75 49.7315 176.574 54.4484 176.574H68.7645C73.4814 176.574 77.3053 172.75 77.3053 168.033V153.717C77.3053 149 73.4814 145.176 68.7645 145.176Z" fill="url(#paint2_linear_779_17463)"/>
</g>
<g filter="url(#filter9_di_779_17463)">
<path d="M57.9169 164.499H59.7827L60.9493 157.235H59.0842L57.9169 164.499Z" fill="#3455FF"/>
<path d="M58.3319 157.236L55.3982 164.492H53.4239L51.9838 159.12C51.8354 158.566 51.4513 158.105 50.9333 157.858C50.8949 157.84 50.8561 157.822 50.8173 157.805C50.8724 157.613 50.9328 157.424 50.9978 157.236H52.5015C53.1188 157.244 53.5728 157.618 53.7154 158.172L54.3454 161.252C54.3432 161.246 54.34 161.239 54.3377 161.233L54.5295 162.171L56.3576 157.235V157.236H58.3319Z" fill="#3455FF"/>
<path d="M71.3318 157.257H69.8884C69.4433 157.257 69.1055 157.385 68.9128 157.842L66.1413 164.499H68.0996L68.6386 163.058H70.8298L71.1093 164.505H71.8879C72.1242 163.825 72.2964 163.115 72.3956 162.382L71.3318 157.257ZM69.1814 161.603C69.2203 161.603 69.9335 159.251 69.9335 159.251L70.5014 161.603C70.5014 161.603 69.5501 161.603 69.1814 161.603Z" fill="#3455FF"/>
<path d="M64.7122 160.194C64.0602 159.872 63.6607 159.655 63.6607 159.326C63.6683 159.026 63.9985 158.719 64.7354 158.719C65.3418 158.704 65.7874 158.846 66.1252 158.988L66.2946 159.064L66.5484 157.544C66.1798 157.401 65.5952 157.244 64.8735 157.244C63.031 157.244 61.7335 158.202 61.7255 159.573C61.7103 160.584 62.6543 161.145 63.3608 161.482C64.0825 161.827 64.3283 162.051 64.3283 162.357C64.3202 162.828 63.7447 163.046 63.2075 163.046C62.4635 163.046 62.0636 162.934 61.4567 162.671L61.211 162.559L60.95 164.139C61.3883 164.334 62.1944 164.505 63.031 164.514C64.9893 164.514 66.2633 163.57 66.2794 162.11C66.2856 161.309 65.7878 160.695 64.7122 160.194Z" fill="#3455FF"/>
</g>
<g filter="url(#filter10_d_779_17463)">
<path d="M246.612 145.176H246.612C237.942 145.176 230.914 152.205 230.914 160.875V160.875C230.914 169.545 237.942 176.574 246.612 176.574H246.612C255.283 176.574 262.311 169.545 262.311 160.875V160.875C262.311 152.205 255.283 145.176 246.612 145.176Z" fill="url(#paint3_linear_779_17463)"/>
</g>
<g filter="url(#filter11_di_779_17463)">
<path d="M245.062 165.819C244.936 165.947 244.764 166.018 244.585 166.018C244.406 166.018 244.233 165.947 244.107 165.819L240.291 162.003C239.895 161.607 239.895 160.964 240.291 160.569L240.769 160.091C241.165 159.695 241.806 159.695 242.202 160.091L244.585 162.474L251.023 156.036C251.419 155.64 252.061 155.64 252.456 156.036L252.934 156.514C253.33 156.91 253.33 157.552 252.934 157.948L245.062 165.819Z" fill="#12DF64"/>
</g>
<path d="M17.634 262.615H289.077V298.145C289.077 308.627 280.579 317.125 270.097 317.125H36.6137C26.1315 317.125 17.634 308.627 17.634 298.145V262.615Z" fill="url(#paint4_linear_779_17463)"/>
<g filter="url(#filter12_d_779_17463)">
<path d="M128.933 294.088C127.434 294.088 126.191 293.595 125.204 292.608C124.217 291.611 123.724 290.383 123.724 288.921C123.724 287.46 124.217 286.235 125.204 285.249C126.191 284.252 127.434 283.754 128.933 283.754C129.835 283.754 130.665 283.967 131.425 284.394C132.193 284.822 132.791 285.4 133.218 286.131L131.795 286.957C131.529 286.463 131.14 286.074 130.627 285.789C130.124 285.495 129.56 285.348 128.933 285.348C127.871 285.348 127.007 285.685 126.343 286.359C125.688 287.033 125.361 287.887 125.361 288.921C125.361 289.955 125.688 290.81 126.343 291.483C127.007 292.157 127.871 292.494 128.933 292.494C129.56 292.494 130.129 292.352 130.642 292.067C131.154 291.773 131.538 291.379 131.795 290.885L133.218 291.697C132.801 292.428 132.207 293.011 131.439 293.448C130.68 293.875 129.845 294.088 128.933 294.088ZM137.824 294.088C136.78 294.088 135.892 293.728 135.162 293.006C134.431 292.285 134.066 291.398 134.066 290.345C134.066 289.291 134.431 288.404 135.162 287.683C135.892 286.961 136.78 286.601 137.824 286.601C138.877 286.601 139.764 286.961 140.485 287.683C141.216 288.404 141.582 289.291 141.582 290.345C141.582 291.398 141.216 292.285 140.485 293.006C139.764 293.728 138.877 294.088 137.824 294.088ZM136.244 291.953C136.671 292.38 137.197 292.594 137.824 292.594C138.45 292.594 138.977 292.38 139.404 291.953C139.831 291.526 140.044 290.99 140.044 290.345C140.044 289.699 139.831 289.163 139.404 288.736C138.977 288.309 138.45 288.095 137.824 288.095C137.197 288.095 136.671 288.309 136.244 288.736C135.816 289.163 135.603 289.699 135.603 290.345C135.603 290.99 135.816 291.526 136.244 291.953ZM146.716 286.601C147.532 286.601 148.191 286.862 148.694 287.384C149.197 287.906 149.449 288.622 149.449 289.533V293.903H147.911V289.69C147.911 289.158 147.769 288.75 147.484 288.466C147.2 288.181 146.81 288.039 146.317 288.039C145.776 288.039 145.34 288.209 145.007 288.551C144.675 288.883 144.509 289.396 144.509 290.088V293.903H142.972V286.786H144.509V287.697C144.974 286.966 145.71 286.601 146.716 286.601ZM155.076 288.266H153.31V291.683C153.31 291.977 153.377 292.19 153.51 292.323C153.643 292.447 153.837 292.518 154.093 292.537C154.359 292.546 154.687 292.541 155.076 292.522V293.903C153.899 294.046 153.054 293.946 152.542 293.604C152.029 293.253 151.773 292.613 151.773 291.683V288.266H150.464V286.786H151.773V285.249L153.31 284.793V286.786H155.076V288.266ZM157.922 285.434C157.732 285.623 157.504 285.718 157.238 285.718C156.973 285.718 156.74 285.623 156.541 285.434C156.351 285.234 156.256 285.002 156.256 284.736C156.256 284.47 156.351 284.243 156.541 284.053C156.731 283.854 156.963 283.754 157.238 283.754C157.514 283.754 157.746 283.854 157.936 284.053C158.126 284.243 158.221 284.47 158.221 284.736C158.221 285.002 158.121 285.234 157.922 285.434ZM156.47 293.903V286.786H158.007V293.903H156.47ZM163.536 286.601C164.352 286.601 165.011 286.862 165.514 287.384C166.017 287.906 166.269 288.622 166.269 289.533V293.903H164.731V289.69C164.731 289.158 164.589 288.75 164.304 288.466C164.02 288.181 163.631 288.039 163.137 288.039C162.596 288.039 162.16 288.209 161.828 288.551C161.495 288.883 161.329 289.396 161.329 290.088V293.903H159.792V286.786H161.329V287.697C161.794 286.966 162.53 286.601 163.536 286.601ZM172.721 286.786H174.259V293.903H172.721V292.992C172.256 293.723 171.521 294.088 170.515 294.088C169.699 294.088 169.039 293.827 168.536 293.305C168.033 292.783 167.782 292.067 167.782 291.156V286.786H169.319V290.999C169.319 291.531 169.462 291.939 169.746 292.224C170.031 292.508 170.42 292.651 170.914 292.651C171.455 292.651 171.891 292.485 172.223 292.152C172.555 291.811 172.721 291.294 172.721 290.601V286.786ZM177.267 290.999C177.38 291.54 177.641 291.958 178.05 292.252C178.458 292.537 178.956 292.679 179.544 292.679C180.36 292.679 180.972 292.385 181.38 291.797L182.647 292.537C181.945 293.571 180.906 294.088 179.53 294.088C178.372 294.088 177.437 293.737 176.726 293.035C176.014 292.323 175.658 291.426 175.658 290.345C175.658 289.282 176.009 288.394 176.711 287.683C177.414 286.961 178.315 286.601 179.416 286.601C180.46 286.601 181.314 286.966 181.978 287.697C182.652 288.428 182.989 289.315 182.989 290.359C182.989 290.52 182.97 290.734 182.932 290.999H177.267ZM177.252 289.747H181.437C181.333 289.168 181.091 288.731 180.711 288.437C180.341 288.143 179.905 287.996 179.402 287.996C178.832 287.996 178.358 288.152 177.978 288.466C177.599 288.779 177.357 289.206 177.252 289.747Z" fill="white"/>
</g>
<g filter="url(#filter13_di_779_17463)">
<path d="M48.2686 95.4739V81.7782L48.2079 78.377H48.3597L50.9106 81.8085L61.5088 95.4739H63.8775V75.1277H61.7214V89.0056L61.7821 92.346H61.5999L59.1402 88.9449L48.4812 75.1277H46.1125V95.4739H48.2686ZM76.6045 95.7776C80.2183 95.7776 83.1639 94.3199 84.1964 91.0402H84.3482V95.4739H86.2918V85.4526H76.0276V87.1532H84.1053V87.9124C84.1053 91.8602 81.7366 93.6822 76.9082 93.6822C71.8369 93.6822 69.0127 90.8277 69.0127 85.3008C69.0127 79.7739 71.8672 76.9194 76.9993 76.9194C81.4937 76.9194 83.9231 78.8629 83.9231 82.2337V82.507H86.2614V82.2337C86.2614 77.7089 82.3136 74.824 77.0297 74.824C70.9562 74.824 66.7351 78.954 66.7351 85.3008C66.7351 91.6476 70.8044 95.7776 76.6045 95.7776ZM91.6846 95.4739V81.7782L91.6239 78.377H91.7757L94.3266 81.8085L104.925 95.4739H107.293V75.1277H105.137V89.0056L105.198 92.346H105.016L102.556 88.9449L91.8972 75.1277H89.5285V95.4739H91.6846ZM121.921 95.4739V75.1277H120.16C119.37 77.0408 118.277 77.6482 116.03 77.6482H114.967V79.288H119.765V95.4739H121.921ZM125.227 98.1462C126.502 98.1462 127.292 97.5085 127.292 96.1723V91.2528H124.619V95.4739H125.804V96.2027C125.804 96.7493 125.591 96.8404 125.196 96.8404H124.589V98.1462H125.227ZM138.723 95.7776C144.493 95.7776 148.137 91.8602 148.137 85.3008C148.137 78.7718 144.493 74.824 138.723 74.824C132.923 74.824 129.279 78.7718 129.279 85.3008C129.279 91.8602 132.923 95.7776 138.723 95.7776ZM138.723 93.7126C133.986 93.7126 131.557 90.9795 131.557 85.3008C131.557 79.6221 133.986 76.889 138.723 76.889C143.43 76.889 145.86 79.6221 145.86 85.3008C145.86 90.9795 143.43 93.7126 138.723 93.7126ZM159.72 95.7776C165.489 95.7776 169.133 91.8602 169.133 85.3008C169.133 78.7718 165.489 74.824 159.72 74.824C153.919 74.824 150.275 78.7718 150.275 85.3008C150.275 91.8602 153.919 95.7776 159.72 95.7776ZM159.72 93.7126C154.982 93.7126 152.553 90.9795 152.553 85.3008C152.553 79.6221 154.982 76.889 159.72 76.889C164.426 76.889 166.856 79.6221 166.856 85.3008C166.856 90.9795 164.426 93.7126 159.72 93.7126ZM180.716 95.7776C186.486 95.7776 190.13 91.8602 190.13 85.3008C190.13 78.7718 186.486 74.824 180.716 74.824C174.916 74.824 171.271 78.7718 171.271 85.3008C171.271 91.8602 174.916 95.7776 180.716 95.7776ZM180.716 93.7126C175.978 93.7126 173.549 90.9795 173.549 85.3008C173.549 79.6221 175.978 76.889 180.716 76.889C185.423 76.889 187.852 79.6221 187.852 85.3008C187.852 90.9795 185.423 93.7126 180.716 93.7126ZM192.723 98.1462C193.999 98.1462 194.788 97.5085 194.788 96.1723V91.2528H192.116V95.4739H193.3V96.2027C193.3 96.7493 193.088 96.8404 192.693 96.8404H192.086V98.1462H192.723ZM206.22 95.7776C211.989 95.7776 215.634 91.8602 215.634 85.3008C215.634 78.7718 211.989 74.824 206.22 74.824C200.419 74.824 196.775 78.7718 196.775 85.3008C196.775 91.8602 200.419 95.7776 206.22 95.7776ZM206.22 93.7126C201.482 93.7126 199.053 90.9795 199.053 85.3008C199.053 79.6221 201.482 76.889 206.22 76.889C210.927 76.889 213.356 79.6221 213.356 85.3008C213.356 90.9795 210.927 93.7126 206.22 93.7126ZM227.216 95.7776C232.986 95.7776 236.63 91.8602 236.63 85.3008C236.63 78.7718 232.986 74.824 227.216 74.824C221.416 74.824 217.772 78.7718 217.772 85.3008C217.772 91.8602 221.416 95.7776 227.216 95.7776ZM227.216 93.7126C222.479 93.7126 220.049 90.9795 220.049 85.3008C220.049 79.6221 222.479 76.889 227.216 76.889C231.923 76.889 234.352 79.6221 234.352 85.3008C234.352 90.9795 231.923 93.7126 227.216 93.7126ZM248.212 95.7776C253.982 95.7776 257.626 91.8602 257.626 85.3008C257.626 78.7718 253.982 74.824 248.212 74.824C242.412 74.824 238.768 78.7718 238.768 85.3008C238.768 91.8602 242.412 95.7776 248.212 95.7776ZM248.212 93.7126C243.475 93.7126 241.045 90.9795 241.045 85.3008C241.045 79.6221 243.475 76.889 248.212 76.889C252.919 76.889 255.349 79.6221 255.349 85.3008C255.349 90.9795 252.919 93.7126 248.212 93.7126Z" fill="white"/>
</g>
</g>
<defs>
<filter id="filter0_d_779_17463" x="-2.65059" y="0.71649" width="309.301" height="350.107" filterUnits="userSpaceOnUse" color-interpolation-filters="sRGB">
<feFlood flood-opacity="0" result="BackgroundImageFix"/>
<feColorMatrix in="SourceAlpha" type="matrix" values="0 0 0 0 0 0 0 0 0 0 0 0 0 0 0 0 0 0 127 0" result="hardAlpha"/>
<feOffset dy="15.7703"/>
<feGaussianBlur stdDeviation="8.7613"/>
<feColorMatrix type="matrix" values="0 0 0 0 0 0 0 0 0 0 0 0 0 0 0 0 0 0 0.23 0"/>
<feBlend mode="normal" in2="BackgroundImageFix" result="effect1_dropShadow_779_17463"/>
<feBlend mode="normal" in="SourceGraphic" in2="effect1_dropShadow_779_17463" result="shape"/>
</filter>
<filter id="filter1_f_779_17463" x="27.9826" y="40.2483" width="75.6376" height="27.9733" filterUnits="userSpaceOnUse" color-interpolation-filters="sRGB">
<feFlood flood-opacity="0" result="BackgroundImageFix"/>
<feBlend mode="normal" in="SourceGraphic" in2="BackgroundImageFix" result="shape"/>
<feGaussianBlur stdDeviation="4.03318" result="effect1_foregroundBlur_779_17463"/>
</filter>
<filter id="filter2_f_779_17463" x="15.4526" y="63.337" width="221.029" height="62.2723" filterUnits="userSpaceOnUse" color-interpolation-filters="sRGB">
<feFlood flood-opacity="0" result="BackgroundImageFix"/>
<feBlend mode="normal" in="SourceGraphic" in2="BackgroundImageFix" result="shape"/>
<feGaussianBlur stdDeviation="9.48983" result="effect1_foregroundBlur_779_17463"/>
</filter>
<filter id="filter3_d_779_17463" x="224.999" y="200.955" width="36.5837" height="36.5837" filterUnits="userSpaceOnUse" color-interpolation-filters="sRGB">
<feFlood flood-opacity="0" result="BackgroundImageFix"/>
<feColorMatrix in="SourceAlpha" type="matrix" values="0 0 0 0 0 0 0 0 0 0 0 0 0 0 0 0 0 0 127 0" result="hardAlpha"/>
<feOffset dx="-3.32144" dy="3.32144"/>
<feGaussianBlur stdDeviation="4.74491"/>
<feColorMatrix type="matrix" values="0 0 0 0 0.0291667 0 0 0 0 0.0291667 0 0 0 0 0.0291667 0 0 0 0.25 0"/>
<feBlend mode="normal" in2="BackgroundImageFix" result="effect1_dropShadow_779_17463"/>
<feBlend mode="normal" in="SourceGraphic" in2="effect1_dropShadow_779_17463" result="shape"/>
</filter>
<filter id="filter4_d_779_17463" x="30.7239" y="191.686" width="55.1223" height="55.1223" filterUnits="userSpaceOnUse" color-interpolation-filters="sRGB">
<feFlood flood-opacity="0" result="BackgroundImageFix"/>
<feColorMatrix in="SourceAlpha" type="matrix" values="0 0 0 0 0 0 0 0 0 0 0 0 0 0 0 0 0 0 127 0" result="hardAlpha"/>
<feOffset dx="-3.32144" dy="3.32144"/>
<feGaussianBlur stdDeviation="5.93114"/>
<feColorMatrix type="matrix" values="0 0 0 0 0.0291667 0 0 0 0 0.0291667 0 0 0 0 0.0291667 0 0 0 0.25 0"/>
<feBlend mode="normal" in2="BackgroundImageFix" result="effect1_dropShadow_779_17463"/>
<feBlend mode="normal" in="SourceGraphic" in2="effect1_dropShadow_779_17463" result="shape"/>
</filter>
<filter id="filter5_dii_779_17463" x="45.5246" y="208.855" width="20.3109" height="19.8365" filterUnits="userSpaceOnUse" color-interpolation-filters="sRGB">
<feFlood flood-opacity="0" result="BackgroundImageFix"/>
<feColorMatrix in="SourceAlpha" type="matrix" values="0 0 0 0 0 0 0 0 0 0 0 0 0 0 0 0 0 0 127 0" result="hardAlpha"/>
<feOffset dx="-3.32144" dy="3.32144"/>
<feGaussianBlur stdDeviation="1.66072"/>
<feColorMatrix type="matrix" values="0 0 0 0 0 0 0 0 0 0 0 0 0 0 0 0 0 0 0.25 0"/>
<feBlend mode="normal" in2="BackgroundImageFix" result="effect1_dropShadow_779_17463"/>
<feBlend mode="normal" in="SourceGraphic" in2="effect1_dropShadow_779_17463" result="shape"/>
<feColorMatrix in="SourceAlpha" type="matrix" values="0 0 0 0 0 0 0 0 0 0 0 0 0 0 0 0 0 0 127 0" result="hardAlpha"/>
<feOffset dx="-1.42347" dy="2.37246"/>
<feGaussianBlur stdDeviation="1.89797"/>
<feComposite in2="hardAlpha" operator="arithmetic" k2="-1" k3="1"/>
<feColorMatrix type="matrix" values="0 0 0 0 1 0 0 0 0 0.0875 0 0 0 0 0.0875 0 0 0 1 0"/>
<feBlend mode="normal" in2="shape" result="effect2_innerShadow_779_17463"/>
<feColorMatrix in="SourceAlpha" type="matrix" values="0 0 0 0 0 0 0 0 0 0 0 0 0 0 0 0 0 0 127 0" result="hardAlpha"/>
<feOffset dx="1.42347" dy="-0.948983"/>
<feGaussianBlur stdDeviation="1.18623"/>
<feComposite in2="hardAlpha" operator="arithmetic" k2="-1" k3="1"/>
<feColorMatrix type="matrix" values="0 0 0 0 0 0 0 0 0 0 0 0 0 0 0 0 0 0 0.25 0"/>
<feBlend mode="normal" in2="effect2_innerShadow_779_17463" result="effect3_innerShadow_779_17463"/>
</filter>
<filter id="filter6_dii_779_17463" x="52.1581" y="208.855" width="20.3109" height="19.8365" filterUnits="userSpaceOnUse" color-interpolation-filters="sRGB">
<feFlood flood-opacity="0" result="BackgroundImageFix"/>
<feColorMatrix in="SourceAlpha" type="matrix" values="0 0 0 0 0 0 0 0 0 0 0 0 0 0 0 0 0 0 127 0" result="hardAlpha"/>
<feOffset dx="-3.32144" dy="3.32144"/>
<feGaussianBlur stdDeviation="1.66072"/>
<feColorMatrix type="matrix" values="0 0 0 0 0 0 0 0 0 0 0 0 0 0 0 0 0 0 0.25 0"/>
<feBlend mode="normal" in2="BackgroundImageFix" result="effect1_dropShadow_779_17463"/>
<feBlend mode="normal" in="SourceGraphic" in2="effect1_dropShadow_779_17463" result="shape"/>
<feColorMatrix in="SourceAlpha" type="matrix" values="0 0 0 0 0 0 0 0 0 0 0 0 0 0 0 0 0 0 127 0" result="hardAlpha"/>
<feOffset dx="-1.42347" dy="2.37246"/>
<feGaussianBlur stdDeviation="1.89797"/>
<feComposite in2="hardAlpha" operator="arithmetic" k2="-1" k3="1"/>
<feColorMatrix type="matrix" values="0 0 0 0 1 0 0 0 0 0.610917 0 0 0 0 0.154167 0 0 0 1 0"/>
<feBlend mode="normal" in2="shape" result="effect2_innerShadow_779_17463"/>
<feColorMatrix in="SourceAlpha" type="matrix" values="0 0 0 0 0 0 0 0 0 0 0 0 0 0 0 0 0 0 127 0" result="hardAlpha"/>
<feOffset dx="1.42347" dy="-0.948983"/>
<feGaussianBlur stdDeviation="1.18623"/>
<feComposite in2="hardAlpha" operator="arithmetic" k2="-1" k3="1"/>
<feColorMatrix type="matrix" values="0 0 0 0 0 0 0 0 0 0 0 0 0 0 0 0 0 0 0.25 0"/>
<feBlend mode="normal" in2="effect2_innerShadow_779_17463" result="effect3_innerShadow_779_17463"/>
</filter>
<filter id="filter7_f_779_17463" x="15.0255" y="129.526" width="254.719" height="82.0171" filterUnits="userSpaceOnUse" color-interpolation-filters="sRGB">
<feFlood flood-opacity="0" result="BackgroundImageFix"/>
<feBlend mode="normal" in="SourceGraphic" in2="BackgroundImageFix" result="shape"/>
<feGaussianBlur stdDeviation="8.77809" result="effect1_foregroundBlur_779_17463"/>
</filter>
<filter id="filter8_d_779_17463" x="33.0963" y="139.008" width="50.3774" height="50.3774" filterUnits="userSpaceOnUse" color-interpolation-filters="sRGB">
<feFlood flood-opacity="0" result="BackgroundImageFix"/>
<feColorMatrix in="SourceAlpha" type="matrix" values="0 0 0 0 0 0 0 0 0 0 0 0 0 0 0 0 0 0 127 0" result="hardAlpha"/>
<feOffset dx="-3.32144" dy="3.32144"/>
<feGaussianBlur stdDeviation="4.74491"/>
<feColorMatrix type="matrix" values="0 0 0 0 0.0291667 0 0 0 0 0.0291667 0 0 0 0 0.0291667 0 0 0 0.25 0"/>
<feBlend mode="normal" in2="BackgroundImageFix" result="effect1_dropShadow_779_17463"/>
<feBlend mode="normal" in="SourceGraphic" in2="effect1_dropShadow_779_17463" result="shape"/>
</filter>
<filter id="filter9_di_779_17463" x="46.5469" y="157.235" width="26.3232" height="12.9732" filterUnits="userSpaceOnUse" color-interpolation-filters="sRGB">
<feFlood flood-opacity="0" result="BackgroundImageFix"/>
<feColorMatrix in="SourceAlpha" type="matrix" values="0 0 0 0 0 0 0 0 0 0 0 0 0 0 0 0 0 0 127 0" result="hardAlpha"/>
<feOffset dx="-1.89797" dy="3.32144"/>
<feGaussianBlur stdDeviation="1.18623"/>
<feColorMatrix type="matrix" values="0 0 0 0 0 0 0 0 0 0 0 0 0 0 0 0 0 0 0.25 0"/>
<feBlend mode="normal" in2="BackgroundImageFix" result="effect1_dropShadow_779_17463"/>
<feBlend mode="normal" in="SourceGraphic" in2="effect1_dropShadow_779_17463" result="shape"/>
<feColorMatrix in="SourceAlpha" type="matrix" values="0 0 0 0 0 0 0 0 0 0 0 0 0 0 0 0 0 0 127 0" result="hardAlpha"/>
<feOffset dx="-0.474491" dy="0.474491"/>
<feGaussianBlur stdDeviation="0.355869"/>
<feComposite in2="hardAlpha" operator="arithmetic" k2="-1" k3="1"/>
<feColorMatrix type="matrix" values="0 0 0 0 1 0 0 0 0 1 0 0 0 0 1 0 0 0 0.29 0"/>
<feBlend mode="normal" in2="shape" result="effect2_innerShadow_779_17463"/>
</filter>
<filter id="filter10_d_779_17463" x="218.102" y="139.008" width="50.3774" height="50.3774" filterUnits="userSpaceOnUse" color-interpolation-filters="sRGB">
<feFlood flood-opacity="0" result="BackgroundImageFix"/>
<feColorMatrix in="SourceAlpha" type="matrix" values="0 0 0 0 0 0 0 0 0 0 0 0 0 0 0 0 0 0 127 0" result="hardAlpha"/>
<feOffset dx="-3.32144" dy="3.32144"/>
<feGaussianBlur stdDeviation="4.74491"/>
<feColorMatrix type="matrix" values="0 0 0 0 0.0291667 0 0 0 0 0.0291667 0 0 0 0 0.0291667 0 0 0 0.25 0"/>
<feBlend mode="normal" in2="BackgroundImageFix" result="effect1_dropShadow_779_17463"/>
<feBlend mode="normal" in="SourceGraphic" in2="effect1_dropShadow_779_17463" result="shape"/>
</filter>
<filter id="filter11_di_779_17463" x="234.774" y="154.79" width="19.8805" height="17.8709" filterUnits="userSpaceOnUse" color-interpolation-filters="sRGB">
<feFlood flood-opacity="0" result="BackgroundImageFix"/>
<feColorMatrix in="SourceAlpha" type="matrix" values="0 0 0 0 0 0 0 0 0 0 0 0 0 0 0 0 0 0 127 0" result="hardAlpha"/>
<feOffset dx="-1.89797" dy="3.32144"/>
<feGaussianBlur stdDeviation="1.66072"/>
<feColorMatrix type="matrix" values="0 0 0 0 0 0 0 0 0 0 0 0 0 0 0 0 0 0 0.25 0"/>
<feBlend mode="normal" in2="BackgroundImageFix" result="effect1_dropShadow_779_17463"/>
<feBlend mode="normal" in="SourceGraphic" in2="effect1_dropShadow_779_17463" result="shape"/>
<feColorMatrix in="SourceAlpha" type="matrix" values="0 0 0 0 0 0 0 0 0 0 0 0 0 0 0 0 0 0 127 0" result="hardAlpha"/>
<feOffset dx="1.42347" dy="-0.948983"/>
<feGaussianBlur stdDeviation="0.948983"/>
<feComposite in2="hardAlpha" operator="arithmetic" k2="-1" k3="1"/>
<feColorMatrix type="matrix" values="0 0 0 0 0.183767 0 0 0 0 0.604167 0 0 0 0 0.326703 0 0 0 1 0"/>
<feBlend mode="normal" in2="shape" result="effect2_innerShadow_779_17463"/>
</filter>
<filter id="filter12_d_779_17463" x="110.438" y="283.754" width="72.5511" height="24.0947" filterUnits="userSpaceOnUse" color-interpolation-filters="sRGB">
<feFlood flood-opacity="0" result="BackgroundImageFix"/>
<feColorMatrix in="SourceAlpha" type="matrix" values="0 0 0 0 0 0 0 0 0 0 0 0 0 0 0 0 0 0 127 0" result="hardAlpha"/>
<feOffset dx="-7.11737" dy="7.59186"/>
<feGaussianBlur stdDeviation="3.08419"/>
<feColorMatrix type="matrix" values="0 0 0 0 0 0 0 0 0 0.241667 0 0 0 0 0.125667 0 0 0 0.25 0"/>
<feBlend mode="normal" in2="BackgroundImageFix" result="effect1_dropShadow_779_17463"/>
<feBlend mode="normal" in="SourceGraphic" in2="effect1_dropShadow_779_17463" result="shape"/>
</filter>
<filter id="filter13_di_779_17463" x="44.2146" y="74.824" width="215.309" height="29.9651" filterUnits="userSpaceOnUse" color-interpolation-filters="sRGB">
<feFlood flood-opacity="0" result="BackgroundImageFix"/>
<feColorMatrix in="SourceAlpha" type="matrix" values="0 0 0 0 0 0 0 0 0 0 0 0 0 0 0 0 0 0 127 0" result="hardAlpha"/>
<feOffset dy="4.74491"/>
<feGaussianBlur stdDeviation="0.948983"/>
<feColorMatrix type="matrix" values="0 0 0 0 0 0 0 0 0 0 0 0 0 0 0 0 0 0 0.25 0"/>
<feBlend mode="normal" in2="BackgroundImageFix" result="effect1_dropShadow_779_17463"/>
<feBlend mode="normal" in="SourceGraphic" in2="effect1_dropShadow_779_17463" result="shape"/>
<feColorMatrix in="SourceAlpha" type="matrix" values="0 0 0 0 0 0 0 0 0 0 0 0 0 0 0 0 0 0 127 0" result="hardAlpha"/>
<feOffset dx="1.89797" dy="1.89797"/>
<feGaussianBlur stdDeviation="47.4491"/>
<feComposite in2="hardAlpha" operator="arithmetic" k2="-1" k3="1"/>
<feColorMatrix type="matrix" values="0 0 0 0 0 0 0 0 0 0 0 0 0 0 0 0 0 0 0.25 0"/>
<feBlend mode="normal" in2="shape" result="effect2_innerShadow_779_17463"/>
</filter>
<linearGradient id="paint0_linear_779_17463" x1="61.6065" y1="200.227" x2="61.6065" y2="231.624" gradientUnits="userSpaceOnUse">
<stop stop-color="#D6E9FF"/>
<stop offset="1" stop-color="#4098FF"/>
</linearGradient>
<linearGradient id="paint1_linear_779_17463" x1="38.154" y1="184.327" x2="270.755" y2="137.422" gradientUnits="userSpaceOnUse">
<stop stop-color="#1681FF"/>
<stop offset="1" stop-color="#0069E3"/>
</linearGradient>
<linearGradient id="paint2_linear_779_17463" x1="61.6065" y1="145.176" x2="61.6065" y2="176.574" gradientUnits="userSpaceOnUse">
<stop stop-color="#D6E9FF"/>
<stop offset="1" stop-color="#4098FF"/>
</linearGradient>
<linearGradient id="paint3_linear_779_17463" x1="246.613" y1="145.176" x2="246.613" y2="176.574" gradientUnits="userSpaceOnUse">
<stop stop-color="white"/>
<stop offset="1" stop-color="#D9D9D9"/>
</linearGradient>
<linearGradient id="paint4_linear_779_17463" x1="262.568" y1="262.615" x2="37.9944" y2="325.498" gradientUnits="userSpaceOnUse">
<stop stop-color="#60D77A"/>
<stop offset="1" stop-color="#2FB94D"/>
</linearGradient>
<clipPath id="clip0_779_17463">
<rect width="274.256" height="315.062" fill="white" transform="translate(14.872 2.46875)"/>
</clipPath>
</defs>
</svg>
