<svg width="424" height="403" viewBox="0 0 424 403" fill="none" xmlns="http://www.w3.org/2000/svg">
<g filter="url(#filter0_d_767_1683)">
<path d="M356.703 39.5775L223.388 340.171C220.427 346.845 213.886 349.438 208.777 345.969L70.4923 252.09C65.383 248.621 63.6446 240.4 66.6052 233.727L199.904 -66.8494C202.864 -73.5227 209.406 -76.1161 214.515 -72.6472L352.815 21.2143C357.925 24.6832 359.663 32.9042 356.703 39.5775Z" fill="white"/>
<path d="M223.265 340.066C220.357 346.65 213.894 349.194 208.852 345.788L70.5519 251.926C65.5103 248.52 63.807 240.397 66.7152 233.813L200.03 -66.7811C202.938 -73.3651 209.401 -75.9092 214.443 -72.5031L352.743 21.3583C357.785 24.7644 359.488 32.888 356.58 39.4721L223.265 340.066Z" fill="url(#paint0_radial_767_1683)"/>
<path d="M223.155 339.98C220.287 346.455 213.898 348.987 208.941 345.627L70.6403 251.765C65.6828 248.404 63.9855 240.376 66.854 233.901L200.169 -66.6929C203.037 -73.1677 209.426 -75.6999 214.383 -72.3393L352.667 21.5395C357.625 24.9001 359.322 32.929 356.454 39.4038L223.155 339.98Z" fill="#9FED61"/>
<path d="M182.4 227.785L165.36 266.217C163.85 269.635 160.503 270.963 157.902 269.177L140.647 257.48C138.03 255.712 137.14 251.505 138.663 248.106L155.703 209.675C157.213 206.256 160.56 204.929 163.162 206.715L180.416 218.412C183.033 220.18 183.91 224.367 182.4 227.785Z" fill="url(#paint1_linear_767_1683)"/>
<path d="M155.439 209.82L138.626 247.708C137.005 251.379 137.786 255.802 140.362 257.548L157.987 269.524C160.576 271.289 164.005 269.706 165.64 266.054L182.453 228.167C184.075 224.495 183.294 220.073 180.718 218.327L163.092 206.351C160.475 204.582 157.061 206.148 155.439 209.82ZM162.876 206.783L166.712 209.38L158.721 227.411L158.769 227.529C159.658 229.683 161.069 231.452 162.869 232.674C164.64 233.893 166.593 234.414 168.512 234.196C172.303 238.39 173.888 243.038 172.533 246.057C171.19 249.095 167.168 249.927 162.275 248.248C161.383 246.132 159.985 244.382 158.198 243.18C156.427 241.961 154.473 241.441 152.554 241.658C148.764 237.464 147.179 232.816 148.534 229.798C149.241 228.206 150.704 227.194 152.767 226.858L152.77 226.35C150.678 226.683 149.153 227.727 148.326 229.345L147.44 228.736L155.73 210.016C157.27 206.601 160.465 205.165 162.876 206.783ZM168.486 233.686C166.629 233.871 164.776 233.378 163.073 232.222C161.37 231.066 160.023 229.397 159.153 227.357L167.028 209.616L176.361 215.945L168.486 233.686ZM161.914 248.497L154.038 266.238L144.705 259.91L152.58 242.169C154.438 241.984 156.291 242.476 157.994 243.632C159.71 244.809 161.056 246.478 161.914 248.497ZM138.943 247.944L147.233 229.225L148.118 229.834C146.846 233.068 148.424 237.79 152.228 242.004L144.385 259.711L140.549 257.113C138.154 255.478 137.42 251.343 138.943 247.944ZM158.191 269.072L154.355 266.474L162.198 248.768C167.103 250.467 171.162 249.564 172.712 246.506L173.597 247.116L165.307 265.835C163.797 269.254 160.602 270.689 158.191 269.072ZM182.12 227.948L173.83 246.667L172.945 246.057C174.217 242.824 172.639 238.101 168.835 233.887L176.678 216.181L180.514 218.779C182.925 220.396 183.647 224.512 182.12 227.948Z" fill="black"/>
<path d="M149.435 230.39C149.284 230.752 149.363 231.174 149.611 231.348C149.86 231.521 150.199 231.365 150.35 231.002C150.501 230.64 150.423 230.218 150.174 230.044C149.925 229.871 149.587 230.027 149.435 230.39Z" fill="black"/>
<path d="M192.579 16.8872C192.398 16.7762 192.256 16.5559 192.177 16.3037C191.982 15.7019 192.223 15.0087 192.705 14.7334C195.886 12.9765 198.838 9.40934 200.811 4.96045C202.785 0.511552 203.617 -4.47658 203.101 -8.74259C203.014 -9.39091 203.381 -10.0159 203.878 -10.1391C204.392 -10.2797 204.866 -9.84019 204.94 -9.2119C205.521 -4.37495 204.619 1.05855 202.418 6.05125C200.204 11.0239 197.004 14.8881 193.374 16.8857C193.106 17.068 192.815 17.0409 192.579 16.8872Z" fill="black"/>
<path d="M190.621 11.6588C190.44 11.5478 190.299 11.3275 190.219 11.0753C190.025 10.4735 190.266 9.78034 190.748 9.505C193.121 8.20029 195.311 5.54157 196.782 2.23223C198.252 -1.07712 198.878 -4.80388 198.495 -7.96538C198.408 -8.6137 198.775 -9.23864 199.272 -9.3619C199.786 -9.50249 200.26 -9.06297 200.334 -8.43468C200.782 -4.70225 200.098 -0.510118 198.388 3.32301C196.677 7.15613 194.21 10.1092 191.416 11.6573C191.149 11.8396 190.857 11.8125 190.621 11.6588Z" fill="black"/>
<path d="M188.664 6.43022C188.483 6.31924 188.341 6.09895 188.261 5.84676C188.067 5.24495 188.308 4.5518 188.79 4.27646C190.327 3.42125 191.785 1.67367 192.752 -0.496121C193.719 -2.66592 194.123 -5.114 193.889 -7.18829C193.802 -7.83661 194.169 -8.46155 194.666 -8.58482C195.18 -8.7254 195.654 -8.28589 195.728 -7.6576C196.043 -5.02969 195.565 -2.09892 194.358 0.594659C193.167 3.27092 191.428 5.35017 189.471 6.4488C189.191 6.61108 188.9 6.58396 188.664 6.43022Z" fill="black"/>
<path d="M186.706 1.20181C186.525 1.09084 186.383 0.870552 186.304 0.618357C186.11 0.0165516 186.351 -0.676604 186.833 -0.95194C187.562 -1.35493 188.258 -2.19411 188.709 -3.24438C189.16 -4.29465 189.371 -5.46133 189.257 -6.45112C189.17 -7.09944 189.537 -7.72438 190.035 -7.84765C190.548 -7.98823 191.023 -7.5487 191.097 -6.92041C191.279 -5.39702 191.006 -3.72765 190.331 -2.17091C189.644 -0.634198 188.65 0.553961 187.517 1.18306C187.234 1.38268 186.942 1.35556 186.706 1.20181Z" fill="black"/>
<path d="M191.712 283.447C191.906 283.578 191.947 283.771 191.831 284.061L187.788 293.195C187.677 293.448 187.524 293.509 187.301 293.376C187.119 293.265 187.078 293.072 187.207 292.802L189.069 288.606L177.699 280.902L175.857 285.043C175.729 285.314 175.56 285.392 175.353 285.241C175.159 285.11 175.122 284.881 175.25 284.61L177.444 279.692L189.42 287.829L191.095 284.068L186.913 281.231C186.845 281.169 186.794 281.089 186.775 280.974C186.756 280.859 186.767 280.747 186.819 280.658C186.872 280.569 186.937 280.499 187.028 280.47C187.135 280.424 187.223 280.432 187.303 280.515L191.712 283.447Z" fill="white"/>
<path d="M192.051 284.232L188.008 293.366C187.821 293.8 187.469 293.937 187.123 293.698C186.791 293.479 186.725 293.077 186.912 292.643L188.626 288.772L177.775 281.361L176.08 285.177C175.877 285.629 175.525 285.766 175.179 285.527C174.847 285.307 174.755 284.866 174.975 284.397L177.304 279.133L189.281 287.27L190.659 284.159L186.714 281.477C186.617 281.411 186.497 281.268 186.434 280.999C186.409 280.789 186.427 280.603 186.503 280.421C186.558 280.295 186.676 280.136 186.891 280.043C187.06 279.965 187.235 279.981 187.387 280.089L191.831 283.12C192.176 283.359 192.255 283.78 192.051 284.232ZM187.491 293.073C187.491 293.073 187.507 293.056 187.51 293.018L191.566 283.905C191.586 283.85 191.602 283.833 191.59 283.813C191.59 283.813 191.577 283.793 191.548 283.79L187.104 280.76C187.091 280.74 187.075 280.757 187.046 280.754C187.017 280.752 187 280.769 187 280.769C187 280.769 186.997 280.806 187.01 280.826L191.453 283.857L189.499 288.251L177.522 280.114L175.476 284.707C175.44 284.779 175.437 284.816 175.437 284.816C175.437 284.816 175.45 284.836 175.479 284.839C175.521 284.862 175.55 284.864 175.55 284.864C175.55 284.864 175.566 284.847 175.586 284.792L177.576 280.326L189.443 288.377L187.433 292.898C187.417 292.916 187.414 292.953 187.414 292.953L187.426 292.973C187.461 293.07 187.478 293.053 187.491 293.073Z" fill="white"/>
<path d="M197.721 268.998C197.757 268.926 197.823 268.857 197.914 268.828C198.005 268.799 198.109 268.789 198.206 268.855C198.387 268.966 198.428 269.158 198.316 269.411L194.069 278.997L188.627 275.309C188.294 275.089 188.092 274.732 188 274.29C187.896 273.828 187.937 273.38 188.138 272.966L191.526 265.334L186.181 261.712L182.253 270.555C182.125 270.825 181.956 270.904 181.749 270.753C181.694 270.71 181.643 270.63 181.611 270.495C181.579 270.36 181.59 270.248 181.646 270.122L185.222 262.056C185.409 261.621 185.683 261.364 186.051 261.21C186.402 261.073 186.752 261.106 187.085 261.325L191.267 264.161C191.6 264.381 191.831 264.741 191.923 265.183C192.027 265.644 191.973 266.072 191.801 266.49L188.413 274.121L193.813 277.787L197.721 268.998Z" fill="white"/>
<path d="M198.565 269.585L194.17 279.496L188.479 275.634C188.091 275.372 187.821 274.951 187.711 274.395C187.6 273.838 187.636 273.296 187.876 272.772L191.116 265.466L186.285 262.173L182.505 270.691C182.301 271.143 181.95 271.28 181.604 271.04C181.495 270.955 181.405 270.815 181.338 270.583C181.271 270.35 181.308 270.109 181.387 269.89L184.963 261.824C185.187 261.318 185.53 260.954 185.972 260.788C186.414 260.622 186.836 260.68 187.224 260.942L191.406 263.779C191.806 264.061 192.076 264.481 192.203 265.02C192.329 265.559 192.277 266.119 192.054 266.626L188.813 273.932L193.716 277.25L197.476 268.787C197.548 268.643 197.662 268.522 197.832 268.443C197.955 268.38 198.134 268.358 198.357 268.492C198.657 268.746 198.736 269.168 198.565 269.585ZM193.952 278.515L198.067 269.237C198.083 269.22 198.083 269.22 198.07 269.2L198.058 269.18C198.016 269.157 198.016 269.157 197.999 269.175C197.983 269.192 197.967 269.209 197.954 269.189L193.914 278.285L188.362 274.512C188.462 274.709 188.581 274.852 188.745 274.981L193.952 278.515ZM188.217 273.858L191.549 266.353C191.645 266.117 191.711 265.879 191.69 265.632L188.357 273.137C188.262 273.373 188.212 273.594 188.217 273.858ZM186.468 261.475L191.522 264.901C191.436 264.723 191.3 264.598 191.135 264.469L186.954 261.633C186.785 261.542 186.627 261.508 186.468 261.475ZM181.968 270.453C181.968 270.453 181.984 270.436 182.004 270.381L185.843 261.699C185.7 261.817 185.566 261.993 185.474 262.192L181.898 270.258C181.878 270.313 181.878 270.313 181.875 270.35C181.884 270.407 181.897 270.427 181.897 270.427C181.939 270.45 181.952 270.47 181.968 270.453C181.952 270.47 181.952 270.47 181.968 270.453Z" fill="white"/>
<path d="M203.952 253.27C204.285 253.489 204.474 253.827 204.562 254.306C204.65 254.785 204.596 255.213 204.408 255.647L200.868 263.641C200.756 263.895 200.604 263.956 200.41 263.825C200.216 263.694 200.175 263.502 200.29 263.211L204.145 254.512L200.158 251.806C199.783 251.564 199.39 251.509 198.919 251.672C198.464 251.818 198.121 252.182 197.881 252.706L195.835 257.298C195.726 257.514 195.59 257.558 195.396 257.427C195.189 257.276 195.132 257.101 195.244 256.848L197.29 252.255C197.53 251.731 197.582 251.171 197.442 250.612C197.303 250.053 197.075 249.655 196.7 249.413L192.796 246.753L188.868 255.596C188.756 255.85 188.604 255.911 188.381 255.777C188.187 255.646 188.146 255.454 188.261 255.163L191.82 247.115C192.008 246.68 192.282 246.423 192.65 246.269C193.001 246.132 193.351 246.165 193.697 246.404L196.939 248.588C197.271 248.807 197.526 249.076 197.732 249.396C197.938 249.717 198.11 250.241 198.219 250.967C198.843 250.742 199.337 250.657 199.674 250.669C200.012 250.682 200.297 250.783 200.546 250.957L203.952 253.27Z" fill="white"/>
<path d="M204.657 255.821L201.117 263.815C200.93 264.25 200.595 264.369 200.262 264.15C199.929 263.931 199.837 263.489 200.041 263.037L203.765 254.646L200.026 252.114C199.722 251.897 199.385 251.885 198.992 251.999C198.611 252.133 198.333 252.427 198.133 252.842L196.087 257.435C195.939 257.76 195.652 257.997 195.251 257.715C194.822 257.43 194.834 256.979 194.982 256.654L197.028 252.061C197.232 251.61 197.273 251.161 197.153 250.717C197.049 250.256 196.843 249.935 196.539 249.719L192.884 247.232L189.104 255.75C188.917 256.185 188.565 256.322 188.22 256.082C187.887 255.863 187.795 255.421 187.999 254.97L191.559 246.921C191.782 246.414 192.109 246.068 192.551 245.902C192.994 245.736 193.402 245.774 193.803 246.056L197.044 248.24C197.39 248.48 197.7 248.791 197.918 249.131C198.111 249.432 198.274 249.899 198.41 250.495C198.94 250.337 199.359 250.263 199.68 250.293C200.059 250.328 200.39 250.415 200.652 250.609L204.058 252.922C204.446 253.184 204.699 253.622 204.809 254.178C204.945 254.774 204.897 255.297 204.657 255.821ZM200.6 263.522C200.6 263.522 200.616 263.505 200.619 263.467L204.159 255.473C204.251 255.275 204.301 255.053 204.306 254.847L200.526 263.365C200.506 263.419 200.49 263.437 200.503 263.457C200.503 263.457 200.516 263.477 200.545 263.479C200.57 263.519 200.587 263.502 200.6 263.522ZM195.615 257.127L197.661 252.534C197.941 251.901 198.345 251.506 198.879 251.311C199.396 251.133 199.892 251.179 200.322 251.464L204.2 254.084C204.117 253.869 203.985 253.706 203.804 253.595L200.398 251.282C200.204 251.151 199.948 251.052 199.64 251.042C199.332 251.033 198.883 251.104 198.288 251.331L197.999 251.436L197.93 251.072C197.83 250.403 197.683 249.919 197.503 249.639C197.323 249.358 197.081 249.11 196.791 248.913L193.549 246.729C193.41 246.641 193.255 246.57 193.109 246.556L196.848 249.088C197.278 249.373 197.57 249.871 197.732 250.507C197.877 251.161 197.818 251.796 197.538 252.429L195.492 257.022C195.476 257.039 195.476 257.039 195.489 257.059C195.489 257.059 195.515 257.099 195.557 257.122C195.602 257.107 195.602 257.107 195.615 257.127ZM188.6 255.477C188.6 255.477 188.616 255.46 188.62 255.423L192.472 246.761C192.312 246.897 192.194 247.055 192.086 247.271L188.526 255.32C188.506 255.374 188.49 255.392 188.503 255.412C188.503 255.412 188.516 255.432 188.545 255.435C188.571 255.475 188.6 255.477 188.6 255.477Z" fill="white"/>
<path d="M210.17 241.796C210.364 241.927 210.405 242.119 210.293 242.372C210.197 242.608 210.045 242.67 209.838 242.518L205.614 239.659L202.578 246.514L194.838 241.256C194.754 241.211 194.706 241.093 194.674 240.959C194.659 240.807 194.669 240.695 194.725 240.568C194.777 240.479 194.843 240.409 194.934 240.38C195.025 240.351 195.125 240.379 195.251 240.447L202.342 245.249L205.007 239.226L199.37 235.407C199.177 235.276 199.135 235.084 199.231 234.848C199.283 234.759 199.349 234.689 199.427 234.64C199.518 234.611 199.622 234.602 199.69 234.665L205.326 238.484C205.457 238.176 205.582 237.943 205.671 237.781C205.759 237.62 205.841 237.534 205.903 237.502C205.965 237.47 206.01 237.455 206.052 237.478C206.094 237.501 206.107 237.521 206.136 237.523C206.275 237.612 206.34 237.712 206.329 237.824C206.332 237.956 206.272 238.12 206.193 238.338L205.95 238.899L210.17 241.796Z" fill="white"/>
<path d="M210.542 242.546C210.354 242.981 210.036 243.083 209.703 242.864L205.744 240.161L202.708 247.015L194.719 241.584C194.609 241.499 194.461 241.353 194.417 241.029C194.38 240.799 194.413 240.595 194.505 240.397C194.561 240.27 194.679 240.112 194.894 240.019C195.06 239.978 195.235 239.994 195.399 240.122L202.241 244.75L204.626 239.36L199.239 235.715C198.906 235.496 198.811 235.091 198.999 234.657C199.074 234.476 199.189 234.354 199.358 234.276C199.527 234.198 199.702 234.214 199.854 234.322L205.241 237.967C205.317 237.786 205.402 237.662 205.471 237.556C205.592 237.36 205.706 237.239 205.817 237.155C206.006 237.022 206.149 237.073 206.233 237.118L206.317 237.164C206.595 237.34 206.645 237.589 206.657 237.779C206.669 237.968 206.603 238.207 206.475 238.477L206.379 238.713L210.338 241.416C210.651 241.69 210.746 242.094 210.542 242.546ZM210.041 242.236C210.057 242.219 210.077 242.164 210.064 242.144C210.064 242.144 210.051 242.124 210.022 242.121L205.562 239.108L205.954 238.222C206.013 238.058 206.049 237.986 206.069 237.931C206.069 237.931 206.056 237.911 206.027 237.909C206.011 237.926 205.962 237.978 205.925 238.05C205.84 238.174 205.732 238.39 205.6 238.698L205.452 239.023L199.584 235.013C199.571 234.992 199.571 234.992 199.555 235.01C199.493 235.042 199.506 235.062 199.506 235.062C199.506 235.062 199.518 235.082 199.548 235.084L205.433 239.077L202.456 245.768L195.116 240.793C195.074 240.77 195.032 240.747 195.003 240.744C194.987 240.762 194.97 240.779 194.976 240.874C194.973 240.911 194.986 240.931 194.986 240.931L202.477 246.015L205.513 239.16L209.973 242.173C210.012 242.233 210.028 242.216 210.041 242.236Z" fill="white"/>
<path d="M223.93 208.257C224.262 208.476 224.452 208.814 224.556 209.276C224.648 209.717 224.606 210.165 224.406 210.58L222.076 215.843C221.873 216.295 221.617 216.667 221.33 216.904L220.031 218.214C219.917 218.335 219.78 218.379 219.628 218.271C219.434 218.14 219.377 217.965 219.472 217.729C219.528 217.602 219.659 217.464 219.819 217.328L220.906 216.243C221.2 215.931 221.386 215.666 221.482 215.43L224.143 209.444L218.743 205.779L215.707 212.634L209.13 208.162L212.334 200.928C212.374 200.819 212.468 200.752 212.559 200.723C212.65 200.694 212.751 200.722 212.822 200.747C212.877 200.79 212.928 200.87 212.98 200.95C213.028 201.068 213.017 201.18 212.945 201.324L210.077 207.798L215.435 211.441L217.8 206.106C217.968 205.726 218.245 205.432 218.626 205.297C218.993 205.143 219.344 205.176 219.677 205.395L223.93 208.257Z" fill="white"/>
<path d="M224.671 210.736L222.342 216C222.118 216.506 221.83 216.912 221.494 217.201L220.211 218.494C220.028 218.722 219.745 218.752 219.496 218.579C219.096 218.297 219.092 217.863 219.24 217.538C219.316 217.357 219.466 217.163 219.688 216.996L220.758 215.928C221.069 215.599 221.193 215.366 221.249 215.239L223.763 209.579L218.86 206.261L215.811 213.095L208.72 208.294L212.072 200.734C212.165 200.535 212.311 200.38 212.506 200.341C212.672 200.3 212.831 200.334 212.957 200.402C213.054 200.467 213.16 200.59 213.218 200.765C213.266 200.883 213.345 201.135 213.194 201.497L210.473 207.647L215.334 210.942L217.551 205.932C217.771 205.463 218.098 205.117 218.54 204.951C218.999 204.767 219.407 204.805 219.795 205.067L224.045 207.967C224.433 208.229 224.69 208.629 224.8 209.185C224.946 209.67 224.881 210.21 224.671 210.736ZM219.737 217.885C219.75 217.905 219.75 217.905 219.792 217.928C219.834 217.951 219.864 217.954 219.864 217.954L219.896 217.919L221.196 216.609C221.483 216.372 221.689 216.052 221.873 215.655L224.202 210.391C224.294 210.193 224.328 209.989 224.362 209.785L221.792 215.572C221.681 215.825 221.461 216.125 221.164 216.474L220.061 217.576C219.793 217.759 219.741 217.848 219.737 217.885ZM219.059 205.545L224.143 208.974C224.056 208.796 223.933 208.691 223.782 208.582L219.532 205.683C219.364 205.592 219.221 205.541 219.059 205.545ZM215.609 212.097L218.405 205.767C218.262 205.885 218.144 206.044 218.052 206.242L215.539 211.903L209.696 207.932L212.713 201.132C212.729 201.115 212.716 201.095 212.716 201.095C212.69 201.055 212.677 201.035 212.677 201.035C212.677 201.035 212.648 201.032 212.603 201.047L209.53 207.974L215.609 212.097Z" fill="white"/>
<path d="M231.401 193.906C231.469 193.969 231.52 194.049 231.539 194.163C231.571 194.298 231.56 194.41 231.524 194.482L227.485 203.578C227.356 203.849 227.187 203.927 226.98 203.776L215.017 195.66C214.949 195.597 214.898 195.517 214.862 195.419C214.844 195.305 214.841 195.173 214.913 195.029L215.413 193.926C215.486 193.782 215.58 193.716 215.713 193.709C215.846 193.703 215.947 193.731 216.014 193.794C216.069 193.837 216.092 193.914 216.094 194.046C216.096 194.178 216.014 194.434 215.833 194.794L215.702 195.102L222.556 199.75L226.444 191.016C226.48 190.944 226.546 190.875 226.637 190.846C226.744 190.799 226.844 190.827 226.954 190.913L231.401 193.906ZM230.758 194.486L226.867 191.846L223.163 200.183L227.054 202.823L230.758 194.486Z" fill="white"/>
<path d="M231.786 194.676L227.747 203.772C227.543 204.224 227.191 204.361 226.846 204.122L214.882 196.005C214.743 195.917 214.653 195.777 214.599 195.564C214.554 195.41 214.546 195.183 214.678 194.875L215.178 193.773C215.306 193.502 215.495 193.369 215.732 193.354C215.907 193.37 216.037 193.401 216.163 193.469C216.247 193.514 216.392 193.697 216.39 194.036C216.392 194.168 216.342 194.389 216.115 194.933L222.485 199.254L226.225 190.845C226.284 190.681 226.428 190.563 226.597 190.484C226.721 190.42 226.912 190.419 227.135 190.553L231.579 193.583C231.676 193.649 231.795 193.792 231.858 194.061C231.892 194.328 231.842 194.549 231.786 194.676ZM227.213 203.497C227.213 203.497 227.229 203.48 227.249 203.425L231.289 194.329C231.289 194.329 231.289 194.329 231.279 194.271C231.266 194.251 231.27 194.214 231.27 194.214L226.839 191.203C226.797 191.181 226.755 191.158 226.739 191.175C226.722 191.193 226.71 191.173 226.693 191.19L222.69 200.214L215.338 195.219L215.617 194.586C215.749 194.278 215.808 194.114 215.828 194.059C215.799 194.057 215.77 194.054 215.741 194.051L215.224 195.171C215.205 195.225 215.201 195.263 215.201 195.263C215.214 195.283 215.21 195.32 215.227 195.303L227.191 203.419C227.184 203.494 227.213 203.497 227.213 203.497ZM231.155 194.335L227.168 203.342L222.78 200.354L226.767 191.347L231.155 194.335ZM226.967 202.344L230.375 194.658L226.981 192.365L223.573 200.052L226.967 202.344Z" fill="white"/>
<path d="M234.346 187.25C234.553 187.401 234.594 187.593 234.482 187.846C234.426 187.973 234.344 188.059 234.237 188.106C234.129 188.153 234.042 188.144 233.961 188.062L229.598 185.114C229.447 185.006 229.357 184.866 229.341 184.713L228.436 178.302L224.364 175.551L220.735 183.707C220.957 184.01 221.128 184.233 221.189 184.37C221.25 184.508 221.252 184.64 221.212 184.749C221.084 185.02 220.931 185.081 220.737 184.95L220.017 184.468C219.933 184.423 219.885 184.305 219.853 184.171C219.821 184.036 219.848 183.907 219.888 183.797L224.124 174.324L228.888 177.553C228.985 177.619 229.062 177.739 229.119 177.914L230.028 184.288L234.346 187.25Z" fill="white"/>
<path d="M234.747 188.003C234.655 188.201 234.508 188.357 234.339 188.435C234.169 188.514 233.994 188.498 233.842 188.389L229.48 185.442C229.244 185.288 229.102 185.068 229.068 184.801L228.191 178.562L224.493 176.053L221.125 183.63C221.296 183.853 221.411 184.033 221.472 184.17C221.632 184.505 221.563 184.781 221.507 184.908C221.303 185.36 220.964 185.517 220.635 185.26L219.914 184.779C219.762 184.671 219.647 184.49 219.609 184.261C219.572 184.031 219.605 183.827 219.681 183.646L224.036 173.845L229.049 177.248C229.2 177.356 229.329 177.557 229.409 177.809L229.418 177.866L230.312 184.088L234.507 186.945C234.827 187.144 234.934 187.568 234.747 188.003ZM220.404 183.789L224.276 175.072L228.706 178.082L229.643 184.628C229.653 184.686 229.708 184.729 229.763 184.771L234.125 187.719C234.138 187.739 234.155 187.722 234.184 187.724C234.2 187.707 234.229 187.71 234.249 187.655C234.266 187.638 234.269 187.6 234.269 187.6C234.269 187.6 234.256 187.58 234.214 187.558L229.783 184.547L228.843 178.039C228.833 177.981 228.795 177.921 228.753 177.899L224.238 174.843L220.166 183.974C220.149 183.991 220.146 184.028 220.155 184.086C220.165 184.143 220.165 184.143 220.181 184.126L220.902 184.607C220.915 184.627 220.944 184.63 220.944 184.63C220.944 184.63 220.96 184.612 220.964 184.575L220.951 184.555C220.912 184.495 220.826 184.317 220.536 183.952L220.404 183.789Z" fill="white"/>
<path d="M241.509 168.614C241.842 168.833 242.032 169.171 242.12 169.65C242.207 170.129 242.153 170.557 241.969 170.954L238.933 177.809C238.745 178.243 238.484 178.52 238.116 178.674C237.748 178.829 237.415 178.779 237.095 178.579L232.816 175.677C232.677 175.589 232.57 175.466 232.464 175.343C232.345 175.2 232.258 175.023 232.221 174.793C232.17 174.544 232.182 174.263 232.229 173.909C232.277 173.556 232.435 173.119 232.662 172.575L227.013 168.736C226.82 168.605 226.779 168.413 226.894 168.122L228.907 163.564C228.947 163.455 229.041 163.388 229.149 163.341C229.256 163.295 229.356 163.323 229.441 163.369L235.077 167.188C235.284 166.699 235.494 166.341 235.693 166.096C235.893 165.851 236.085 165.681 236.271 165.585C236.456 165.489 236.635 165.468 236.79 165.539C236.962 165.593 237.117 165.664 237.24 165.769L241.509 168.614ZM241.726 169.764L236.326 166.099L232.619 174.473L238.019 178.138L241.726 169.764ZM234.708 167.982L229.35 164.339L227.656 168.155L233.014 171.798L234.708 167.982Z" fill="white"/>
<path d="M242.234 171.111L239.198 177.965C238.974 178.472 238.631 178.835 238.202 179.021C237.772 179.207 237.334 179.167 236.947 178.905L232.668 176.003C232.516 175.894 232.38 175.769 232.248 175.606C232.103 175.423 231.995 175.168 231.919 174.879C231.859 174.572 231.861 174.233 231.928 173.825C231.972 173.509 232.094 173.144 232.253 172.706L226.853 169.041C226.52 168.822 226.428 168.38 226.632 167.928L228.646 163.37C228.738 163.172 228.885 163.016 229.067 162.957C229.249 162.899 229.408 162.933 229.547 163.021L234.934 166.666C235.114 166.306 235.288 166.021 235.455 165.811C235.687 165.531 235.912 165.326 236.143 165.216C236.391 165.088 236.628 165.072 236.841 165.149C237.026 165.222 237.21 165.296 237.362 165.404L241.612 168.304C242 168.566 242.253 169.003 242.363 169.56C242.49 170.099 242.441 170.622 242.234 171.111ZM238.36 178.113C238.503 177.995 238.608 177.816 238.7 177.618L241.736 170.763C241.829 170.565 241.875 170.381 241.88 170.174L238.36 178.113ZM232.538 174.861C232.561 174.938 232.599 174.998 232.638 175.058C232.731 175.161 232.825 175.264 232.935 175.35L237.213 178.252C237.378 178.38 237.55 178.434 237.728 178.413L232.538 174.861ZM236.571 165.839L241.71 169.311C241.623 169.133 241.517 169.01 241.365 168.902L237.115 166.003C237.005 165.917 236.863 165.866 236.72 165.815C236.659 165.847 236.629 165.845 236.571 165.839ZM237.902 177.657L241.329 169.916L236.427 166.598L233.015 174.321L237.902 177.657ZM232.478 174.083L235.942 166.27C235.926 166.288 235.91 166.305 235.877 166.34C235.694 166.567 235.517 166.89 235.313 167.342L235.165 167.667L229.28 163.674C229.267 163.654 229.238 163.651 229.192 163.666C229.147 163.68 229.147 163.68 229.16 163.7L227.146 168.259C227.126 168.313 227.11 168.331 227.123 168.351C227.123 168.351 227.136 168.371 227.165 168.373L233.063 172.386L232.915 172.711C232.691 173.218 232.565 173.621 232.505 173.954C232.489 173.971 232.485 174.009 232.478 174.083ZM235.105 167.831L233.115 172.297L227.272 168.327L229.262 163.861L235.105 167.831ZM232.897 171.316L234.295 168.151L229.435 164.856L228.037 168.021L232.897 171.316Z" fill="white"/>
<path d="M252.477 146.416C252.671 146.547 252.712 146.739 252.617 146.975L252.097 148.131C252.025 148.275 251.943 148.362 251.856 148.354C251.752 148.363 251.681 148.338 251.626 148.295C251.587 148.235 251.549 148.175 251.523 148.135C251.497 148.095 251.471 148.055 251.478 147.98C251.485 147.905 251.509 147.813 251.568 147.649C251.627 147.485 251.719 147.287 251.851 146.979L244.955 142.308L241.099 151.007C241.043 151.134 240.962 151.221 240.858 151.23C240.767 151.259 240.666 151.231 240.582 151.185L236.139 148.155C236.042 148.089 235.977 147.989 235.975 147.857C235.956 147.742 235.983 147.613 236.022 147.504L240.062 138.407C240.098 138.336 240.163 138.266 240.254 138.237C240.346 138.208 240.449 138.199 240.546 138.264L252.477 146.416ZM244.334 141.855L240.485 139.238L236.778 147.612L240.627 150.229L244.334 141.855Z" fill="white"/>
<path d="M252.866 147.148L252.346 148.305C252.195 148.668 251.954 148.721 251.85 148.73C251.688 148.734 251.588 148.705 251.478 148.62L251.423 148.577L251.384 148.517C251.346 148.457 251.32 148.417 251.32 148.417C251.227 148.314 251.182 148.159 251.17 147.97C251.181 147.858 251.211 147.691 251.303 147.493C251.343 147.383 251.382 147.274 251.454 147.13L245.043 142.787L241.319 151.178C241.223 151.414 241.063 151.55 240.869 151.588C240.703 151.629 240.544 151.596 240.405 151.508L235.962 148.477C235.78 148.366 235.681 148.169 235.66 147.922C235.635 147.712 235.669 147.508 235.745 147.327L239.784 138.231C239.856 138.087 239.971 137.966 240.14 137.887C240.264 137.823 240.442 137.802 240.665 137.936L252.642 146.073C252.942 146.327 253.037 146.731 252.866 147.148ZM251.829 148.012L251.845 147.995L252.365 146.838C252.381 146.821 252.381 146.821 252.368 146.801C252.368 146.801 252.355 146.781 252.326 146.778L240.337 138.621C240.295 138.598 240.295 138.598 240.278 138.616C240.233 138.63 240.233 138.63 240.233 138.63L236.226 147.692C236.21 147.709 236.206 147.747 236.215 147.804C236.215 147.804 236.228 147.824 236.241 147.844L240.685 150.874C240.698 150.895 240.727 150.897 240.772 150.883C240.772 150.883 240.789 150.865 240.805 150.848L244.808 141.824L252.202 146.842L252.054 147.167C251.939 147.458 251.831 147.673 251.788 147.82C251.768 147.875 251.748 147.929 251.745 147.967C251.757 147.987 251.757 147.987 251.77 148.007C251.8 148.009 251.816 147.992 251.829 148.012ZM244.731 141.703L240.728 150.728L236.381 147.763L240.385 138.739L244.731 141.703ZM240.51 149.747L243.938 142.006L240.586 139.736L237.158 147.477L240.51 149.747Z" fill="white"/>
<path d="M258.321 130.896C258.612 131.093 258.805 131.393 258.896 131.835C259.004 132.259 258.95 132.687 258.762 133.121L255.65 140.157C255.462 140.592 255.188 140.849 254.824 140.965C254.46 141.082 254.155 141.035 253.877 140.859L243.52 133.833C243.229 133.636 243.052 133.319 242.961 132.877C242.869 132.435 242.908 132.025 243.062 131.625L246.207 124.554C246.359 124.192 246.616 123.952 246.968 123.815C247.319 123.678 247.64 123.708 247.918 123.885L258.321 130.896ZM258.5 131.986L247.16 124.285L243.436 132.676L254.776 140.377L258.5 131.986Z" fill="white"/>
<path d="M259.011 133.295L255.902 140.294C255.679 140.8 255.323 141.144 254.897 141.292C254.471 141.441 254.079 141.386 253.733 141.147L243.375 134.121C243.029 133.881 242.785 133.501 242.675 132.944C242.548 132.405 242.597 131.883 242.817 131.414L245.962 124.343C246.149 123.909 246.473 123.6 246.902 123.414C247.344 123.248 247.724 123.283 248.086 123.505L258.456 130.551C258.802 130.79 259.046 131.171 259.16 131.69C259.287 132.229 259.238 132.751 259.011 133.295ZM255.081 140.424C255.208 140.323 255.325 140.165 255.418 139.966L258.53 132.93C258.622 132.732 258.655 132.528 258.673 132.341L255.081 140.424ZM243.339 133.082C243.426 133.259 243.529 133.419 243.668 133.508L254.025 140.534C254.177 140.642 254.336 140.675 254.515 140.654L243.339 133.082ZM247.43 124.065L258.467 131.55C258.389 131.43 258.283 131.307 258.173 131.221L247.803 124.175C247.677 124.107 247.563 124.059 247.43 124.065ZM254.659 139.896L258.103 132.137L247.26 124.784L243.816 132.542L254.659 139.896ZM243.207 132.448L246.839 124.255C246.666 124.371 246.535 124.509 246.459 124.691L243.315 131.761C243.236 131.98 243.186 132.201 243.207 132.448Z" fill="white"/>
<path d="M265.702 116.574C265.896 116.705 265.937 116.897 265.822 117.187L261.778 126.321C261.667 126.574 261.514 126.636 261.291 126.502C261.11 126.391 261.069 126.199 261.197 125.928L263.059 121.733L251.689 114.029L249.847 118.17C249.719 118.44 249.55 118.519 249.343 118.368C249.149 118.237 249.112 118.007 249.24 117.737L251.434 112.819L263.411 120.955L265.085 117.194L260.903 114.358C260.835 114.295 260.784 114.215 260.765 114.1C260.746 113.985 260.757 113.873 260.796 113.764C260.849 113.675 260.914 113.606 261.005 113.576C261.112 113.53 261.2 113.538 261.281 113.621L265.702 116.574Z" fill="white"/>
<path d="M266.071 117.361L262.028 126.495C261.84 126.93 261.489 127.066 261.143 126.827C260.81 126.608 260.744 126.206 260.932 125.772L262.646 121.901L251.791 114.528L250.096 118.344C249.893 118.796 249.541 118.932 249.195 118.693C248.863 118.474 248.771 118.032 248.991 117.563L251.32 112.3L263.297 120.437L264.675 117.326L260.73 114.643C260.633 114.578 260.513 114.435 260.45 114.165C260.425 113.956 260.443 113.769 260.519 113.588C260.574 113.461 260.692 113.303 260.907 113.21C261.076 113.131 261.251 113.147 261.403 113.256L265.847 116.286C266.196 116.488 266.274 116.91 266.071 117.361ZM261.497 126.182C261.497 126.182 261.514 126.165 261.517 126.128L265.56 116.994C265.58 116.939 265.596 116.922 265.583 116.902C265.583 116.902 265.571 116.882 265.541 116.879L261.098 113.849C261.085 113.829 261.069 113.846 261.039 113.843C261.01 113.841 260.994 113.858 260.994 113.858C260.994 113.858 260.99 113.895 261.003 113.915L265.447 116.946L263.493 121.34L251.516 113.203L249.47 117.796C249.434 117.868 249.431 117.905 249.431 117.905C249.431 117.905 249.443 117.925 249.473 117.928C249.515 117.951 249.544 117.953 249.544 117.953C249.544 117.953 249.56 117.936 249.58 117.881L251.57 113.415L263.437 121.466L261.427 125.987C261.411 126.005 261.407 126.042 261.407 126.042L261.42 126.062C261.468 126.179 261.497 126.182 261.497 126.182Z" fill="white"/>
<path d="M271.724 102.145C271.76 102.073 271.826 102.003 271.917 101.974C272.008 101.945 272.112 101.936 272.208 102.001C272.39 102.112 272.431 102.304 272.319 102.558L268.072 112.143L262.63 108.455C262.297 108.236 262.094 107.878 262.003 107.436C261.899 106.975 261.94 106.527 262.141 106.112L265.529 98.4806L260.184 94.858L256.256 103.701C256.128 103.972 255.959 104.05 255.752 103.899C255.697 103.856 255.645 103.776 255.614 103.641C255.582 103.507 255.593 103.395 255.649 103.268L259.224 95.202C259.412 94.7675 259.686 94.5105 260.054 94.3563C260.405 94.2195 260.755 94.252 261.088 94.4713L265.27 97.3079C265.603 97.5271 265.834 97.8876 265.926 98.3292C266.03 98.7908 265.976 99.2189 265.804 99.636L262.416 107.268L267.816 110.933L271.724 102.145Z" fill="white"/>
<path d="M272.571 102.694L268.176 112.605L262.485 108.743C262.097 108.481 261.827 108.06 261.717 107.504C261.607 106.948 261.643 106.405 261.883 105.881L265.123 98.5746L260.292 95.2823L256.512 103.8C256.308 104.252 255.957 104.389 255.611 104.15C255.501 104.064 255.411 103.924 255.344 103.692C255.278 103.46 255.315 103.218 255.394 103L258.97 94.9335C259.193 94.427 259.536 94.0634 259.979 93.8974C260.421 93.7313 260.842 93.7893 261.23 94.0514L265.412 96.8879C265.813 97.17 266.083 97.5905 266.209 98.1295C266.336 98.6686 266.284 99.2286 266.06 99.7351L262.82 107.042L267.722 110.359L271.482 101.896C271.555 101.752 271.669 101.631 271.838 101.553C271.962 101.489 272.14 101.468 272.363 101.601C272.677 101.875 272.755 102.297 272.571 102.694ZM267.958 111.624L272.073 102.346C272.09 102.329 272.09 102.329 272.077 102.309L272.064 102.289C272.022 102.266 272.022 102.266 272.006 102.284C271.989 102.301 271.973 102.318 271.96 102.298L267.921 111.395L262.369 107.621C262.468 107.819 262.587 107.961 262.752 108.09L267.958 111.624ZM262.236 106.987L265.568 99.4823C265.664 99.2463 265.73 99.0077 265.709 98.7609L262.377 106.266C262.268 106.482 262.231 106.723 262.236 106.987ZM260.471 94.621L265.525 98.0471C265.439 97.8696 265.303 97.744 265.138 97.6157L260.957 94.7791C260.805 94.6709 260.633 94.6173 260.471 94.621ZM255.971 103.599C255.971 103.599 255.987 103.582 256.007 103.527L259.846 94.8455C259.703 94.9639 259.569 95.1398 259.477 95.3384L255.901 103.404C255.881 103.459 255.881 103.459 255.878 103.496C255.887 103.554 255.9 103.574 255.9 103.574C255.942 103.597 255.958 103.579 255.971 103.599Z" fill="white"/>
<path d="M285.81 68.7299C286.143 68.9492 286.333 69.2869 286.421 69.7659C286.509 70.2448 286.454 70.6728 286.267 71.1073L282.727 79.1015C282.615 79.3547 282.462 79.4159 282.268 79.2849C282.074 79.1539 282.033 78.9617 282.149 78.6712L286.004 69.972L282.016 67.2664C281.641 67.0244 281.249 66.9691 280.777 67.1324C280.322 67.2784 279.979 67.642 279.739 68.1658L277.726 72.724C277.618 72.9399 277.481 72.9837 277.287 72.8527C277.08 72.7016 277.023 72.5268 277.135 72.2736L279.181 67.6808C279.421 67.157 279.473 66.5969 279.333 66.0379C279.194 65.4788 278.966 65.081 278.591 64.8391L274.687 62.1789L270.76 71.0221C270.648 71.2753 270.495 71.3364 270.272 71.2027C270.078 71.0717 270.037 70.8796 270.152 70.589L273.712 62.5402C273.899 62.1057 274.173 61.8487 274.541 61.6946C274.892 61.5578 275.242 61.5903 275.588 61.8296L278.83 64.0138C279.163 64.2331 279.417 64.5016 279.623 64.822C279.829 65.1424 280.001 65.6668 280.11 66.3925C280.735 66.1681 281.228 66.0821 281.566 66.0947C281.903 66.1072 282.188 66.209 282.437 66.3828L285.81 68.7299Z" fill="white"/>
<path d="M286.519 71.2438L282.979 79.238C282.792 79.6725 282.457 79.792 282.124 79.5728C281.791 79.3535 281.699 78.9119 281.903 78.4601L285.627 70.0688L281.888 67.5369C281.584 67.3204 281.247 67.3079 280.854 67.422C280.473 67.5561 280.196 67.8504 279.995 68.2649L277.949 72.8577C277.801 73.1829 277.514 73.4199 277.113 73.1378C276.684 72.8531 276.696 72.4023 276.844 72.0771L278.89 67.4843C279.094 67.0325 279.136 66.5844 279.015 66.1401C278.911 65.6785 278.705 65.3581 278.401 65.1416L274.746 62.6552L270.966 71.1731C270.779 71.6076 270.428 71.7445 270.082 71.5052C269.749 71.286 269.657 70.8444 269.861 70.3925L273.421 62.3437C273.645 61.8373 273.971 61.491 274.413 61.325C274.856 61.159 275.264 61.1969 275.665 61.4789L278.907 63.6632C279.252 63.9025 279.562 64.2138 279.781 64.5542C279.973 64.8546 280.136 65.3216 280.272 65.918C280.802 65.7601 281.221 65.6861 281.542 65.7159C281.921 65.7512 282.252 65.8384 282.514 66.0322L285.92 68.3447C286.308 68.6067 286.561 69.0446 286.672 69.6009C286.807 70.1973 286.743 70.7374 286.519 71.2438ZM282.462 78.9451C282.462 78.9451 282.478 78.9278 282.482 78.8904L286.021 70.8963C286.113 70.6977 286.163 70.4764 286.168 70.2697L282.388 78.7876C282.368 78.8423 282.352 78.8596 282.365 78.8796C282.365 78.8796 282.378 78.8996 282.407 78.9023C282.433 78.9424 282.445 78.9624 282.462 78.9451ZM277.477 72.5503L279.523 67.9574C279.803 67.3244 280.208 66.9289 280.741 66.7336C281.258 66.5557 281.754 66.6018 282.184 66.8866L286.062 69.5066C285.979 69.2918 285.847 69.1289 285.666 69.0179L282.26 66.7053C282.066 66.5743 281.81 66.4752 281.502 66.4654C281.194 66.4556 280.745 66.5269 280.15 66.754L279.861 66.859L279.792 66.4948C279.692 65.8264 279.545 65.342 279.365 65.0617C279.185 64.7813 278.943 64.5329 278.653 64.3364L275.411 62.1521C275.272 62.0638 275.117 61.9929 274.971 61.9794L278.71 64.5112C279.14 64.7959 279.432 65.2939 279.594 65.9303C279.739 66.584 279.68 67.2188 279.4 67.8519L277.354 72.4447C277.338 72.462 277.338 72.462 277.351 72.482C277.351 72.482 277.377 72.5221 277.419 72.5448C277.448 72.5475 277.461 72.5676 277.477 72.5503ZM270.462 70.9003C270.462 70.9003 270.478 70.883 270.482 70.8456L274.334 62.1838C274.174 62.3196 274.056 62.4781 273.948 62.694L270.388 70.7428C270.368 70.7975 270.352 70.8148 270.365 70.8348C270.365 70.8348 270.378 70.8548 270.407 70.8575C270.433 70.8976 270.446 70.9176 270.462 70.9003C270.475 70.9203 270.475 70.9203 270.462 70.9003Z" fill="white"/>
<path d="M292.032 57.2189C292.226 57.3499 292.267 57.542 292.155 57.7952C292.06 58.0311 291.907 58.0923 291.7 57.9412L287.476 55.0819L284.44 61.9365L276.7 56.6791C276.616 56.6336 276.568 56.5162 276.536 56.3814C276.521 56.2293 276.531 56.1173 276.587 55.9907C276.64 55.9014 276.705 55.8322 276.796 55.803C276.887 55.7738 276.987 55.8019 277.113 55.8702L284.204 60.6718L286.869 54.6488L281.232 50.8297C281.039 50.6987 280.998 50.5066 281.093 50.2707C281.146 50.1814 281.211 50.1122 281.289 50.0629C281.38 50.0337 281.484 50.0245 281.552 50.0873L287.188 53.9065C287.319 53.5986 287.444 53.3654 287.533 53.2041C287.621 53.0429 287.703 52.9563 287.765 52.9244C287.827 52.8925 287.872 52.8779 287.914 52.9006C287.956 52.9234 287.969 52.9434 287.998 52.9461C288.137 53.0343 288.202 53.1345 288.191 53.2465C288.194 53.3785 288.134 53.5425 288.055 53.7611L287.812 54.3222L292.032 57.2189Z" fill="white"/>
<path d="M292.417 57.989C292.229 58.4235 291.911 58.5258 291.578 58.3065L287.619 55.6036L284.583 62.4582L276.594 57.027C276.484 56.9415 276.336 56.7959 276.292 56.4717C276.255 56.2423 276.288 56.0383 276.38 55.8397C276.436 55.7131 276.554 55.5545 276.769 55.4615C276.935 55.4204 277.11 55.4367 277.274 55.565L284.116 60.1929L286.501 54.803L281.114 51.1576C280.781 50.9384 280.686 50.5342 280.874 50.0996C280.949 49.9184 281.064 49.7972 281.233 49.7188C281.402 49.6403 281.577 49.6566 281.729 49.7649L287.116 53.4102C287.192 53.229 287.277 53.1051 287.346 52.9985C287.467 52.8026 287.581 52.6814 287.692 52.5975C287.881 52.4645 288.024 52.5154 288.108 52.5608L288.192 52.6063C288.47 52.7828 288.52 53.0323 288.532 53.2217C288.544 53.4111 288.478 53.6497 288.35 53.9203L288.254 54.1562L292.213 56.8591C292.513 57.1129 292.604 57.5545 292.417 57.989ZM291.903 57.6588C291.919 57.6415 291.939 57.5869 291.926 57.5668C291.926 57.5668 291.913 57.5468 291.884 57.5441L287.424 54.531L287.816 53.6447C287.875 53.4807 287.911 53.4088 287.931 53.3541C287.931 53.3541 287.918 53.3341 287.889 53.3314C287.873 53.3487 287.824 53.4007 287.788 53.4726C287.703 53.5965 287.594 53.8124 287.462 54.1203L287.314 54.4455L281.43 50.4526C281.417 50.4326 281.417 50.4326 281.4 50.4499C281.339 50.4818 281.351 50.5019 281.351 50.5019C281.351 50.5019 281.364 50.5218 281.393 50.5246L287.278 54.5175L284.318 61.1908L276.979 56.2154C276.936 56.1926 276.894 56.1699 276.865 56.1672C276.849 56.1845 276.833 56.2018 276.838 56.2965C276.835 56.3339 276.848 56.3539 276.848 56.3539L284.339 61.4376L287.375 54.583L291.835 57.596C291.874 57.6561 291.887 57.6761 291.903 57.6588Z" fill="white"/>
<path d="M297.936 41.3662C298.269 41.5854 298.458 41.9231 298.563 42.3847C298.654 42.8263 298.612 43.2744 298.412 43.6889L296.083 48.9521C295.879 49.4039 295.624 49.7757 295.337 50.0126L294.037 51.323C293.923 51.4442 293.786 51.488 293.634 51.3797C293.441 51.2487 293.383 51.0739 293.479 50.838C293.535 50.7114 293.665 50.5729 293.825 50.4371L294.912 49.3518C295.206 49.0401 295.393 48.775 295.488 48.5391L298.149 42.5535L292.749 38.8881L289.713 45.7427L283.136 41.2713L286.341 34.0368C286.38 33.9275 286.475 33.861 286.566 33.8318C286.657 33.8026 286.757 33.8308 286.828 33.8562C286.883 33.899 286.935 33.9791 286.986 34.0592C287.034 34.1766 287.024 34.2886 286.951 34.4326L284.083 40.9073L289.441 44.55L291.806 39.2148C291.974 38.8349 292.252 38.5406 292.632 38.4065C293 38.2523 293.35 38.2849 293.683 38.5041L297.936 41.3662Z" fill="white"/>
<path d="M298.677 43.8453L296.348 49.1086C296.124 49.615 295.836 50.0214 295.5 50.3103L294.217 51.6033C294.034 51.8311 293.752 51.8613 293.503 51.6876C293.102 51.4055 293.098 50.9721 293.246 50.6469C293.322 50.4656 293.472 50.2724 293.694 50.1047L294.765 49.0367C295.075 48.7078 295.2 48.4746 295.256 48.348L297.769 42.6876L292.866 39.3697L289.83 46.2243L282.74 41.4227L286.092 33.863C286.184 33.6645 286.331 33.5086 286.526 33.4703C286.691 33.4292 286.85 33.4628 286.976 33.531C287.073 33.5965 287.18 33.7193 287.237 33.8941C287.285 34.0116 287.365 34.2638 287.213 34.6263L284.493 40.7759L289.353 44.071L291.57 39.061C291.791 38.5918 292.117 38.2456 292.559 38.0796C293.018 37.8962 293.427 37.9342 293.815 38.1962L298.064 41.0956C298.452 41.3576 298.709 41.7581 298.819 42.3144C298.949 42.8161 298.901 43.3388 298.677 43.8453ZM293.728 51.0117C293.74 51.0318 293.74 51.0318 293.782 51.0545C293.825 51.0772 293.854 51.0799 293.854 51.0799L293.886 51.0453L295.186 49.7349C295.473 49.498 295.679 49.1782 295.863 48.781L298.192 43.5178C298.284 43.3192 298.318 43.1152 298.352 42.9112L295.783 48.6982C295.671 48.9515 295.451 49.2512 295.154 49.6002L294.051 50.7028C293.813 50.8878 293.76 50.9771 293.728 51.0117ZM293.078 38.6739L298.146 42.12C298.059 41.9425 297.936 41.8369 297.784 41.7287L293.535 38.8293C293.383 38.721 293.241 38.6701 293.078 38.6739ZM289.612 45.2437L292.408 38.9129C292.265 39.0314 292.147 39.1899 292.055 39.3885L289.542 45.0489L283.699 41.0787L286.716 34.2788C286.732 34.2615 286.719 34.2414 286.719 34.2414C286.693 34.2014 286.68 34.1814 286.68 34.1814C286.68 34.1814 286.651 34.1787 286.606 34.1933L283.517 41.1372L289.612 45.2437Z" fill="white"/>
<path d="M305.421 27.0346C305.489 27.0973 305.54 27.1775 305.559 27.2922C305.59 27.4269 305.58 27.5389 305.544 27.6109L301.504 36.7073C301.376 36.9778 301.207 37.0563 301 36.9052L289.036 28.7885C288.969 28.7257 288.917 28.6456 288.882 28.5482C288.863 28.4334 288.861 28.3014 288.933 28.1575L289.433 27.0552C289.505 26.9113 289.6 26.8448 289.733 26.8383C289.866 26.8319 289.966 26.86 290.034 26.9228C290.089 26.9656 290.111 27.043 290.114 27.175C290.116 27.307 290.033 27.563 289.853 27.9228L289.721 28.2307L296.576 32.8786L300.464 24.1448C300.5 24.0728 300.565 24.0035 300.656 23.9743C300.764 23.9278 300.864 23.956 300.974 24.0415L305.421 27.0346ZM304.778 27.6151L300.887 24.975L297.183 33.3117L301.074 35.9517L304.778 27.6151Z" fill="white"/>
<path d="M305.793 27.785L301.753 36.8813C301.549 37.3332 301.198 37.47 300.852 37.2307L288.888 29.114C288.749 29.0257 288.659 28.8856 288.605 28.6734C288.561 28.5186 288.552 28.2919 288.684 27.984L289.184 26.8818C289.312 26.6112 289.501 26.4782 289.738 26.4625C289.913 26.4788 290.043 26.5096 290.169 26.5779C290.253 26.6233 290.398 26.8063 290.396 27.145C290.398 27.2771 290.348 27.4984 290.121 28.0422L296.491 32.3626L300.215 23.9713C300.274 23.8073 300.418 23.6889 300.587 23.6104C300.711 23.5466 300.902 23.5456 301.125 23.6793L305.569 26.7097C305.666 26.7752 305.785 26.918 305.848 27.1876C305.911 27.4571 305.848 27.6584 305.793 27.785ZM301.232 36.6258C301.232 36.6258 301.248 36.6085 301.268 36.5538L305.308 27.4575C305.308 27.4575 305.308 27.4575 305.298 27.4001C305.285 27.3801 305.289 27.3427 305.289 27.3427L300.858 24.3324C300.816 24.3096 300.774 24.2869 300.758 24.3042C300.742 24.3215 300.729 24.3015 300.712 24.3188L296.709 33.3432L289.357 28.3478L289.636 27.7147C289.768 27.4068 289.828 27.2429 289.847 27.1882C289.818 27.1855 289.789 27.1828 289.76 27.1801L289.244 28.2996C289.224 28.3543 289.22 28.3916 289.22 28.3916C289.233 28.4116 289.23 28.449 289.246 28.4317L301.21 36.5484C301.203 36.6231 301.232 36.6258 301.232 36.6258ZM305.175 27.4639L301.188 36.471L296.799 33.4834L300.786 24.4763L305.175 27.4639ZM300.973 35.4531L304.381 27.7668L300.988 25.4742L297.58 33.1605L300.973 35.4531Z" fill="white"/>
<path d="M200.189 299.94L195.568 298.983L195.735 298.603L198.205 299.115C198.869 299.252 199.446 299.381 199.948 299.522L199.965 299.505C199.594 299.056 199.192 298.473 198.764 297.849L197.117 295.455L197.285 295.075L200.328 299.557L200.189 299.94Z" fill="white"/>
<path d="M202.182 295.436L201.762 295.209L201.745 295.226C201.877 295.559 201.958 296.112 201.698 296.691C201.366 297.413 200.83 297.476 200.468 297.254C199.831 296.819 199.775 295.834 200.427 294.369L200.343 294.324C200.065 294.148 199.489 293.849 199.13 294.701C198.998 295.009 198.905 295.377 198.929 295.756L198.679 295.751C198.646 295.315 198.762 294.855 198.91 294.53C199.374 293.5 200.048 293.694 200.546 294.042L201.625 294.782C201.832 294.933 202.084 295.07 202.31 295.166L202.182 295.436ZM200.679 294.506C200.314 295.263 199.947 296.359 200.61 296.834C200.998 297.096 201.327 296.882 201.494 296.502C201.771 295.907 201.615 295.365 201.422 295.065C201.383 295.004 201.316 294.942 201.274 294.919L200.679 294.506Z" fill="white"/>
<path d="M198.746 291.238L198.897 290.876L202.982 293.647L202.831 294.009L198.746 291.238Z" fill="white"/>
<path d="M200.2 289.528C200.339 289.616 200.396 289.791 200.304 289.989C200.245 290.153 200.079 290.194 199.94 290.106C199.801 290.018 199.76 289.826 199.836 289.645C199.895 289.481 200.061 289.44 200.2 289.528ZM203.525 292.398L200.768 290.541L200.92 290.178L203.676 292.035L203.525 292.398Z" fill="white"/>
<path d="M201.427 285.198L204.875 287.533C205.069 287.664 205.334 287.821 205.528 287.952L205.38 288.277L204.837 287.944L204.82 287.961C205.048 288.359 205.139 288.97 204.826 289.638C204.435 290.524 203.57 290.801 202.752 290.255C201.838 289.642 201.575 288.507 201.967 287.621C202.246 286.988 202.663 286.781 202.971 286.791L202.988 286.774L201.242 285.595L201.427 285.198ZM203.67 287.195C203.586 287.15 203.489 287.084 203.401 287.076C202.97 286.961 202.479 287.179 202.219 287.757C201.867 288.534 202.17 289.391 202.891 289.872C203.515 290.288 204.268 290.264 204.639 289.432C204.863 288.925 204.822 288.263 204.438 287.794C204.387 287.714 204.319 287.651 204.235 287.605L203.67 287.195Z" fill="white"/>
<path d="M203.402 281.992L202.675 283.638L202.439 283.484L204.074 279.832L204.31 279.986L203.583 281.632L207.225 284.098L207.074 284.461L203.402 281.992Z" fill="white"/>
<path d="M204.075 279.192L204.226 278.83L206.039 280.071L206.056 280.054C205.943 279.836 205.88 279.567 205.875 279.303C205.87 279.039 205.927 278.743 206.026 278.47C206.19 278.127 206.708 277.309 207.733 278.007L209.394 279.14L209.242 279.503L207.607 278.409C207.109 278.062 206.538 278.028 206.219 278.77C205.995 279.276 206.086 279.887 206.359 280.271C206.424 280.371 206.491 280.433 206.617 280.502L208.308 281.638L208.156 282L204.075 279.192Z" fill="white"/>
<path d="M208.007 276.639C207.729 276.462 207.438 276.266 207.173 276.109L207.321 275.784L207.89 276.157L207.906 276.14C207.62 275.737 207.509 275.18 207.746 274.694C207.766 274.639 207.798 274.604 207.818 274.55L208.08 274.744C208.047 274.778 208.027 274.833 207.991 274.905C207.767 275.411 207.936 275.973 208.339 276.387C208.407 276.45 208.488 276.533 208.585 276.598L210.107 277.644L209.955 278.006L208.007 276.639Z" fill="white"/>
<path d="M211.481 272.518C211.73 272.691 211.953 272.825 212.163 272.939L212.015 273.264L211.514 272.954L211.498 272.971C211.671 273.326 211.79 273.94 211.494 274.59C211.29 275.042 210.774 275.691 209.749 274.993L208.143 273.902L208.295 273.54L209.846 274.588C210.441 275.001 210.995 275.052 211.298 274.327C211.538 273.803 211.415 273.227 211.196 272.887C211.132 272.786 211.039 272.684 210.929 272.598L209.213 271.422L209.364 271.059L211.481 272.518Z" fill="white"/>
<path d="M203.661 302.183L203.651 303.237L203.392 303.175L203.386 301.969L203.534 301.644L207.273 304.176L207.109 304.519L203.661 302.183Z" fill="white"/>
<path d="M208.112 302.277L207.931 302.166L207.789 301.475C207.376 299.422 207.109 298.493 206.46 298.037C206.03 297.752 205.505 297.703 205.149 298.518C204.945 298.97 204.959 299.46 205.018 299.767L204.781 299.783C204.706 299.324 204.742 298.781 204.966 298.275C205.413 297.262 206.159 297.312 206.602 297.617C207.336 298.118 207.618 299.199 207.989 301.06L208.116 301.599L208.129 301.619L209.191 299.214L209.427 299.367L208.112 302.277Z" fill="white"/>
<path d="M209.766 299.211L206.66 293.988L206.811 293.626L209.901 298.865L209.766 299.211Z" fill="white"/>
<path d="M210.905 295.983L210.724 295.872L210.582 295.181C210.169 293.128 209.902 292.199 209.253 291.744C208.823 291.459 208.297 291.41 207.942 292.224C207.738 292.676 207.751 293.167 207.811 293.474L207.574 293.489C207.499 293.031 207.535 292.488 207.759 291.981C208.206 290.968 208.952 291.019 209.395 291.324C210.128 291.825 210.411 292.906 210.782 294.767L210.909 295.306L210.922 295.326L211.984 292.92L212.22 293.074L210.905 295.983Z" fill="white"/>
<path d="M213.438 290.268L212.33 289.525L211.303 291.859L211.122 291.748L209.732 287.702L209.863 287.394L212.258 289.029L212.593 288.269L212.829 288.423L212.494 289.183L213.602 289.926L213.438 290.268ZM212.123 289.374L210.614 288.349C210.433 288.238 210.268 288.109 210.103 287.981L210.087 287.999C210.221 288.293 210.308 288.471 210.391 288.686L211.271 291.253L211.284 291.273L212.123 289.374Z" fill="white"/>
<path d="M294.946 147.669L294.63 148.374L284.931 148.358L292.187 153.288C292.326 153.376 292.357 153.511 292.269 153.672C292.209 153.836 292.089 153.863 291.95 153.774L284.21 148.517L284.526 147.812L294.322 147.894L286.983 142.918C286.928 142.876 286.889 142.815 286.867 142.738C286.845 142.661 286.852 142.586 286.888 142.514C286.907 142.459 286.953 142.445 287.015 142.413C287.077 142.381 287.148 142.406 287.219 142.432L294.946 147.669Z" fill="white"/>
<path d="M298.792 138.442C298.834 138.465 298.873 138.525 298.898 138.565C298.921 138.642 298.917 138.679 298.897 138.734C298.825 138.878 298.747 138.927 298.617 138.896L296.602 138.408L294.835 142.367C295.173 142.851 295.447 143.234 295.659 143.48C295.856 143.743 296.014 143.946 296.133 144.089C296.239 144.211 296.303 144.312 296.326 144.389C296.351 144.429 296.344 144.504 296.341 144.541C296.282 144.705 296.161 144.732 296.022 144.643L295.925 144.578L289.733 136.602C289.624 136.516 289.621 136.384 289.697 136.203C289.753 136.076 289.802 136.025 289.873 136.05L298.711 138.359L298.792 138.442ZM296.142 138.29L290.592 136.87L294.52 141.962L296.142 138.29Z" fill="white"/>
<path d="M302.838 129.271C302.881 129.294 302.919 129.354 302.941 129.431C302.964 129.509 302.957 129.583 302.937 129.638C302.901 129.71 302.852 129.762 302.793 129.756C302.719 129.768 302.66 129.763 302.618 129.74L295.03 124.591L296.446 128.677L296.863 128.942C296.905 128.964 296.944 129.025 296.966 129.102C296.988 129.179 296.982 129.254 296.962 129.309C296.926 129.381 296.893 129.415 296.831 129.447C296.769 129.479 296.711 129.474 296.656 129.431L296.268 129.169L292.643 129.849L300.286 135.041C300.328 135.063 300.366 135.124 300.389 135.201C300.411 135.278 300.404 135.353 300.368 135.425C300.292 135.606 300.185 135.653 300.062 135.547L292.322 130.29L292.786 129.26L295.963 128.651L294.684 124.992L295.128 124.016L302.838 129.271Z" fill="white"/>
<path d="M306.753 119.937C306.789 119.865 306.838 119.813 306.884 119.798C306.946 119.767 307.004 119.772 307.059 119.815C307.101 119.837 307.127 119.878 307.133 119.972C307.155 120.05 307.148 120.124 307.112 120.196L304.447 126.219L296.513 120.831L299.178 114.808C299.198 114.753 299.243 114.739 299.321 114.689C299.383 114.657 299.458 114.646 299.513 114.688C299.555 114.711 299.564 114.768 299.599 114.866C299.605 114.961 299.598 115.035 299.579 115.09L297.138 120.606L300.502 122.896L301.676 120.237C301.696 120.183 301.729 120.148 301.803 120.136C301.865 120.104 301.924 120.11 301.979 120.152C302.033 120.195 302.072 120.255 302.081 120.313C302.104 120.39 302.097 120.465 302.077 120.519L300.903 123.178L304.296 125.471L306.753 119.937Z" fill="white"/>
<path d="M312.938 105.974C313.141 105.523 313.085 105.178 312.752 104.959C312.642 104.874 312.48 104.877 312.285 104.916L304.717 106.679C304.477 106.732 304.23 106.691 304.024 106.54C303.8 106.406 303.633 106.145 303.548 105.799C303.462 105.452 303.493 105.116 303.629 104.77L305.287 101.027C305.346 100.863 305.477 100.724 305.607 100.586C305.751 100.467 305.907 100.369 306.06 100.308C306.213 100.246 306.391 100.225 306.583 100.224C306.758 100.241 306.917 100.274 307.069 100.382C307.166 100.448 307.188 100.525 307.161 100.655C307.134 100.784 307.127 100.859 307.124 100.896C306.929 100.934 306.754 100.918 306.608 100.905C306.462 100.891 306.332 100.86 306.229 100.869C306.125 100.878 306.017 100.925 305.923 100.992C305.828 101.058 305.74 101.219 305.631 101.435L304.065 104.98C303.937 105.251 303.904 105.455 303.961 105.63C304.005 105.785 304.095 105.925 304.247 106.033C304.302 106.076 304.373 106.101 304.461 106.109C304.549 106.118 304.652 106.108 304.743 106.079L312.282 104.313C312.539 104.243 312.785 104.284 312.992 104.435C313.102 104.521 313.196 104.624 313.286 104.764C313.359 104.921 313.42 105.059 313.452 105.194C313.496 105.348 313.511 105.501 313.498 105.65C313.484 105.799 313.457 105.929 313.417 106.038L311.72 109.891C311.628 110.09 311.506 110.285 311.363 110.404C311.22 110.522 311.063 110.621 310.91 110.682C310.745 110.723 310.579 110.764 310.42 110.731C310.261 110.697 310.132 110.666 310.005 110.598C309.854 110.49 309.809 110.335 309.885 110.154C309.905 110.099 309.954 110.047 310.012 110.052C310.074 110.021 310.116 110.043 310.145 110.046C310.352 110.197 310.585 110.219 310.829 110.128C311.073 110.038 311.253 109.848 311.384 109.54L312.938 105.974Z" fill="white"/>
<path d="M316.697 94.8183C316.878 94.9293 317.023 95.1122 317.139 95.2924C317.268 95.4927 317.322 95.7048 317.388 95.937C317.426 96.1665 317.447 96.4132 317.439 96.6573C317.431 96.9014 317.365 97.14 317.256 97.3559L315.954 100.285C315.858 100.521 315.708 100.714 315.561 100.87C315.398 101.043 315.228 101.122 315.043 101.218C314.861 101.276 314.666 101.314 314.474 101.315C314.27 101.296 314.086 101.223 313.921 101.094L307.496 96.7313C307.441 96.6885 307.403 96.6285 307.381 96.5511C307.358 96.4737 307.365 96.399 307.401 96.327C307.474 96.1831 307.565 96.1539 307.704 96.2422L314.128 100.605C314.377 100.779 314.656 100.786 314.933 100.661C315.209 100.536 315.421 100.311 315.553 100.003L316.856 97.0738C316.987 96.766 317.019 96.4299 316.962 96.0857C316.893 95.7215 316.755 95.4639 316.506 95.2901L310.053 90.9243C309.985 90.8615 309.93 90.8187 309.924 90.724C309.902 90.6466 309.922 90.592 309.941 90.5373C309.961 90.4827 310.007 90.4681 310.068 90.4361C310.13 90.4042 310.202 90.4297 310.273 90.4551L316.697 94.8183Z" fill="white"/>
<path d="M321.806 86.1037C321.909 86.0945 321.968 86.0999 322.01 86.1227C322.052 86.1454 322.091 86.2055 322.113 86.2829C322.135 86.3603 322.128 86.4349 322.076 86.5242C322.036 86.6335 321.958 86.6828 321.857 86.6546L315.7 87.0239L314.917 88.7965L319.444 91.8724C319.486 91.8951 319.525 91.9552 319.547 92.0326C319.569 92.11 319.562 92.1846 319.526 92.2566C319.451 92.4379 319.343 92.4844 319.221 92.3788L311.481 87.1214L313.527 82.5286C313.635 82.3127 313.756 82.1168 313.916 81.981C314.079 81.8079 314.249 81.7294 314.434 81.6337C314.616 81.5753 314.811 81.5369 315.015 81.5559C315.22 81.5749 315.391 81.6285 315.572 81.7395L316.196 82.1553C316.377 82.2662 316.522 82.4492 316.638 82.6294C316.754 82.8096 316.837 83.0245 316.887 83.274C316.925 83.5034 316.946 83.7502 316.938 83.9943C316.914 84.2556 316.864 84.4769 316.752 84.7302L315.989 86.4481L321.806 86.1037ZM316.335 84.4655C316.407 84.3215 316.437 84.1549 316.455 83.9682C316.472 83.7815 316.457 83.6294 316.428 83.4573C316.4 83.2852 316.339 83.1478 316.266 82.9903C316.192 82.8328 316.099 82.7299 315.96 82.6417L315.323 82.2059C315.074 82.0321 314.795 82.0251 314.519 82.15C314.242 82.2749 314.03 82.5 313.898 82.8079L312.076 86.8942L314.512 88.5518L316.335 84.4655Z" fill="white"/>
<path d="M326.342 76.8843L326.026 77.5893L316.327 77.573L323.583 82.503C323.722 82.5912 323.753 82.726 323.665 82.8872C323.605 83.0512 323.485 83.0776 323.346 82.9894L315.606 77.7319L315.922 77.0269L325.718 77.1087L318.379 72.1333C318.324 72.0905 318.285 72.0305 318.263 71.9531C318.241 71.8757 318.248 71.801 318.284 71.729C318.303 71.6744 318.349 71.6598 318.411 71.6279C318.473 71.5959 318.544 71.6214 318.615 71.6468L326.342 76.8843Z" fill="white"/>
<path d="M330.188 67.6567C330.23 67.6795 330.269 67.7396 330.294 67.7796C330.317 67.857 330.313 67.8943 330.293 67.949C330.221 68.0929 330.143 68.1421 330.013 68.1113L327.998 67.6227L326.231 71.5824C326.569 72.0657 326.843 72.4489 327.055 72.6947C327.252 72.9577 327.41 73.1607 327.529 73.3036C327.635 73.4264 327.699 73.5266 327.722 73.604C327.747 73.644 327.74 73.7187 327.737 73.756C327.678 73.92 327.557 73.9465 327.418 73.8582L327.321 73.7927L321.129 65.8169C321.02 65.7314 321.017 65.5993 321.093 65.4181C321.149 65.2915 321.198 65.2395 321.269 65.265L330.107 67.5739L330.188 67.6567ZM327.521 67.5219L321.971 66.1023L325.9 71.1938L327.521 67.5219Z" fill="white"/>
<path d="M334.231 58.523C334.273 58.5458 334.311 58.6059 334.334 58.6833C334.356 58.7606 334.349 58.8353 334.329 58.89C334.293 58.9619 334.244 59.0139 334.186 59.0084C334.111 59.0203 334.053 59.0149 334.011 58.9922L326.423 53.843L327.839 57.929L328.256 58.1937C328.298 58.2165 328.336 58.2766 328.359 58.3539C328.381 58.4313 328.374 58.506 328.354 58.5607C328.318 58.6326 328.285 58.6672 328.223 58.6992C328.162 58.7311 328.103 58.7257 328.048 58.6829L327.66 58.4209L324.035 59.1008L331.678 64.2928C331.72 64.3155 331.759 64.3756 331.781 64.453C331.803 64.5303 331.796 64.605 331.76 64.677C331.684 64.8583 331.577 64.9048 331.454 64.7992L323.714 59.5418L324.178 58.5115L327.355 57.9029L326.076 54.2439L326.52 53.2683L334.231 58.523Z" fill="white"/>
<path d="M338.133 49.1692C338.169 49.0972 338.218 49.0452 338.263 49.0306C338.325 48.9987 338.383 49.0042 338.438 49.0469C338.48 49.0697 338.506 49.1097 338.512 49.2044C338.534 49.2818 338.527 49.3565 338.491 49.4284L335.826 55.4514L327.893 50.0629L330.557 44.04C330.577 43.9854 330.623 43.9707 330.701 43.9215C330.763 43.8896 330.837 43.8777 330.892 43.9205C330.934 43.9432 330.944 44.0006 330.979 44.098C330.985 44.1927 330.978 44.2674 330.958 44.322L328.517 49.8385L331.881 52.1284L333.056 49.4694C333.075 49.4148 333.108 49.3801 333.183 49.3683C333.245 49.3363 333.303 49.3418 333.358 49.3845C333.413 49.4273 333.451 49.4874 333.461 49.5447C333.483 49.6221 333.476 49.6968 333.456 49.7514L332.282 52.4104L335.675 54.7029L338.133 49.1692Z" fill="white"/>
</g>
<defs>
<filter id="filter0_d_767_1683" x="23.4794" y="-106.44" width="352.531" height="481.24" filterUnits="userSpaceOnUse" color-interpolation-filters="sRGB">
<feFlood flood-opacity="0" result="BackgroundImageFix"/>
<feColorMatrix in="SourceAlpha" type="matrix" values="0 0 0 0 0 0 0 0 0 0 0 0 0 0 0 0 0 0 127 0" result="hardAlpha"/>
<feOffset dx="-11.9092" dy="-2.48109"/>
<feGaussianBlur stdDeviation="14.8865"/>
<feComposite in2="hardAlpha" operator="out"/>
<feColorMatrix type="matrix" values="0 0 0 0 0 0 0 0 0 0 0 0 0 0 0 0 0 0 0.4 0"/>
<feBlend mode="normal" in2="BackgroundImageFix" result="effect1_dropShadow_767_1683"/>
<feBlend mode="normal" in="SourceGraphic" in2="effect1_dropShadow_767_1683" result="shape"/>
</filter>
<radialGradient id="paint0_radial_767_1683" cx="0" cy="0" r="1" gradientUnits="userSpaceOnUse" gradientTransform="translate(220.551 -132.168) rotate(-56.7569) scale(421.047 375.107)">
<stop stop-color="#80FFFF"/>
<stop offset="0.0779373" stop-color="#80F5F6"/>
<stop offset="0.7102" stop-color="#80A5AF"/>
<stop offset="1" stop-color="#808593"/>
</radialGradient>
<linearGradient id="paint1_linear_767_1683" x1="183.669" y1="222.709" x2="134.171" y2="241.451" gradientUnits="userSpaceOnUse">
<stop stop-color="#DCC080"/>
<stop offset="1" stop-color="#EDDDB8"/>
</linearGradient>
</defs>
</svg>
