<svg width="360" height="303" viewBox="0 0 360 303" fill="none" xmlns="http://www.w3.org/2000/svg">
<rect y="26" width="337" height="277" rx="16" fill="white"/>
<path d="M272.318 187.909V201H270.337V189.891H270.26L267.128 191.936V190.044L270.394 187.909H272.318ZM281.906 187.909V201H279.924V189.891H279.848L276.716 191.936V190.044L279.982 187.909H281.906ZM291.539 187.295L287.32 202.969H285.613L289.832 187.295H291.539ZM294.217 201V199.568L298.646 194.979C299.119 194.48 299.509 194.043 299.816 193.668C300.127 193.289 300.359 192.929 300.513 192.588C300.666 192.247 300.743 191.885 300.743 191.501C300.743 191.067 300.641 190.692 300.436 190.376C300.231 190.057 299.952 189.812 299.599 189.641C299.245 189.467 298.846 189.379 298.403 189.379C297.935 189.379 297.525 189.475 297.176 189.667C296.827 189.859 296.558 190.129 296.371 190.479C296.183 190.828 296.089 191.237 296.089 191.706H294.204C294.204 190.909 294.387 190.212 294.753 189.616C295.12 189.019 295.623 188.557 296.262 188.229C296.901 187.896 297.628 187.73 298.442 187.73C299.264 187.73 299.989 187.894 300.615 188.222C301.246 188.546 301.738 188.989 302.092 189.552C302.445 190.11 302.622 190.741 302.622 191.444C302.622 191.93 302.53 192.405 302.347 192.869C302.168 193.334 301.855 193.852 301.408 194.423C300.96 194.989 300.338 195.678 299.541 196.487L296.94 199.21V199.306H302.833V201H294.217ZM305.779 198.443V196.845L311.436 187.909H312.696V190.261H311.897L307.85 196.666V196.768H315.604V198.443H305.779ZM311.986 201V197.957L311.999 197.229V187.909H313.872V201H311.986Z" fill="#191C1F"/>
<rect opacity="0.2" x="18.5645" y="180" width="38" height="8" rx="4" fill="#191C1F"/>
<rect opacity="0.2" x="18.5645" y="196" width="52" height="12" rx="6" fill="#191C1F"/>
<rect opacity="0.2" x="88.6975" y="180" width="38" height="8" rx="4" fill="#191C1F"/>
<rect opacity="0.2" x="88.6975" y="196" width="52" height="12" rx="6" fill="#191C1F"/>
<path d="M22.9047 154.139C22.2815 154.139 21.7214 154.02 21.2243 153.781C20.7304 153.539 20.336 153.208 20.041 152.787C19.746 152.366 19.5886 151.885 19.5687 151.345H21.0602C21.0967 151.783 21.2905 152.142 21.6419 152.424C21.9932 152.706 22.4141 152.847 22.9047 152.847C23.2958 152.847 23.6421 152.757 23.9437 152.578C24.2486 152.396 24.4873 152.146 24.6596 151.827C24.8353 151.509 24.9231 151.146 24.9231 150.739C24.9231 150.324 24.8336 149.955 24.6547 149.63C24.4757 149.305 24.2288 149.05 23.9139 148.864C23.6023 148.679 23.2444 148.584 22.84 148.581C22.5318 148.581 22.2219 148.634 21.9103 148.74C21.5988 148.846 21.3469 148.985 21.1547 149.158L19.7477 148.949L20.3194 143.818H25.9174V145.136H21.5971L21.274 147.984H21.3336C21.5325 147.792 21.796 147.631 22.1241 147.502C22.4556 147.373 22.8102 147.308 23.188 147.308C23.8078 147.308 24.3597 147.456 24.8436 147.751C25.3308 148.046 25.7136 148.448 25.992 148.959C26.2737 149.466 26.4129 150.049 26.4096 150.709C26.4129 151.368 26.2638 151.957 25.9622 152.474C25.6639 152.991 25.2496 153.398 24.7193 153.697C24.1923 153.992 23.5874 154.139 22.9047 154.139ZM32.4512 143.679C32.9052 143.682 33.3527 143.765 33.7935 143.928C34.2343 144.09 34.632 144.355 34.9867 144.723C35.3446 145.091 35.6297 145.588 35.8418 146.214C36.0572 146.838 36.1666 147.613 36.1699 148.541C36.1699 149.433 36.0804 150.227 35.9014 150.923C35.7225 151.615 35.4656 152.2 35.1308 152.678C34.7994 153.155 34.3967 153.518 33.9227 153.766C33.4488 154.015 32.9152 154.139 32.3219 154.139C31.7154 154.139 31.1768 154.02 30.7061 153.781C30.2355 153.543 29.8527 153.213 29.5577 152.792C29.2627 152.368 29.0788 151.88 29.0058 151.33H30.5222C30.6216 151.768 30.8238 152.122 31.1287 152.394C31.4369 152.663 31.8347 152.797 32.3219 152.797C33.0676 152.797 33.6493 152.472 34.0669 151.822C34.4845 151.17 34.695 150.258 34.6983 149.088H34.6188C34.4464 149.373 34.231 149.618 33.9725 149.824C33.7172 150.029 33.4306 150.188 33.1124 150.301C32.7942 150.414 32.4545 150.47 32.0932 150.47C31.5065 150.47 30.9729 150.326 30.4923 150.038C30.0118 149.749 29.6289 149.353 29.3439 148.849C29.0589 148.346 28.9163 147.771 28.9163 147.124C28.9163 146.481 29.0622 145.898 29.3538 145.374C29.6488 144.851 30.0598 144.436 30.5868 144.131C31.1171 143.823 31.7386 143.672 32.4512 143.679ZM32.4561 144.972C32.0683 144.972 31.7187 145.068 31.4071 145.26C31.0989 145.449 30.8553 145.706 30.6763 146.031C30.4973 146.352 30.4078 146.71 30.4078 147.104C30.4078 147.499 30.494 147.857 30.6663 148.178C30.842 148.496 31.0806 148.75 31.3823 148.939C31.6872 149.125 32.0352 149.217 32.4263 149.217C32.718 149.217 32.9897 149.161 33.2416 149.048C33.4935 148.936 33.7139 148.78 33.9029 148.581C34.0918 148.379 34.2393 148.15 34.3453 147.895C34.4514 147.64 34.5044 147.371 34.5044 147.089C34.5044 146.715 34.4149 146.367 34.236 146.045C34.0603 145.724 33.8183 145.465 33.5101 145.27C33.2019 145.071 32.8505 144.972 32.4561 144.972ZM42.1915 143.679C42.6456 143.682 43.0931 143.765 43.5339 143.928C43.9747 144.09 44.3724 144.355 44.7271 144.723C45.085 145.091 45.37 145.588 45.5822 146.214C45.7976 146.838 45.907 147.613 45.9103 148.541C45.9103 149.433 45.8208 150.227 45.6418 150.923C45.4628 151.615 45.206 152.2 44.8712 152.678C44.5398 153.155 44.1371 153.518 43.6631 153.766C43.1892 154.015 42.6556 154.139 42.0623 154.139C41.4557 154.139 40.9172 154.02 40.4465 153.781C39.9759 153.543 39.5931 153.213 39.2981 152.792C39.0031 152.368 38.8191 151.88 38.7462 151.33H40.2626C40.362 151.768 40.5642 152.122 40.8691 152.394C41.1773 152.663 41.5751 152.797 42.0623 152.797C42.808 152.797 43.3897 152.472 43.8073 151.822C44.2249 151.17 44.4354 150.258 44.4387 149.088H44.3592C44.1868 149.373 43.9714 149.618 43.7128 149.824C43.4576 150.029 43.1709 150.188 42.8528 150.301C42.5346 150.414 42.1949 150.47 41.8336 150.47C41.2469 150.47 40.7133 150.326 40.2327 150.038C39.7521 149.749 39.3693 149.353 39.0843 148.849C38.7993 148.346 38.6567 147.771 38.6567 147.124C38.6567 146.481 38.8026 145.898 39.0942 145.374C39.3892 144.851 39.8002 144.436 40.3272 144.131C40.8575 143.823 41.4789 143.672 42.1915 143.679ZM42.1965 144.972C41.8087 144.972 41.4591 145.068 41.1475 145.26C40.8393 145.449 40.5957 145.706 40.4167 146.031C40.2377 146.352 40.1482 146.71 40.1482 147.104C40.1482 147.499 40.2344 147.857 40.4067 148.178C40.5824 148.496 40.821 148.75 41.1226 148.939C41.4276 149.125 41.7756 149.217 42.1667 149.217C42.4584 149.217 42.7301 149.161 42.982 149.048C43.2339 148.936 43.4543 148.78 43.6432 148.581C43.8322 148.379 43.9797 148.15 44.0857 147.895C44.1918 147.64 44.2448 147.371 44.2448 147.089C44.2448 146.715 44.1553 146.367 43.9763 146.045C43.8007 145.724 43.5587 145.465 43.2505 145.27C42.9423 145.071 42.5909 144.972 42.1965 144.972ZM51.9071 154.139C51.284 154.139 50.7238 154.02 50.2267 153.781C49.7328 153.539 49.3384 153.208 49.0434 152.787C48.7485 152.366 48.591 151.885 48.5711 151.345H50.0626C50.0991 151.783 50.293 152.142 50.6443 152.424C50.9956 152.706 51.4165 152.847 51.9071 152.847C52.2982 152.847 52.6445 152.757 52.9461 152.578C53.2511 152.396 53.4897 152.146 53.662 151.827C53.8377 151.509 53.9255 151.146 53.9255 150.739C53.9255 150.324 53.8361 149.955 53.6571 149.63C53.4781 149.305 53.2312 149.05 52.9163 148.864C52.6048 148.679 52.2468 148.584 51.8424 148.581C51.5342 148.581 51.2243 148.634 50.9128 148.74C50.6012 148.846 50.3493 148.985 50.1571 149.158L48.7501 148.949L49.3218 143.818H54.9199V145.136H50.5995L50.2764 147.984H50.3361C50.5349 147.792 50.7984 147.631 51.1265 147.502C51.458 147.373 51.8126 147.308 52.1905 147.308C52.8102 147.308 53.3621 147.456 53.846 147.751C54.3332 148.046 54.716 148.448 54.9944 148.959C55.2762 149.466 55.4154 150.049 55.412 150.709C55.4154 151.368 55.2662 151.957 54.9646 152.474C54.6663 152.991 54.252 153.398 53.7217 153.697C53.1947 153.992 52.5898 154.139 51.9071 154.139Z" fill="#191C1F"/>
<path d="M69.8869 154L74.3315 145.21V145.136H69.1909V143.818H75.9224V145.18L71.4927 154H69.8869ZM77.4572 152.011V150.768L81.857 143.818H82.8364V145.648H82.215L79.068 150.629V150.709H85.0985V152.011H77.4572ZM82.2846 154V151.634L82.2945 151.067V143.818H83.7512V154H82.2846ZM88.0142 154L92.4588 145.21V145.136H87.3181V143.818H94.0497V145.18L89.62 154H88.0142ZM95.5845 152.011V150.768L99.9843 143.818H100.964V145.648H100.342L97.1952 150.629V150.709H103.226V152.011H95.5845ZM100.412 154V151.634L100.422 151.067V143.818H101.878V154H100.412Z" fill="#191C1F"/>
<path d="M121.407 143.818V154H119.866V145.359H119.806L117.37 146.95V145.479L119.91 143.818H121.407ZM128.864 143.818V154H127.323V145.359H127.263L124.827 146.95V145.479L127.368 143.818H128.864ZM136.003 154.169C135.217 154.166 134.546 153.959 133.989 153.548C133.433 153.137 133.007 152.538 132.712 151.753C132.417 150.967 132.269 150.021 132.269 148.914C132.269 147.81 132.417 146.867 132.712 146.085C133.01 145.303 133.438 144.706 133.994 144.295C134.555 143.884 135.224 143.679 136.003 143.679C136.782 143.679 137.45 143.886 138.007 144.3C138.563 144.711 138.989 145.308 139.284 146.09C139.583 146.869 139.732 147.81 139.732 148.914C139.732 150.024 139.584 150.972 139.289 151.758C138.994 152.54 138.568 153.138 138.011 153.553C137.455 153.964 136.785 154.169 136.003 154.169ZM136.003 152.842C136.692 152.842 137.231 152.505 137.619 151.832C138.01 151.16 138.205 150.187 138.205 148.914C138.205 148.069 138.116 147.355 137.937 146.771C137.761 146.185 137.508 145.741 137.176 145.439C136.848 145.134 136.457 144.982 136.003 144.982C135.317 144.982 134.778 145.32 134.387 145.996C133.996 146.672 133.799 147.645 133.796 148.914C133.796 149.763 133.883 150.48 134.059 151.067C134.238 151.65 134.492 152.093 134.82 152.394C135.148 152.692 135.542 152.842 136.003 152.842ZM145.88 154.139C145.197 154.139 144.587 154.022 144.051 153.786C143.517 153.551 143.094 153.224 142.783 152.807C142.475 152.386 142.309 151.899 142.286 151.345H143.847C143.867 151.647 143.968 151.909 144.15 152.131C144.336 152.349 144.578 152.518 144.876 152.638C145.174 152.757 145.506 152.817 145.87 152.817C146.271 152.817 146.626 152.747 146.934 152.608C147.246 152.469 147.489 152.275 147.665 152.026C147.841 151.774 147.928 151.484 147.928 151.156C147.928 150.815 147.841 150.515 147.665 150.256C147.493 149.995 147.239 149.789 146.904 149.64C146.573 149.491 146.172 149.416 145.701 149.416H144.841V148.163H145.701C146.079 148.163 146.41 148.095 146.695 147.96C146.984 147.824 147.209 147.635 147.372 147.393C147.534 147.147 147.615 146.861 147.615 146.533C147.615 146.218 147.544 145.944 147.401 145.712C147.262 145.477 147.063 145.293 146.805 145.161C146.55 145.028 146.248 144.962 145.9 144.962C145.569 144.962 145.259 145.023 144.97 145.146C144.685 145.265 144.453 145.437 144.274 145.663C144.095 145.885 143.999 146.152 143.986 146.463H142.499C142.516 145.913 142.678 145.429 142.987 145.011C143.298 144.594 143.709 144.267 144.22 144.032C144.73 143.797 145.297 143.679 145.92 143.679C146.573 143.679 147.136 143.807 147.61 144.062C148.087 144.314 148.455 144.65 148.714 145.071C148.976 145.492 149.105 145.953 149.102 146.453C149.105 147.023 148.946 147.507 148.624 147.905C148.306 148.303 147.882 148.569 147.352 148.705V148.785C148.028 148.888 148.551 149.156 148.923 149.59C149.297 150.024 149.483 150.563 149.48 151.206C149.483 151.766 149.327 152.268 149.012 152.712C148.701 153.156 148.275 153.506 147.734 153.761C147.194 154.013 146.576 154.139 145.88 154.139Z" fill="#191C1F"/>
<path d="M163.887 154L168.331 145.21V145.136H163.191V143.818H169.922V145.18L165.493 154H163.887ZM175.715 154.139C175.092 154.139 174.532 154.02 174.035 153.781C173.541 153.539 173.147 153.208 172.852 152.787C172.557 152.366 172.399 151.885 172.379 151.345H173.871C173.907 151.783 174.101 152.142 174.453 152.424C174.804 152.706 175.225 152.847 175.715 152.847C176.106 152.847 176.453 152.757 176.754 152.578C177.059 152.396 177.298 152.146 177.47 151.827C177.646 151.509 177.734 151.146 177.734 150.739C177.734 150.324 177.644 149.955 177.465 149.63C177.286 149.305 177.039 149.05 176.725 148.864C176.413 148.679 176.055 148.584 175.651 148.581C175.342 148.581 175.033 148.634 174.721 148.74C174.409 148.846 174.158 148.985 173.965 149.158L172.558 148.949L173.13 143.818H178.728V145.136H174.408L174.085 147.984H174.144C174.343 147.792 174.607 147.631 174.935 147.502C175.266 147.373 175.621 147.308 175.999 147.308C176.619 147.308 177.17 147.456 177.654 147.751C178.141 148.046 178.524 148.448 178.803 148.959C179.084 149.466 179.224 150.049 179.22 150.709C179.224 151.368 179.074 151.957 178.773 152.474C178.475 152.991 178.06 153.398 177.53 153.697C177.003 153.992 176.398 154.139 175.715 154.139ZM185.739 143.818V154H184.198V145.359H184.138L181.702 146.95V145.479L184.243 143.818H185.739ZM192.878 154.139C192.195 154.139 191.586 154.022 191.049 153.786C190.515 153.551 190.092 153.224 189.781 152.807C189.473 152.386 189.307 151.899 189.284 151.345H190.845C190.865 151.647 190.966 151.909 191.148 152.131C191.334 152.349 191.576 152.518 191.874 152.638C192.172 152.757 192.504 152.817 192.868 152.817C193.269 152.817 193.624 152.747 193.932 152.608C194.244 152.469 194.487 152.275 194.663 152.026C194.839 151.774 194.926 151.484 194.926 151.156C194.926 150.815 194.839 150.515 194.663 150.256C194.491 149.995 194.237 149.789 193.902 149.64C193.571 149.491 193.17 149.416 192.699 149.416H191.839V148.163H192.699C193.077 148.163 193.408 148.095 193.693 147.96C193.982 147.824 194.207 147.635 194.37 147.393C194.532 147.147 194.613 146.861 194.613 146.533C194.613 146.218 194.542 145.944 194.399 145.712C194.26 145.477 194.061 145.293 193.803 145.161C193.548 145.028 193.246 144.962 192.898 144.962C192.567 144.962 192.257 145.023 191.968 145.146C191.683 145.265 191.451 145.437 191.272 145.663C191.093 145.885 190.997 146.152 190.984 146.463H189.497C189.514 145.913 189.676 145.429 189.985 145.011C190.296 144.594 190.707 144.267 191.218 144.032C191.728 143.797 192.295 143.679 192.918 143.679C193.571 143.679 194.134 143.807 194.608 144.062C195.086 144.314 195.453 144.65 195.712 145.071C195.974 145.492 196.103 145.953 196.1 146.453C196.103 147.023 195.944 147.507 195.622 147.905C195.304 148.303 194.88 148.569 194.35 148.705V148.785C195.026 148.888 195.55 149.156 195.921 149.59C196.295 150.024 196.481 150.563 196.478 151.206C196.481 151.766 196.325 152.268 196.01 152.712C195.699 153.156 195.273 153.506 194.733 153.761C194.192 154.013 193.574 154.139 192.878 154.139Z" fill="#191C1F"/>
<path d="M214.089 154.169C213.303 154.166 212.632 153.959 212.075 153.548C211.518 153.137 211.092 152.538 210.797 151.753C210.502 150.967 210.355 150.021 210.355 148.914C210.355 147.81 210.502 146.867 210.797 146.085C211.096 145.303 211.523 144.706 212.08 144.295C212.64 143.884 213.31 143.679 214.089 143.679C214.867 143.679 215.535 143.886 216.092 144.3C216.649 144.711 217.075 145.308 217.37 146.09C217.668 146.869 217.817 147.81 217.817 148.914C217.817 150.024 217.67 150.972 217.375 151.758C217.08 152.54 216.654 153.138 216.097 153.553C215.54 153.964 214.871 154.169 214.089 154.169ZM214.089 152.842C214.778 152.842 215.317 152.505 215.704 151.832C216.095 151.16 216.291 150.187 216.291 148.914C216.291 148.069 216.202 147.355 216.023 146.771C215.847 146.185 215.593 145.741 215.262 145.439C214.934 145.134 214.543 144.982 214.089 144.982C213.403 144.982 212.864 145.32 212.473 145.996C212.082 146.672 211.885 147.645 211.881 148.914C211.881 149.763 211.969 150.48 212.145 151.067C212.324 151.65 212.577 152.093 212.905 152.394C213.233 152.692 213.628 152.842 214.089 152.842ZM223.966 154.169C223.18 154.166 222.509 153.959 221.952 153.548C221.395 153.137 220.969 152.538 220.675 151.753C220.38 150.967 220.232 150.021 220.232 148.914C220.232 147.81 220.38 146.867 220.675 146.085C220.973 145.303 221.4 144.706 221.957 144.295C222.517 143.884 223.187 143.679 223.966 143.679C224.745 143.679 225.412 143.886 225.969 144.3C226.526 144.711 226.952 145.308 227.247 146.09C227.545 146.869 227.694 147.81 227.694 148.914C227.694 150.024 227.547 150.972 227.252 151.758C226.957 152.54 226.531 153.138 225.974 153.553C225.417 153.964 224.748 154.169 223.966 154.169ZM223.966 152.842C224.655 152.842 225.194 152.505 225.581 151.832C225.973 151.16 226.168 150.187 226.168 148.914C226.168 148.069 226.079 147.355 225.9 146.771C225.724 146.185 225.47 145.741 225.139 145.439C224.811 145.134 224.42 144.982 223.966 144.982C223.28 144.982 222.741 145.32 222.35 145.996C221.959 146.672 221.762 147.645 221.758 148.914C221.758 149.763 221.846 150.48 222.022 151.067C222.201 151.65 222.454 152.093 222.782 152.394C223.111 152.692 223.505 152.842 223.966 152.842ZM234.161 143.818V154H232.62V145.359H232.56L230.124 146.95V145.479L232.665 143.818H234.161ZM237.541 152.011V150.768L241.941 143.818H242.921V145.648H242.299L239.152 150.629V150.709H245.183V152.011H237.541ZM242.369 154V151.634L242.379 151.067V143.818H243.836V154H242.369Z" fill="#191C1F"/>
<rect opacity="0.2" x="18.5645" y="124" width="82.5092" height="8" rx="4" fill="#191C1F"/>
<path d="M56.2437 71.9168C55.6764 76.3502 51.9291 79.9835 47.3567 80.5335C44.5892 80.8668 42.0108 80.1335 39.9997 78.7002C38.848 77.8835 39.123 76.1502 40.4982 75.7502C45.6722 74.2335 49.7461 70.2668 51.3275 65.2502C51.74 63.9335 53.5277 63.6668 54.37 64.7668C55.8311 66.7335 56.5875 69.2335 56.2437 71.9168Z" fill="white"/>
<path d="M35.7368 47.3335C28.1563 47.3335 22.0024 53.3002 22.0024 60.6502C22.0024 68.0002 28.1563 73.9668 35.7368 73.9668C43.3173 73.9668 49.4711 68.0002 49.4711 60.6502C49.4539 53.3002 43.3173 47.3335 35.7368 47.3335ZM34.121 58.7835L38.2636 60.1835C39.7591 60.7002 40.4811 61.7168 40.4811 63.2835C40.4811 65.0835 39.0028 66.5668 37.1979 66.5668H37.0432V66.6502C37.0432 67.3335 36.4587 67.9002 35.754 67.9002C35.0492 67.9002 34.4648 67.3335 34.4648 66.6502V66.5502C32.5567 66.4668 31.0269 64.9168 31.0269 62.9835C31.0269 62.3002 31.6113 61.7335 32.3161 61.7335C33.0209 61.7335 33.6053 62.3002 33.6053 62.9835C33.6053 63.5835 34.0522 64.0668 34.6023 64.0668H37.1807C37.5761 64.0668 37.8855 63.7168 37.8855 63.2835C37.8855 62.7002 37.7823 62.6668 37.387 62.5335L33.2443 61.1335C31.766 60.6335 31.0269 59.6168 31.0269 58.0335C31.0269 56.2335 32.5052 54.7502 34.3101 54.7502H34.4648V54.6835C34.4648 54.0002 35.0492 53.4335 35.754 53.4335C36.4587 53.4335 37.0432 54.0002 37.0432 54.6835V54.7835C38.9512 54.8668 40.4811 56.4168 40.4811 58.3502C40.4811 59.0335 39.8966 59.6002 39.1919 59.6002C38.4871 59.6002 37.9027 59.0335 37.9027 58.3502C37.9027 57.7502 37.4557 57.2668 36.9057 57.2668H34.3273C33.9319 57.2668 33.6225 57.6168 33.6225 58.0502C33.6053 58.6168 33.7084 58.6502 34.121 58.7835Z" fill="#BDD4F1"/>
<g filter="url(#filter0_bd_500_24974)">
<rect x="39" width="317" height="64" rx="12" fill="#BDD4F1" fill-opacity="0.2" shape-rendering="crispEdges"/>
<rect x="47" y="8" width="48" height="48" rx="8" fill="white"/>
<path d="M76.56 37.97H65.44C61.46 37.97 60.25 36.76 60.25 32.78V26.44C60.25 22.46 61.46 21.25 65.44 21.25H76.55C80.53 21.25 81.74 22.46 81.74 26.44V32.77C81.75 36.76 80.54 37.97 76.56 37.97ZM65.44 22.75C62.3 22.75 61.75 23.3 61.75 26.44V32.77C61.75 35.91 62.3 36.46 65.44 36.46H76.55C79.69 36.46 80.24 35.91 80.24 32.77V26.44C80.24 23.3 79.69 22.75 76.55 22.75H65.44Z" fill="#BDD4F1"/>
<path d="M71 42.7502C70.59 42.7502 70.25 42.4102 70.25 42.0002V37.2202C70.25 36.8102 70.59 36.4702 71 36.4702C71.41 36.4702 71.75 36.8102 71.75 37.2202V42.0002C71.75 42.4102 71.41 42.7502 71 42.7502Z" fill="#BDD4F1"/>
<path d="M81 33.75H61C60.59 33.75 60.25 33.41 60.25 33C60.25 32.59 60.59 32.25 61 32.25H81C81.41 32.25 81.75 32.59 81.75 33C81.75 33.41 81.41 33.75 81 33.75Z" fill="#BDD4F1"/>
<path d="M75.5 42.75H66.5C66.09 42.75 65.75 42.41 65.75 42C65.75 41.59 66.09 41.25 66.5 41.25H75.5C75.91 41.25 76.25 41.59 76.25 42C76.25 42.41 75.91 42.75 75.5 42.75Z" fill="#BDD4F1"/>
<path d="M120.337 17.3182V27.5H118.925L113.749 20.0327H113.655V27.5H112.119V17.3182H113.54L118.721 24.7955H118.815V17.3182H120.337ZM125.749 27.6541C124.997 27.6541 124.349 27.4934 123.806 27.1719C123.265 26.8471 122.848 26.3913 122.553 25.8047C122.261 25.2147 122.115 24.5237 122.115 23.7315C122.115 22.9493 122.261 22.2599 122.553 21.6634C122.848 21.0668 123.259 20.6011 123.786 20.2663C124.316 19.9316 124.936 19.7642 125.645 19.7642C126.076 19.7642 126.494 19.8355 126.898 19.978C127.302 20.1205 127.665 20.3442 127.987 20.6491C128.308 20.9541 128.562 21.3501 128.747 21.8374C128.933 22.3213 129.026 22.9096 129.026 23.6023V24.1293H122.955V23.0156H127.569C127.569 22.6245 127.49 22.2782 127.33 21.9766C127.171 21.6716 126.948 21.4313 126.659 21.2557C126.374 21.08 126.039 20.9922 125.655 20.9922C125.237 20.9922 124.873 21.0949 124.561 21.3004C124.253 21.5026 124.014 21.7678 123.845 22.0959C123.68 22.4207 123.597 22.7737 123.597 23.1548V24.0249C123.597 24.5353 123.686 24.9695 123.865 25.3274C124.048 25.6854 124.301 25.9588 124.626 26.1477C124.951 26.3333 125.33 26.4261 125.764 26.4261C126.046 26.4261 126.303 26.3864 126.535 26.3068C126.767 26.224 126.968 26.1013 127.137 25.9389C127.306 25.7765 127.435 25.576 127.524 25.3374L128.931 25.5909C128.819 26.0052 128.616 26.3681 128.325 26.6797C128.036 26.9879 127.673 27.2282 127.236 27.4006C126.802 27.5696 126.306 27.6541 125.749 27.6541ZM132.317 27.5L130.07 19.8636H131.606L133.102 25.4716H133.177L134.678 19.8636H136.215L137.706 25.4467H137.781L139.267 19.8636H140.803L138.561 27.5H137.045L135.494 21.9865H135.379L133.828 27.5H132.317ZM145.919 27.5V19.8636H147.406V27.5H145.919ZM146.67 18.6854C146.411 18.6854 146.189 18.5992 146.004 18.4268C145.821 18.2512 145.73 18.0424 145.73 17.8004C145.73 17.5552 145.821 17.3464 146.004 17.174C146.189 16.9983 146.411 16.9105 146.67 16.9105C146.928 16.9105 147.149 16.9983 147.331 17.174C147.517 17.3464 147.61 17.5552 147.61 17.8004C147.61 18.0424 147.517 18.2512 147.331 18.4268C147.149 18.5992 146.928 18.6854 146.67 18.6854ZM149.525 17.3182H151.389L154.631 25.233H154.75L157.991 17.3182H159.856V27.5H158.394V20.1321H158.3L155.297 27.4851H154.084L151.081 20.1271H150.987V27.5H149.525V17.3182ZM164.192 27.669C163.708 27.669 163.271 27.5795 162.88 27.4006C162.489 27.2183 162.179 26.9548 161.95 26.6101C161.725 26.2654 161.612 25.8428 161.612 25.3423C161.612 24.9115 161.695 24.5568 161.861 24.2784C162.026 24 162.25 23.7796 162.532 23.6172C162.814 23.4548 163.128 23.3321 163.476 23.2493C163.824 23.1664 164.179 23.1035 164.54 23.0604C164.998 23.0073 165.369 22.9643 165.654 22.9311C165.939 22.8946 166.146 22.8366 166.275 22.7571C166.405 22.6776 166.469 22.5483 166.469 22.3693V22.3345C166.469 21.9003 166.347 21.5639 166.101 21.3253C165.859 21.0866 165.498 20.9673 165.018 20.9673C164.517 20.9673 164.123 21.0784 163.834 21.3004C163.549 21.5192 163.352 21.7628 163.243 22.0312L161.846 21.7131C162.011 21.2491 162.253 20.8745 162.572 20.5895C162.893 20.3011 163.263 20.0923 163.68 19.9631C164.098 19.8305 164.537 19.7642 164.998 19.7642C165.303 19.7642 165.626 19.8007 165.967 19.8736C166.312 19.9432 166.633 20.0724 166.932 20.2614C167.233 20.4503 167.48 20.7204 167.672 21.0717C167.865 21.4197 167.961 21.8722 167.961 22.429V27.5H166.509V26.456H166.449C166.353 26.6482 166.209 26.8371 166.017 27.0227C165.825 27.2083 165.578 27.3625 165.276 27.4851C164.974 27.6077 164.613 27.669 164.192 27.669ZM164.515 26.4759C164.926 26.4759 165.278 26.3946 165.569 26.2322C165.864 26.0698 166.088 25.8577 166.241 25.5959C166.396 25.3307 166.474 25.0473 166.474 24.7457V23.7614C166.421 23.8144 166.318 23.8641 166.166 23.9105C166.017 23.9536 165.846 23.9917 165.654 24.0249C165.462 24.0547 165.274 24.0829 165.092 24.1094C164.91 24.1326 164.757 24.1525 164.635 24.169C164.346 24.2055 164.083 24.2668 163.844 24.353C163.609 24.4392 163.42 24.5634 163.278 24.7259C163.138 24.8849 163.069 25.0971 163.069 25.3622C163.069 25.7301 163.205 26.0085 163.476 26.1974C163.748 26.383 164.095 26.4759 164.515 26.4759ZM173.157 27.6541C172.418 27.6541 171.782 27.4867 171.248 27.152C170.718 26.8139 170.31 26.3482 170.025 25.755C169.74 25.1617 169.598 24.4822 169.598 23.7166C169.598 22.9411 169.743 22.2566 170.035 21.6634C170.327 21.0668 170.738 20.6011 171.268 20.2663C171.798 19.9316 172.423 19.7642 173.142 19.7642C173.722 19.7642 174.239 19.8719 174.694 20.0874C175.148 20.2995 175.514 20.5978 175.792 20.9822C176.074 21.3667 176.241 21.8158 176.294 22.3295H174.848C174.768 21.9716 174.586 21.6634 174.301 21.4048C174.019 21.1463 173.641 21.017 173.167 21.017C172.753 21.017 172.39 21.1264 172.078 21.3452C171.77 21.5606 171.53 21.8688 171.358 22.2699C171.185 22.6676 171.099 23.1383 171.099 23.6818C171.099 24.2386 171.184 24.7192 171.353 25.1236C171.522 25.5279 171.76 25.8411 172.069 26.0632C172.38 26.2853 172.746 26.3963 173.167 26.3963C173.449 26.3963 173.704 26.3449 173.933 26.2422C174.165 26.1361 174.359 25.9853 174.515 25.7898C174.674 25.5942 174.785 25.3589 174.848 25.0838H176.294C176.241 25.5777 176.081 26.0185 175.812 26.4062C175.544 26.794 175.184 27.099 174.733 27.321C174.286 27.5431 173.761 27.6541 173.157 27.6541Z" fill="#121B28"/>
<path d="M308.72 25.6193C308.186 25.6193 307.706 25.517 307.28 25.3125C306.857 25.1051 306.518 24.821 306.266 24.4602C306.013 24.0994 305.878 23.6875 305.861 23.2244H307.139C307.17 23.5994 307.337 23.9077 307.638 24.1491C307.939 24.3906 308.3 24.5114 308.72 24.5114C309.055 24.5114 309.352 24.4347 309.611 24.2812C309.872 24.125 310.077 23.9105 310.224 23.6378C310.375 23.3651 310.45 23.054 310.45 22.7045C310.45 22.3494 310.374 22.0327 310.22 21.7543C310.067 21.4759 309.855 21.2571 309.585 21.098C309.318 20.9389 309.011 20.858 308.665 20.8551C308.401 20.8551 308.135 20.9006 307.868 20.9915C307.601 21.0824 307.385 21.2017 307.22 21.3494L306.014 21.1705L306.504 16.7727H311.303V17.902H307.599L307.322 20.3438H307.374C307.544 20.179 307.77 20.0412 308.051 19.9304C308.335 19.8196 308.639 19.7642 308.963 19.7642C309.494 19.7642 309.967 19.8906 310.382 20.1435C310.8 20.3963 311.128 20.7415 311.366 21.179C311.608 21.6136 311.727 22.1136 311.724 22.679C311.727 23.2443 311.599 23.7486 311.341 24.1918C311.085 24.6349 310.73 24.9844 310.276 25.2401C309.824 25.4929 309.305 25.6193 308.72 25.6193ZM316.319 25.6449C315.646 25.642 315.071 25.4645 314.593 25.1122C314.116 24.7599 313.751 24.2472 313.498 23.5739C313.245 22.9006 313.119 22.0895 313.119 21.1406C313.119 20.1946 313.245 19.3864 313.498 18.7159C313.754 18.0455 314.12 17.5341 314.598 17.1818C315.078 16.8295 315.652 16.6534 316.319 16.6534C316.987 16.6534 317.559 16.831 318.037 17.1861C318.514 17.5384 318.879 18.0497 319.132 18.7202C319.387 19.3878 319.515 20.1946 319.515 21.1406C319.515 22.0923 319.389 22.9048 319.136 23.5781C318.883 24.2486 318.518 24.7614 318.041 25.1165C317.564 25.4688 316.99 25.6449 316.319 25.6449ZM316.319 24.5071C316.91 24.5071 317.372 24.2188 317.704 23.642C318.039 23.0653 318.207 22.2315 318.207 21.1406C318.207 20.4162 318.13 19.804 317.977 19.304C317.826 18.8011 317.609 18.4205 317.325 18.1619C317.044 17.9006 316.708 17.7699 316.319 17.7699C315.731 17.7699 315.27 18.0597 314.934 18.6392C314.599 19.2187 314.43 20.0526 314.427 21.1406C314.427 21.8679 314.502 22.483 314.653 22.9858C314.806 23.4858 315.024 23.8651 315.305 24.1236C315.586 24.3793 315.924 24.5071 316.319 24.5071ZM325.582 23.8636V23.4034C325.582 23.0739 325.651 22.7727 325.787 22.5C325.926 22.2244 326.128 22.0043 326.392 21.8395C326.659 21.6719 326.982 21.5881 327.359 21.5881C327.746 21.5881 328.07 21.6705 328.331 21.8352C328.592 22 328.79 22.2202 328.923 22.4957C329.06 22.7713 329.128 23.0739 329.128 23.4034V23.8636C329.128 24.1932 329.06 24.4957 328.923 24.7713C328.787 25.044 328.587 25.2642 328.322 25.4318C328.061 25.5966 327.74 25.679 327.359 25.679C326.976 25.679 326.652 25.5966 326.388 25.4318C326.124 25.2642 325.923 25.044 325.787 24.7713C325.651 24.4957 325.582 24.1932 325.582 23.8636ZM326.575 23.4034V23.8636C326.575 24.108 326.634 24.3295 326.75 24.5284C326.866 24.7273 327.07 24.8267 327.359 24.8267C327.646 24.8267 327.847 24.7273 327.96 24.5284C328.074 24.3295 328.131 24.108 328.131 23.8636V23.4034C328.131 23.1591 328.075 22.9375 327.964 22.7386C327.857 22.5398 327.655 22.4403 327.359 22.4403C327.075 22.4403 326.874 22.5398 326.754 22.7386C326.635 22.9375 326.575 23.1591 326.575 23.4034ZM321.193 18.8693V18.4091C321.193 18.0795 321.261 17.777 321.398 17.5014C321.537 17.2259 321.739 17.0057 322.003 16.8409C322.27 16.6761 322.592 16.5938 322.97 16.5938C323.357 16.5938 323.68 16.6761 323.942 16.8409C324.203 17.0057 324.401 17.2259 324.534 17.5014C324.668 17.777 324.734 18.0795 324.734 18.4091V18.8693C324.734 19.1989 324.666 19.5014 324.53 19.777C324.396 20.0497 324.197 20.2699 323.933 20.4375C323.672 20.6023 323.351 20.6847 322.97 20.6847C322.584 20.6847 322.259 20.6023 321.994 20.4375C321.733 20.2699 321.534 20.0497 321.398 19.777C321.261 19.5014 321.193 19.1989 321.193 18.8693ZM322.19 18.4091V18.8693C322.19 19.1136 322.247 19.3352 322.361 19.5341C322.477 19.733 322.68 19.8324 322.97 19.8324C323.254 19.8324 323.453 19.733 323.567 19.5341C323.683 19.3352 323.741 19.1136 323.741 18.8693V18.4091C323.741 18.1648 323.686 17.9432 323.575 17.7443C323.464 17.5455 323.263 17.446 322.97 17.446C322.686 17.446 322.484 17.5455 322.365 17.7443C322.249 17.9432 322.19 18.1648 322.19 18.4091ZM321.598 25.5L327.598 16.7727H328.616L322.616 25.5H321.598Z" fill="#BDD4F1"/>
<rect x="111" y="42.5" width="220" height="8" rx="4" fill="white"/>
<rect x="111" y="42.5" width="114" height="8" rx="4" fill="#BDD4F1"/>
</g>
<defs>
<filter id="filter0_bd_500_24974" x="35" y="-4" width="325" height="76" filterUnits="userSpaceOnUse" color-interpolation-filters="sRGB">
<feFlood flood-opacity="0" result="BackgroundImageFix"/>
<feGaussianBlur in="BackgroundImageFix" stdDeviation="2"/>
<feComposite in2="SourceAlpha" operator="in" result="effect1_backgroundBlur_500_24974"/>
<feColorMatrix in="SourceAlpha" type="matrix" values="0 0 0 0 0 0 0 0 0 0 0 0 0 0 0 0 0 0 127 0" result="hardAlpha"/>
<feOffset dy="4"/>
<feGaussianBlur stdDeviation="2"/>
<feComposite in2="hardAlpha" operator="out"/>
<feColorMatrix type="matrix" values="0 0 0 0 0 0 0 0 0 0 0 0 0 0 0 0 0 0 0.25 0"/>
<feBlend mode="normal" in2="effect1_backgroundBlur_500_24974" result="effect2_dropShadow_500_24974"/>
<feBlend mode="normal" in="SourceGraphic" in2="effect2_dropShadow_500_24974" result="shape"/>
</filter>
</defs>
</svg>
