<svg width="125" height="43" viewBox="0 0 125 43" fill="none" xmlns="http://www.w3.org/2000/svg">
<circle cx="21.2629" cy="21.4999" r="19.8454" stroke="white" stroke-width="2.83505"/>
<circle cx="21.2629" cy="21.5" r="11.3402" fill="white"/>
<path d="M56.1382 28.0954C60.3714 28.0954 62.4977 25.9691 62.4977 22.4897V14.9511H59.5982V22.2771C59.5982 24.4807 58.7864 25.2732 56.1382 25.2732C53.5093 25.2732 52.6781 24.4807 52.6781 22.2771V14.9511H49.7787V22.4897C49.7787 25.9691 51.9243 28.0954 56.1382 28.0954ZM66.8569 27.9021V23.0116C66.8569 21.3686 67.5141 20.6341 69.3505 20.6341C71.1288 20.6341 71.7667 21.2913 71.7667 22.8377V27.9021H74.6662V21.8712C74.6662 19.7256 73.4098 18.0245 70.7616 18.0245C68.2293 18.0245 67.0695 19.5709 66.8183 21.1946H66.6443V18.2178H63.9574V27.9021H66.8569ZM79.0325 17.232V14.9511H76.133V17.232H79.0325ZM79.0325 27.9021V18.2178H76.133V27.9021H79.0325ZM87.7602 27.9021L92.1868 18.2178H89.0167L86.0979 25.0799H85.9046L83.0051 18.2178H79.777L84.1842 27.9021H87.7602ZM98.094 28.0954C101.167 28.0954 103.216 26.6263 103.216 24.5194V24.3067H100.317V24.5C100.317 25.3312 99.7177 25.7758 97.9974 25.7758C96.1224 25.7758 95.4265 25.1379 95.3492 23.6495H103.236C103.274 23.3209 103.313 23.0696 103.313 22.7217C103.313 19.6869 101.206 18.0245 98.036 18.0245C94.8466 18.0245 92.6623 19.9768 92.6623 23.0696C92.6623 26.5103 94.8659 28.0954 98.094 28.0954ZM97.9781 20.2861C99.6791 20.2861 100.452 20.8467 100.53 22.1225H95.3878C95.5232 20.866 96.2577 20.2861 97.9781 20.2861ZM107.442 27.9021V22.2964C107.442 21.0786 107.906 20.4794 109.201 20.4794C110.38 20.4794 110.806 20.9433 110.806 22.0065V23.0116H113.705V21.4073C113.705 19.5129 112.816 18.0245 110.651 18.0245C108.699 18.0245 107.674 19.223 107.403 20.7887H107.23V18.2178H104.543V27.9021H107.442ZM119.646 28.0954C122.642 28.0954 124.439 26.8969 124.439 25.0799C124.439 23.4756 123.473 22.6057 120.883 22.3158L118.814 22.0645C117.539 21.9098 117.268 21.6972 117.268 21.1946C117.268 20.5761 117.635 20.3248 119.085 20.3248C120.863 20.3248 121.25 20.7307 121.25 21.5232V21.6392H124.149V21.5812C124.149 19.223 122.352 18.0245 119.182 18.0245C115.857 18.0245 114.407 19.3776 114.407 21.0786C114.407 22.7024 115.49 23.5722 117.423 23.7848L120.148 24.1134C121.289 24.2681 121.578 24.4227 121.578 24.964C121.578 25.5439 121.211 25.7951 119.665 25.7951C118.022 25.7951 117.481 25.5632 117.481 24.6933V24.5194H114.581V24.5774C114.581 26.8196 116.379 28.0954 119.646 28.0954Z" fill="white"/>
</svg>
